<svg xmlns="http://www.w3.org/2000/svg" xmlns:xlink="http://www.w3.org/1999/xlink" width="190" zoomAndPan="magnify" viewBox="0 0 142.5 44.999999" height="60" preserveAspectRatio="xMidYMid meet" version="1.0"><defs><g/><clipPath id="c15d8f5bd4"><path d="M 24.496094 8.394531 L 51 8.394531 L 51 36 L 24.496094 36 Z M 24.496094 8.394531 " clip-rule="nonzero"/></clipPath><clipPath id="272acb546f"><path d="M 39.554688 21.210938 L 27.855469 21.210938 C 27.402344 21.210938 27.074219 20.777344 27.195312 20.339844 L 30.40625 8.894531 C 30.492188 8.597656 30.761719 8.394531 31.066406 8.394531 L 42.765625 8.394531 C 43.222656 8.394531 43.550781 8.824219 43.425781 9.261719 L 40.214844 20.710938 C 40.132812 21.003906 39.863281 21.210938 39.554688 21.210938 Z M 31.957031 29.851562 L 33.609375 23.957031 C 33.734375 23.519531 33.402344 23.085938 32.949219 23.085938 L 26.9375 23.085938 C 26.628906 23.085938 26.359375 23.289062 26.277344 23.585938 L 24.621094 29.480469 C 24.5 29.917969 24.828125 30.351562 25.28125 30.351562 L 31.296875 30.351562 C 31.605469 30.351562 31.875 30.144531 31.957031 29.851562 Z M 35 23.585938 L 31.789062 35.035156 C 31.664062 35.46875 31.992188 35.902344 32.445312 35.902344 L 44.148438 35.902344 C 44.453125 35.902344 44.722656 35.699219 44.804688 35.402344 L 48.019531 23.957031 C 48.140625 23.519531 47.8125 23.085938 47.359375 23.085938 L 35.660156 23.085938 C 35.351562 23.085938 35.082031 23.289062 35 23.585938 Z M 43.257812 14.445312 L 41.605469 20.339844 C 41.480469 20.777344 41.808594 21.210938 42.265625 21.210938 L 48.277344 21.210938 C 48.585938 21.210938 48.855469 21.003906 48.9375 20.710938 L 50.589844 14.816406 C 50.714844 14.378906 50.386719 13.945312 49.933594 13.945312 L 43.917969 13.945312 C 43.609375 13.945312 43.339844 14.148438 43.257812 14.445312 Z M 43.257812 14.445312 " clip-rule="nonzero"/></clipPath><linearGradient x1="114.29646" gradientTransform="matrix(0.0550216, 0, 0, 0.0550216, 24.596756, 8.392855)" y1="-47.633926" x2="358.621855" gradientUnits="userSpaceOnUse" y2="547.63403" id="64b34262c8"><stop stop-opacity="1" stop-color="rgb(16.499329%, 28.199768%, 63.899231%)" offset="0"/><stop stop-opacity="1" stop-color="rgb(16.499329%, 28.199768%, 63.899231%)" offset="0.0625"/><stop stop-opacity="1" stop-color="rgb(16.482544%, 28.17688%, 63.859558%)" offset="0.09375"/><stop stop-opacity="1" stop-color="rgb(16.419983%, 28.091431%, 63.711548%)" offset="0.101562"/><stop stop-opacity="1" stop-color="rgb(16.326904%, 27.967834%, 63.496399%)" offset="0.109375"/><stop stop-opacity="1" stop-color="rgb(16.235352%, 27.844238%, 63.28125%)" offset="0.117188"/><stop stop-opacity="1" stop-color="rgb(16.143799%, 27.720642%, 63.066101%)" offset="0.125"/><stop stop-opacity="1" stop-color="rgb(16.052246%, 27.598572%, 62.850952%)" offset="0.132813"/><stop stop-opacity="1" stop-color="rgb(15.960693%, 27.474976%, 62.635803%)" offset="0.140625"/><stop stop-opacity="1" stop-color="rgb(15.869141%, 27.351379%, 62.420654%)" offset="0.148438"/><stop stop-opacity="1" stop-color="rgb(15.777588%, 27.227783%, 62.205505%)" offset="0.15625"/><stop stop-opacity="1" stop-color="rgb(15.686035%, 27.104187%, 61.991882%)" offset="0.164063"/><stop stop-opacity="1" stop-color="rgb(15.594482%, 26.982117%, 61.776733%)" offset="0.171875"/><stop stop-opacity="1" stop-color="rgb(15.50293%, 26.858521%, 61.561584%)" offset="0.179688"/><stop stop-opacity="1" stop-color="rgb(15.411377%, 26.734924%, 61.346436%)" offset="0.1875"/><stop stop-opacity="1" stop-color="rgb(15.318298%, 26.611328%, 61.131287%)" offset="0.195312"/><stop stop-opacity="1" stop-color="rgb(15.226746%, 26.487732%, 60.916138%)" offset="0.203125"/><stop stop-opacity="1" stop-color="rgb(15.135193%, 26.364136%, 60.700989%)" offset="0.210938"/><stop stop-opacity="1" stop-color="rgb(15.04364%, 26.242065%, 60.48584%)" offset="0.21875"/><stop stop-opacity="1" stop-color="rgb(14.952087%, 26.118469%, 60.270691%)" offset="0.226562"/><stop stop-opacity="1" stop-color="rgb(14.860535%, 25.994873%, 60.055542%)" offset="0.234375"/><stop stop-opacity="1" stop-color="rgb(14.768982%, 25.871277%, 59.840393%)" offset="0.242188"/><stop stop-opacity="1" stop-color="rgb(14.677429%, 25.747681%, 59.625244%)" offset="0.25"/><stop stop-opacity="1" stop-color="rgb(14.585876%, 25.624084%, 59.411621%)" offset="0.257813"/><stop stop-opacity="1" stop-color="rgb(14.494324%, 25.502014%, 59.196472%)" offset="0.265625"/><stop stop-opacity="1" stop-color="rgb(14.401245%, 25.378418%, 58.981323%)" offset="0.273438"/><stop stop-opacity="1" stop-color="rgb(14.309692%, 25.254822%, 58.766174%)" offset="0.281145"/><stop stop-opacity="1" stop-color="rgb(14.263916%, 25.193787%, 58.659363%)" offset="0.28125"/><stop stop-opacity="1" stop-color="rgb(14.21814%, 25.131226%, 58.551025%)" offset="0.289063"/><stop stop-opacity="1" stop-color="rgb(14.126587%, 25.007629%, 58.335876%)" offset="0.296875"/><stop stop-opacity="1" stop-color="rgb(14.035034%, 24.885559%, 58.120728%)" offset="0.304688"/><stop stop-opacity="1" stop-color="rgb(13.943481%, 24.761963%, 57.905579%)" offset="0.3125"/><stop stop-opacity="1" stop-color="rgb(13.851929%, 24.638367%, 57.69043%)" offset="0.320313"/><stop stop-opacity="1" stop-color="rgb(13.760376%, 24.514771%, 57.475281%)" offset="0.328125"/><stop stop-opacity="1" stop-color="rgb(13.668823%, 24.391174%, 57.260132%)" offset="0.335938"/><stop stop-opacity="1" stop-color="rgb(13.577271%, 24.267578%, 57.044983%)" offset="0.34375"/><stop stop-opacity="1" stop-color="rgb(13.484192%, 24.145508%, 56.829834%)" offset="0.351563"/><stop stop-opacity="1" stop-color="rgb(13.392639%, 24.021912%, 56.616211%)" offset="0.359375"/><stop stop-opacity="1" stop-color="rgb(13.301086%, 23.898315%, 56.401062%)" offset="0.367188"/><stop stop-opacity="1" stop-color="rgb(13.209534%, 23.774719%, 56.185913%)" offset="0.375"/><stop stop-opacity="1" stop-color="rgb(13.117981%, 23.651123%, 55.970764%)" offset="0.382813"/><stop stop-opacity="1" stop-color="rgb(13.026428%, 23.529053%, 55.755615%)" offset="0.390625"/><stop stop-opacity="1" stop-color="rgb(12.934875%, 23.405457%, 55.540466%)" offset="0.398438"/><stop stop-opacity="1" stop-color="rgb(12.843323%, 23.28186%, 55.325317%)" offset="0.40625"/><stop stop-opacity="1" stop-color="rgb(12.75177%, 23.158264%, 55.110168%)" offset="0.414063"/><stop stop-opacity="1" stop-color="rgb(12.660217%, 23.034668%, 54.89502%)" offset="0.421875"/><stop stop-opacity="1" stop-color="rgb(12.567139%, 22.911072%, 54.679871%)" offset="0.429688"/><stop stop-opacity="1" stop-color="rgb(12.475586%, 22.789001%, 54.464722%)" offset="0.4375"/><stop stop-opacity="1" stop-color="rgb(12.384033%, 22.665405%, 54.249573%)" offset="0.445313"/><stop stop-opacity="1" stop-color="rgb(12.29248%, 22.541809%, 54.03595%)" offset="0.453125"/><stop stop-opacity="1" stop-color="rgb(12.200928%, 22.418213%, 53.820801%)" offset="0.460938"/><stop stop-opacity="1" stop-color="rgb(12.109375%, 22.294617%, 53.605652%)" offset="0.46875"/><stop stop-opacity="1" stop-color="rgb(12.017822%, 22.171021%, 53.390503%)" offset="0.476563"/><stop stop-opacity="1" stop-color="rgb(11.92627%, 22.04895%, 53.175354%)" offset="0.484375"/><stop stop-opacity="1" stop-color="rgb(11.834717%, 21.925354%, 52.960205%)" offset="0.492188"/><stop stop-opacity="1" stop-color="rgb(11.743164%, 21.801758%, 52.745056%)" offset="0.5"/><stop stop-opacity="1" stop-color="rgb(11.651611%, 21.678162%, 52.529907%)" offset="0.507813"/><stop stop-opacity="1" stop-color="rgb(11.558533%, 21.554565%, 52.314758%)" offset="0.515625"/><stop stop-opacity="1" stop-color="rgb(11.46698%, 21.432495%, 52.099609%)" offset="0.523438"/><stop stop-opacity="1" stop-color="rgb(11.375427%, 21.308899%, 51.88446%)" offset="0.53125"/><stop stop-opacity="1" stop-color="rgb(11.283875%, 21.185303%, 51.669312%)" offset="0.539063"/><stop stop-opacity="1" stop-color="rgb(11.192322%, 21.061707%, 51.455688%)" offset="0.546875"/><stop stop-opacity="1" stop-color="rgb(11.100769%, 20.93811%, 51.24054%)" offset="0.554688"/><stop stop-opacity="1" stop-color="rgb(11.009216%, 20.814514%, 51.025391%)" offset="0.5625"/><stop stop-opacity="1" stop-color="rgb(10.917664%, 20.692444%, 50.810242%)" offset="0.570313"/><stop stop-opacity="1" stop-color="rgb(10.826111%, 20.568848%, 50.595093%)" offset="0.578125"/><stop stop-opacity="1" stop-color="rgb(10.734558%, 20.445251%, 50.379944%)" offset="0.585938"/><stop stop-opacity="1" stop-color="rgb(10.641479%, 20.321655%, 50.164795%)" offset="0.59375"/><stop stop-opacity="1" stop-color="rgb(10.549927%, 20.198059%, 49.949646%)" offset="0.601563"/><stop stop-opacity="1" stop-color="rgb(10.458374%, 20.075989%, 49.734497%)" offset="0.609375"/><stop stop-opacity="1" stop-color="rgb(10.366821%, 19.952393%, 49.519348%)" offset="0.617188"/><stop stop-opacity="1" stop-color="rgb(10.275269%, 19.828796%, 49.304199%)" offset="0.625"/><stop stop-opacity="1" stop-color="rgb(10.183716%, 19.7052%, 49.08905%)" offset="0.632813"/><stop stop-opacity="1" stop-color="rgb(10.092163%, 19.581604%, 48.873901%)" offset="0.640625"/><stop stop-opacity="1" stop-color="rgb(10.00061%, 19.458008%, 48.660278%)" offset="0.648438"/><stop stop-opacity="1" stop-color="rgb(9.909058%, 19.335938%, 48.445129%)" offset="0.65625"/><stop stop-opacity="1" stop-color="rgb(9.817505%, 19.212341%, 48.22998%)" offset="0.664063"/><stop stop-opacity="1" stop-color="rgb(9.724426%, 19.088745%, 48.014832%)" offset="0.671875"/><stop stop-opacity="1" stop-color="rgb(9.632874%, 18.965149%, 47.799683%)" offset="0.679688"/><stop stop-opacity="1" stop-color="rgb(9.541321%, 18.841553%, 47.584534%)" offset="0.6875"/><stop stop-opacity="1" stop-color="rgb(9.449768%, 18.717957%, 47.369385%)" offset="0.695313"/><stop stop-opacity="1" stop-color="rgb(9.358215%, 18.595886%, 47.154236%)" offset="0.703125"/><stop stop-opacity="1" stop-color="rgb(9.266663%, 18.47229%, 46.939087%)" offset="0.710938"/><stop stop-opacity="1" stop-color="rgb(9.17511%, 18.348694%, 46.723938%)" offset="0.71875"/><stop stop-opacity="1" stop-color="rgb(9.083557%, 18.225098%, 46.508789%)" offset="0.718855"/><stop stop-opacity="1" stop-color="rgb(9.037781%, 18.164062%, 46.401978%)" offset="0.726563"/><stop stop-opacity="1" stop-color="rgb(8.992004%, 18.101501%, 46.29364%)" offset="0.734375"/><stop stop-opacity="1" stop-color="rgb(8.900452%, 17.979431%, 46.080017%)" offset="0.742188"/><stop stop-opacity="1" stop-color="rgb(8.807373%, 17.855835%, 45.864868%)" offset="0.75"/><stop stop-opacity="1" stop-color="rgb(8.71582%, 17.732239%, 45.649719%)" offset="0.757813"/><stop stop-opacity="1" stop-color="rgb(8.624268%, 17.608643%, 45.43457%)" offset="0.765625"/><stop stop-opacity="1" stop-color="rgb(8.532715%, 17.485046%, 45.219421%)" offset="0.773438"/><stop stop-opacity="1" stop-color="rgb(8.441162%, 17.36145%, 45.004272%)" offset="0.78125"/><stop stop-opacity="1" stop-color="rgb(8.349609%, 17.23938%, 44.789124%)" offset="0.789063"/><stop stop-opacity="1" stop-color="rgb(8.258057%, 17.115784%, 44.573975%)" offset="0.796875"/><stop stop-opacity="1" stop-color="rgb(8.166504%, 16.992188%, 44.358826%)" offset="0.804688"/><stop stop-opacity="1" stop-color="rgb(8.074951%, 16.868591%, 44.143677%)" offset="0.8125"/><stop stop-opacity="1" stop-color="rgb(7.983398%, 16.744995%, 43.928528%)" offset="0.820313"/><stop stop-opacity="1" stop-color="rgb(7.89032%, 16.622925%, 43.713379%)" offset="0.828125"/><stop stop-opacity="1" stop-color="rgb(7.821655%, 16.529846%, 43.553162%)" offset="0.84375"/><stop stop-opacity="1" stop-color="rgb(7.798767%, 16.499329%, 43.499756%)" offset="0.875"/><stop stop-opacity="1" stop-color="rgb(7.798767%, 16.499329%, 43.499756%)" offset="1"/></linearGradient><clipPath id="66a1f9e348"><path d="M 31.613281 11 L 39.824219 11 L 39.824219 18 L 31.613281 18 Z M 31.613281 11 " clip-rule="nonzero"/></clipPath><clipPath id="bf872c5259"><path d="M 34 10.078125 L 39.824219 10.078125 L 39.824219 19.550781 L 34 19.550781 Z M 34 10.078125 " clip-rule="nonzero"/></clipPath><clipPath id="7ab662c55a"><path d="M 31.613281 10.078125 L 37 10.078125 L 37 18 L 31.613281 18 Z M 31.613281 10.078125 " clip-rule="nonzero"/></clipPath></defs><g clip-path="url(#c15d8f5bd4)"><g clip-path="url(#272acb546f)"><path fill="url(#64b34262c8)" d="M 24.5 8.394531 L 24.5 35.902344 L 50.714844 35.902344 L 50.714844 8.394531 Z M 24.5 8.394531 " fill-rule="nonzero"/></g></g><g fill="#ffffff" fill-opacity="1"><g transform="translate(53.437045, 29.823766)"><g><path d="M 11.859375 -14.09375 C 12.085938 -14.09375 12.1875 -13.976562 12.15625 -13.75 L 11.9375 -11.96875 C 11.90625 -11.738281 11.773438 -11.625 11.546875 -11.625 L 8.1875 -11.625 C 8.125 -11.625 8.078125 -11.585938 8.046875 -11.515625 L 6.6875 -0.34375 C 6.65625 -0.113281 6.523438 0 6.296875 0 L 4.21875 0 C 4 0 3.898438 -0.113281 3.921875 -0.34375 L 5.296875 -11.515625 C 5.316406 -11.585938 5.28125 -11.625 5.1875 -11.625 L 1.90625 -11.625 C 1.800781 -11.625 1.722656 -11.65625 1.671875 -11.71875 C 1.628906 -11.78125 1.613281 -11.863281 1.625 -11.96875 L 1.84375 -13.75 C 1.875 -13.976562 2 -14.09375 2.21875 -14.09375 Z M 11.859375 -14.09375 "/></g></g></g><g fill="#ffffff" fill-opacity="1"><g transform="translate(64.849813, 29.823766)"><g><path d="M 6.90625 -10.484375 C 7.320312 -10.484375 7.65625 -10.40625 7.90625 -10.25 C 8.007812 -10.1875 8.0625 -10.101562 8.0625 -10 C 8.0625 -9.957031 8.050781 -9.898438 8.03125 -9.828125 L 7.40625 -7.703125 C 7.375 -7.597656 7.328125 -7.53125 7.265625 -7.5 C 7.210938 -7.46875 7.125 -7.460938 7 -7.484375 C 6.789062 -7.535156 6.601562 -7.5625 6.4375 -7.5625 C 6.34375 -7.5625 6.191406 -7.550781 5.984375 -7.53125 C 5.503906 -7.488281 5.082031 -7.304688 4.71875 -6.984375 C 4.351562 -6.660156 4.140625 -6.242188 4.078125 -5.734375 L 3.421875 -0.34375 C 3.390625 -0.113281 3.257812 0 3.03125 0 L 0.96875 0 C 0.738281 0 0.640625 -0.113281 0.671875 -0.34375 L 1.84375 -10 C 1.875 -10.226562 2.003906 -10.34375 2.234375 -10.34375 L 4.3125 -10.34375 C 4.539062 -10.34375 4.640625 -10.226562 4.609375 -10 L 4.53125 -9.375 C 4.519531 -9.320312 4.523438 -9.285156 4.546875 -9.265625 C 4.578125 -9.253906 4.613281 -9.269531 4.65625 -9.3125 C 5.269531 -10.09375 6.019531 -10.484375 6.90625 -10.484375 Z M 6.90625 -10.484375 "/></g></g></g><g fill="#ffffff" fill-opacity="1"><g transform="translate(72.337554, 29.823766)"><g><path d="M 0.90625 0 C 0.675781 0 0.578125 -0.113281 0.609375 -0.34375 L 1.796875 -10 C 1.828125 -10.226562 1.953125 -10.34375 2.171875 -10.34375 L 4.265625 -10.34375 C 4.484375 -10.34375 4.578125 -10.226562 4.546875 -10 L 3.359375 -0.34375 C 3.335938 -0.113281 3.210938 0 2.984375 0 Z M 2.359375 -11.765625 C 2.179688 -11.765625 2.09375 -11.832031 2.09375 -11.96875 C 2.09375 -12.019531 2.113281 -12.085938 2.15625 -12.171875 L 3.34375 -14 C 3.4375 -14.164062 3.578125 -14.25 3.765625 -14.25 L 5.734375 -14.25 C 5.910156 -14.25 6 -14.1875 6 -14.0625 C 6 -14 5.96875 -13.921875 5.90625 -13.828125 L 4.4375 -11.984375 C 4.3125 -11.835938 4.160156 -11.765625 3.984375 -11.765625 Z M 2.359375 -11.765625 "/></g></g></g><g fill="#ffffff" fill-opacity="1"><g transform="translate(77.047585, 29.823766)"><g/></g></g><g fill="#ffffff" fill-opacity="1"><g transform="translate(80.952484, 29.823766)"><g><path d="M 8.640625 -14.09375 C 9.992188 -14.09375 11.066406 -13.757812 11.859375 -13.09375 C 12.648438 -12.425781 13.046875 -11.535156 13.046875 -10.421875 C 13.046875 -10.285156 13.03125 -10.085938 13 -9.828125 L 12.3125 -4.265625 C 12.207031 -3.421875 11.910156 -2.675781 11.421875 -2.03125 C 10.941406 -1.382812 10.3125 -0.882812 9.53125 -0.53125 C 8.757812 -0.175781 7.882812 0 6.90625 0 L 2.140625 0 C 1.910156 0 1.804688 -0.113281 1.828125 -0.34375 L 2.5625 -6.171875 C 2.5625 -6.253906 2.523438 -6.296875 2.453125 -6.296875 L 1.90625 -6.296875 C 1.675781 -6.296875 1.578125 -6.410156 1.609375 -6.640625 L 1.765625 -7.890625 C 1.796875 -8.117188 1.921875 -8.234375 2.140625 -8.234375 L 2.703125 -8.234375 C 2.773438 -8.234375 2.8125 -8.273438 2.8125 -8.359375 L 3.484375 -13.75 C 3.503906 -13.976562 3.628906 -14.09375 3.859375 -14.09375 Z M 10.1875 -9.359375 C 10.195312 -9.453125 10.203125 -9.59375 10.203125 -9.78125 C 10.203125 -10.351562 10.039062 -10.804688 9.71875 -11.140625 C 9.40625 -11.484375 8.96875 -11.65625 8.40625 -11.65625 L 6.09375 -11.65625 C 6.03125 -11.65625 5.984375 -11.613281 5.953125 -11.53125 L 5.578125 -8.359375 C 5.578125 -8.273438 5.609375 -8.234375 5.671875 -8.234375 L 7.125 -8.234375 C 7.226562 -8.234375 7.300781 -8.203125 7.34375 -8.140625 C 7.394531 -8.078125 7.414062 -7.992188 7.40625 -7.890625 L 7.265625 -6.640625 C 7.222656 -6.410156 7.09375 -6.296875 6.875 -6.296875 L 5.4375 -6.296875 C 5.351562 -6.296875 5.3125 -6.253906 5.3125 -6.171875 L 4.875 -2.5625 C 4.851562 -2.53125 4.851562 -2.5 4.875 -2.46875 C 4.894531 -2.445312 4.925781 -2.4375 4.96875 -2.4375 L 7.3125 -2.4375 C 7.914062 -2.4375 8.425781 -2.644531 8.84375 -3.0625 C 9.269531 -3.476562 9.53125 -4.035156 9.625 -4.734375 Z M 10.1875 -9.359375 "/></g></g></g><g fill="#ffffff" fill-opacity="1"><g transform="translate(94.015771, 29.823766)"><g><path d="M 3.890625 0.203125 C 2.929688 0.203125 2.21875 -0.0820312 1.75 -0.65625 C 1.28125 -1.226562 1.046875 -1.992188 1.046875 -2.953125 C 1.046875 -3.203125 1.070312 -3.515625 1.125 -3.890625 C 1.175781 -4.273438 1.242188 -4.660156 1.328125 -5.046875 L 2.578125 -10.984375 L 5.53125 -10.984375 L 4.1875 -4.5625 C 4.082031 -4.09375 4.03125 -3.707031 4.03125 -3.40625 C 4.03125 -2.59375 4.382812 -2.1875 5.09375 -2.1875 C 5.53125 -2.1875 5.929688 -2.378906 6.296875 -2.765625 C 6.660156 -3.148438 6.972656 -3.660156 7.234375 -4.296875 C 7.503906 -4.941406 7.722656 -5.65625 7.890625 -6.4375 L 8.859375 -10.984375 L 11.8125 -10.984375 L 11.578125 -9.875 C 12.203125 -10.039062 12.628906 -10.378906 12.859375 -10.890625 C 13.085938 -11.398438 13.253906 -11.976562 13.359375 -12.625 L 16.34375 -12.625 L 16.4375 -12.375 C 16.207031 -11.632812 15.878906 -10.945312 15.453125 -10.3125 C 15.023438 -9.6875 14.460938 -9.171875 13.765625 -8.765625 C 13.066406 -8.359375 12.207031 -8.113281 11.1875 -8.03125 L 9.484375 0 L 7.25 0 L 7.453125 -2.03125 L 7.359375 -2.03125 C 6.929688 -1.375 6.4375 -0.835938 5.875 -0.421875 C 5.3125 -0.00390625 4.648438 0.203125 3.890625 0.203125 Z M 5.71875 -12.203125 L 5.71875 -12.4375 C 6.050781 -12.8125 6.414062 -13.285156 6.8125 -13.859375 C 7.21875 -14.429688 7.578125 -14.953125 7.890625 -15.421875 L 11.1875 -15.421875 L 11.1875 -15.25 C 11.039062 -15.0625 10.828125 -14.832031 10.546875 -14.5625 C 10.273438 -14.300781 9.972656 -14.019531 9.640625 -13.71875 C 9.304688 -13.425781 8.972656 -13.144531 8.640625 -12.875 C 8.304688 -12.613281 8.015625 -12.390625 7.765625 -12.203125 Z M 5.71875 -12.203125 "/></g></g></g><g fill="#ffffff" fill-opacity="1"><g transform="translate(108.327018, 29.823766)"><g><path d="M 5.015625 0.15625 C 3.984375 0.15625 3.117188 -0.109375 2.421875 -0.640625 C 1.722656 -1.179688 1.265625 -1.921875 1.046875 -2.859375 C 0.960938 -3.242188 0.921875 -3.648438 0.921875 -4.078125 C 0.921875 -4.304688 0.945312 -4.691406 1 -5.234375 C 1.113281 -6.085938 1.320312 -6.863281 1.625 -7.5625 C 2.0625 -8.476562 2.691406 -9.195312 3.515625 -9.71875 C 4.347656 -10.238281 5.28125 -10.5 6.3125 -10.5 C 7.363281 -10.5 8.25 -10.226562 8.96875 -9.6875 C 9.6875 -9.15625 10.125 -8.484375 10.28125 -7.671875 C 10.332031 -7.453125 10.359375 -7.242188 10.359375 -7.046875 C 10.359375 -6.835938 10.253906 -6.71875 10.046875 -6.6875 L 7.953125 -6.359375 L 7.84375 -6.34375 C 7.78125 -6.34375 7.722656 -6.363281 7.671875 -6.40625 C 7.628906 -6.457031 7.609375 -6.515625 7.609375 -6.578125 L 7.59375 -6.859375 C 7.53125 -7.210938 7.359375 -7.5 7.078125 -7.71875 C 6.796875 -7.945312 6.441406 -8.0625 6.015625 -8.0625 C 5.597656 -8.0625 5.234375 -7.953125 4.921875 -7.734375 C 4.609375 -7.523438 4.367188 -7.234375 4.203125 -6.859375 C 4.003906 -6.429688 3.863281 -5.882812 3.78125 -5.21875 C 3.738281 -4.875 3.71875 -4.5625 3.71875 -4.28125 C 3.71875 -3.988281 3.738281 -3.75 3.78125 -3.5625 C 3.851562 -3.15625 4.015625 -2.835938 4.265625 -2.609375 C 4.523438 -2.390625 4.867188 -2.28125 5.296875 -2.28125 C 5.710938 -2.28125 6.082031 -2.390625 6.40625 -2.609375 C 6.738281 -2.828125 6.984375 -3.125 7.140625 -3.5 L 7.1875 -3.609375 C 7.195312 -3.660156 7.242188 -3.722656 7.328125 -3.796875 C 7.421875 -3.867188 7.515625 -3.898438 7.609375 -3.890625 L 9.625 -3.5625 C 9.71875 -3.53125 9.78125 -3.484375 9.8125 -3.421875 C 9.851562 -3.359375 9.863281 -3.28125 9.84375 -3.1875 C 9.832031 -3.050781 9.78125 -2.894531 9.6875 -2.71875 C 9.289062 -1.820312 8.671875 -1.117188 7.828125 -0.609375 C 6.984375 -0.0976562 6.046875 0.15625 5.015625 0.15625 Z M 5.015625 0.15625 "/></g></g></g><g fill="#ffffff" fill-opacity="1"><g transform="translate(56.386139, 35.90046)"><g><path d="M 0.328125 0 C 0.273438 0 0.25 -0.0195312 0.25 -0.0625 L 0.25 -2.796875 C 0.25 -2.835938 0.273438 -2.859375 0.328125 -2.859375 L 0.765625 -2.859375 C 0.796875 -2.859375 0.820312 -2.847656 0.84375 -2.828125 L 1.4375 -1.859375 C 1.4375 -1.847656 1.441406 -1.84375 1.453125 -1.84375 C 1.460938 -1.84375 1.46875 -1.847656 1.46875 -1.859375 L 2.078125 -2.828125 C 2.085938 -2.847656 2.113281 -2.859375 2.15625 -2.859375 L 2.59375 -2.859375 C 2.632812 -2.859375 2.65625 -2.835938 2.65625 -2.796875 L 2.65625 -0.0625 C 2.65625 -0.0195312 2.632812 0 2.59375 0 L 2.15625 0 C 2.101562 0 2.078125 -0.0195312 2.078125 -0.0625 L 2.078125 -1.84375 C 2.078125 -1.851562 2.070312 -1.859375 2.0625 -1.859375 C 2.0625 -1.859375 2.0625 -1.851562 2.0625 -1.84375 L 1.640625 -1.171875 C 1.617188 -1.140625 1.59375 -1.125 1.5625 -1.125 L 1.34375 -1.125 C 1.3125 -1.125 1.285156 -1.140625 1.265625 -1.171875 L 0.859375 -1.84375 C 0.847656 -1.851562 0.835938 -1.859375 0.828125 -1.859375 C 0.828125 -1.859375 0.828125 -1.851562 0.828125 -1.84375 L 0.828125 -0.0625 C 0.828125 -0.0195312 0.804688 0 0.765625 0 Z M 0.328125 0 "/></g></g></g><g fill="#ffffff" fill-opacity="1"><g transform="translate(59.293029, 35.90046)"><g><path d="M 1.0625 -2.140625 C 1.238281 -2.140625 1.394531 -2.109375 1.53125 -2.046875 C 1.664062 -1.984375 1.769531 -1.898438 1.84375 -1.796875 C 1.925781 -1.691406 1.96875 -1.570312 1.96875 -1.4375 L 1.96875 -0.0625 C 1.96875 -0.0195312 1.945312 0 1.90625 0 L 1.46875 0 C 1.414062 0 1.390625 -0.0195312 1.390625 -0.0625 L 1.390625 -0.171875 C 1.390625 -0.179688 1.382812 -0.1875 1.375 -0.1875 C 1.375 -0.1875 1.375 -0.179688 1.375 -0.171875 C 1.238281 -0.0351562 1.050781 0.03125 0.8125 0.03125 C 0.59375 0.03125 0.421875 -0.0195312 0.296875 -0.125 C 0.171875 -0.226562 0.109375 -0.378906 0.109375 -0.578125 C 0.109375 -0.785156 0.179688 -0.945312 0.328125 -1.0625 C 0.472656 -1.1875 0.679688 -1.25 0.953125 -1.25 L 1.375 -1.25 C 1.382812 -1.25 1.390625 -1.253906 1.390625 -1.265625 L 1.390625 -1.359375 C 1.390625 -1.441406 1.363281 -1.507812 1.3125 -1.5625 C 1.257812 -1.613281 1.175781 -1.640625 1.0625 -1.640625 C 0.988281 -1.640625 0.921875 -1.625 0.859375 -1.59375 C 0.804688 -1.570312 0.769531 -1.535156 0.75 -1.484375 C 0.738281 -1.441406 0.710938 -1.425781 0.671875 -1.4375 L 0.21875 -1.484375 C 0.195312 -1.492188 0.179688 -1.5 0.171875 -1.5 C 0.160156 -1.507812 0.15625 -1.523438 0.15625 -1.546875 C 0.164062 -1.660156 0.210938 -1.757812 0.296875 -1.84375 C 0.378906 -1.9375 0.484375 -2.007812 0.609375 -2.0625 C 0.742188 -2.113281 0.894531 -2.140625 1.0625 -2.140625 Z M 0.96875 -0.390625 C 1.09375 -0.390625 1.191406 -0.421875 1.265625 -0.484375 C 1.347656 -0.546875 1.390625 -0.628906 1.390625 -0.734375 L 1.390625 -0.875 C 1.390625 -0.894531 1.382812 -0.90625 1.375 -0.90625 L 1.078125 -0.90625 C 0.953125 -0.90625 0.851562 -0.878906 0.78125 -0.828125 C 0.71875 -0.785156 0.6875 -0.722656 0.6875 -0.640625 C 0.6875 -0.566406 0.710938 -0.503906 0.765625 -0.453125 C 0.816406 -0.410156 0.882812 -0.390625 0.96875 -0.390625 Z M 0.875 -2.375 C 0.832031 -2.375 0.8125 -2.390625 0.8125 -2.421875 C 0.8125 -2.441406 0.8125 -2.457031 0.8125 -2.46875 L 1.015625 -2.828125 C 1.035156 -2.867188 1.0625 -2.890625 1.09375 -2.890625 L 1.515625 -2.890625 C 1.535156 -2.890625 1.550781 -2.882812 1.5625 -2.875 C 1.570312 -2.863281 1.578125 -2.851562 1.578125 -2.84375 C 1.578125 -2.820312 1.570312 -2.804688 1.5625 -2.796875 L 1.296875 -2.421875 C 1.273438 -2.390625 1.25 -2.375 1.21875 -2.375 Z M 0.875 -2.375 "/></g></g></g><g fill="#ffffff" fill-opacity="1"><g transform="translate(61.45173, 35.90046)"><g><path d="M 0.203125 0.8125 C 0.179688 0.8125 0.171875 0.789062 0.171875 0.75 L 0.171875 0.40625 C 0.171875 0.363281 0.179688 0.34375 0.203125 0.34375 L 0.21875 0.34375 C 0.382812 0.34375 0.503906 0.320312 0.578125 0.28125 C 0.648438 0.238281 0.703125 0.148438 0.734375 0.015625 C 0.742188 0.00390625 0.742188 -0.00390625 0.734375 -0.015625 L 0.078125 -2.03125 C 0.078125 -2.03125 0.078125 -2.035156 0.078125 -2.046875 C 0.078125 -2.066406 0.0820312 -2.082031 0.09375 -2.09375 C 0.101562 -2.101562 0.117188 -2.109375 0.140625 -2.109375 L 0.609375 -2.109375 C 0.648438 -2.109375 0.675781 -2.085938 0.6875 -2.046875 L 1.015625 -0.828125 C 1.023438 -0.816406 1.03125 -0.8125 1.03125 -0.8125 C 1.039062 -0.8125 1.050781 -0.816406 1.0625 -0.828125 L 1.375 -2.046875 C 1.382812 -2.085938 1.410156 -2.109375 1.453125 -2.109375 L 1.921875 -2.109375 C 1.941406 -2.109375 1.957031 -2.097656 1.96875 -2.078125 C 1.988281 -2.066406 1.992188 -2.050781 1.984375 -2.03125 L 1.28125 0.078125 C 1.207031 0.273438 1.132812 0.421875 1.0625 0.515625 C 1 0.617188 0.898438 0.691406 0.765625 0.734375 C 0.640625 0.785156 0.460938 0.8125 0.234375 0.8125 Z M 0.203125 0.8125 "/></g></g></g><g fill="#ffffff" fill-opacity="1"><g transform="translate(63.516396, 35.90046)"><g/></g></g><g fill="#ffffff" fill-opacity="1"><g transform="translate(64.334086, 35.90046)"><g><path d="M 1.421875 -1.71875 C 1.421875 -1.664062 1.394531 -1.640625 1.34375 -1.640625 L 0.984375 -1.640625 C 0.960938 -1.640625 0.953125 -1.628906 0.953125 -1.609375 L 0.953125 -0.765625 C 0.953125 -0.679688 0.96875 -0.613281 1 -0.5625 C 1.039062 -0.519531 1.101562 -0.5 1.1875 -0.5 L 1.3125 -0.5 C 1.351562 -0.5 1.375 -0.476562 1.375 -0.4375 L 1.375 -0.09375 C 1.375 -0.0390625 1.351562 -0.015625 1.3125 -0.015625 C 1.207031 -0.00390625 1.128906 0 1.078125 0 C 0.847656 0 0.675781 -0.0351562 0.5625 -0.109375 C 0.457031 -0.191406 0.40625 -0.335938 0.40625 -0.546875 L 0.40625 -1.609375 C 0.40625 -1.628906 0.394531 -1.640625 0.375 -1.640625 L 0.171875 -1.640625 C 0.117188 -1.640625 0.09375 -1.664062 0.09375 -1.71875 L 0.09375 -2.03125 C 0.09375 -2.082031 0.117188 -2.109375 0.171875 -2.109375 L 0.375 -2.109375 C 0.394531 -2.109375 0.40625 -2.113281 0.40625 -2.125 L 0.40625 -2.59375 C 0.40625 -2.632812 0.425781 -2.65625 0.46875 -2.65625 L 0.890625 -2.65625 C 0.929688 -2.65625 0.953125 -2.632812 0.953125 -2.59375 L 0.953125 -2.125 C 0.953125 -2.113281 0.960938 -2.109375 0.984375 -2.109375 L 1.34375 -2.109375 C 1.394531 -2.109375 1.421875 -2.082031 1.421875 -2.03125 Z M 1.421875 -1.71875 "/></g></g></g><g fill="#ffffff" fill-opacity="1"><g transform="translate(65.887697, 35.90046)"><g><path d="M 0.265625 0 C 0.222656 0 0.203125 -0.0195312 0.203125 -0.0625 L 0.203125 -2.03125 C 0.203125 -2.082031 0.222656 -2.109375 0.265625 -2.109375 L 0.703125 -2.109375 C 0.753906 -2.109375 0.78125 -2.082031 0.78125 -2.03125 L 0.78125 -0.0625 C 0.78125 -0.0195312 0.753906 0 0.703125 0 Z M 0.28125 -2.390625 C 0.238281 -2.390625 0.21875 -2.40625 0.21875 -2.4375 C 0.21875 -2.457031 0.21875 -2.472656 0.21875 -2.484375 L 0.421875 -2.84375 C 0.441406 -2.882812 0.46875 -2.90625 0.5 -2.90625 L 0.921875 -2.90625 C 0.941406 -2.90625 0.957031 -2.898438 0.96875 -2.890625 C 0.976562 -2.878906 0.984375 -2.867188 0.984375 -2.859375 C 0.984375 -2.835938 0.976562 -2.820312 0.96875 -2.8125 L 0.703125 -2.4375 C 0.679688 -2.40625 0.65625 -2.390625 0.625 -2.390625 Z M 0.28125 -2.390625 "/></g></g></g><g fill="#ffffff" fill-opacity="1"><g transform="translate(66.873013, 35.90046)"><g><path d="M 1.3125 -2.140625 C 1.53125 -2.140625 1.703125 -2.070312 1.828125 -1.9375 C 1.960938 -1.800781 2.03125 -1.617188 2.03125 -1.390625 L 2.03125 -0.0625 C 2.03125 -0.0195312 2.007812 0 1.96875 0 L 1.53125 0 C 1.488281 0 1.46875 -0.0195312 1.46875 -0.0625 L 1.46875 -1.265625 C 1.46875 -1.378906 1.4375 -1.46875 1.375 -1.53125 C 1.3125 -1.601562 1.226562 -1.640625 1.125 -1.640625 C 1.03125 -1.640625 0.953125 -1.601562 0.890625 -1.53125 C 0.828125 -1.46875 0.796875 -1.378906 0.796875 -1.265625 L 0.796875 -0.0625 C 0.796875 -0.0195312 0.769531 0 0.71875 0 L 0.28125 0 C 0.238281 0 0.21875 -0.0195312 0.21875 -0.0625 L 0.21875 -2.03125 C 0.21875 -2.082031 0.238281 -2.109375 0.28125 -2.109375 L 0.71875 -2.109375 C 0.769531 -2.109375 0.796875 -2.082031 0.796875 -2.03125 L 0.796875 -1.921875 C 0.796875 -1.910156 0.796875 -1.898438 0.796875 -1.890625 C 0.804688 -1.890625 0.8125 -1.894531 0.8125 -1.90625 C 0.925781 -2.0625 1.09375 -2.140625 1.3125 -2.140625 Z M 1.3125 -2.140625 "/></g></g></g><g fill="#ffffff" fill-opacity="1"><g transform="translate(69.109395, 35.90046)"><g><path d="M 1.3125 -2.140625 C 1.53125 -2.140625 1.703125 -2.070312 1.828125 -1.9375 C 1.960938 -1.800781 2.03125 -1.617188 2.03125 -1.390625 L 2.03125 -0.0625 C 2.03125 -0.0195312 2.007812 0 1.96875 0 L 1.53125 0 C 1.488281 0 1.46875 -0.0195312 1.46875 -0.0625 L 1.46875 -1.265625 C 1.46875 -1.378906 1.4375 -1.46875 1.375 -1.53125 C 1.3125 -1.601562 1.226562 -1.640625 1.125 -1.640625 C 1.03125 -1.640625 0.953125 -1.601562 0.890625 -1.53125 C 0.828125 -1.46875 0.796875 -1.378906 0.796875 -1.265625 L 0.796875 -0.0625 C 0.796875 -0.0195312 0.769531 0 0.71875 0 L 0.28125 0 C 0.238281 0 0.21875 -0.0195312 0.21875 -0.0625 L 0.21875 -2.796875 C 0.21875 -2.835938 0.238281 -2.859375 0.28125 -2.859375 L 0.71875 -2.859375 C 0.769531 -2.859375 0.796875 -2.835938 0.796875 -2.796875 L 0.796875 -1.921875 C 0.796875 -1.910156 0.796875 -1.898438 0.796875 -1.890625 C 0.804688 -1.890625 0.8125 -1.894531 0.8125 -1.90625 C 0.925781 -2.0625 1.09375 -2.140625 1.3125 -2.140625 Z M 1.3125 -2.140625 "/></g></g></g><g fill="#ffffff" fill-opacity="1"><g transform="translate(71.345778, 35.90046)"><g/></g></g><g fill="#ffffff" fill-opacity="1"><g transform="translate(72.163467, 35.90046)"><g><path d="M 0.1875 -0.96875 C 0.144531 -0.96875 0.125 -0.988281 0.125 -1.03125 L 0.125 -1.390625 C 0.125 -1.429688 0.144531 -1.453125 0.1875 -1.453125 L 1.484375 -1.453125 C 1.535156 -1.453125 1.5625 -1.429688 1.5625 -1.390625 L 1.5625 -1.03125 C 1.5625 -0.988281 1.535156 -0.96875 1.484375 -0.96875 Z M 0.1875 -0.96875 "/></g></g></g><g fill="#ffffff" fill-opacity="1"><g transform="translate(73.835644, 35.90046)"><g/></g></g><g fill="#ffffff" fill-opacity="1"><g transform="translate(74.653334, 35.90046)"><g><path d="M 0.3125 0 C 0.269531 0 0.25 -0.0195312 0.25 -0.0625 L 0.25 -2.796875 C 0.25 -2.835938 0.269531 -2.859375 0.3125 -2.859375 L 0.75 -2.859375 C 0.800781 -2.859375 0.828125 -2.835938 0.828125 -2.796875 L 0.828125 -0.515625 C 0.828125 -0.503906 0.832031 -0.5 0.84375 -0.5 L 2.171875 -0.5 C 2.210938 -0.5 2.234375 -0.472656 2.234375 -0.421875 L 2.234375 -0.0625 C 2.234375 -0.0195312 2.210938 0 2.171875 0 Z M 0.3125 0 "/></g></g></g><g fill="#ffffff" fill-opacity="1"><g transform="translate(76.991928, 35.90046)"><g><path d="M 1.0625 -2.140625 C 1.238281 -2.140625 1.394531 -2.109375 1.53125 -2.046875 C 1.664062 -1.984375 1.769531 -1.898438 1.84375 -1.796875 C 1.925781 -1.691406 1.96875 -1.570312 1.96875 -1.4375 L 1.96875 -0.0625 C 1.96875 -0.0195312 1.945312 0 1.90625 0 L 1.46875 0 C 1.414062 0 1.390625 -0.0195312 1.390625 -0.0625 L 1.390625 -0.171875 C 1.390625 -0.179688 1.382812 -0.1875 1.375 -0.1875 C 1.375 -0.1875 1.375 -0.179688 1.375 -0.171875 C 1.238281 -0.0351562 1.050781 0.03125 0.8125 0.03125 C 0.59375 0.03125 0.421875 -0.0195312 0.296875 -0.125 C 0.171875 -0.226562 0.109375 -0.378906 0.109375 -0.578125 C 0.109375 -0.785156 0.179688 -0.945312 0.328125 -1.0625 C 0.472656 -1.1875 0.679688 -1.25 0.953125 -1.25 L 1.375 -1.25 C 1.382812 -1.25 1.390625 -1.253906 1.390625 -1.265625 L 1.390625 -1.359375 C 1.390625 -1.441406 1.363281 -1.507812 1.3125 -1.5625 C 1.257812 -1.613281 1.175781 -1.640625 1.0625 -1.640625 C 0.988281 -1.640625 0.921875 -1.625 0.859375 -1.59375 C 0.804688 -1.570312 0.769531 -1.535156 0.75 -1.484375 C 0.738281 -1.441406 0.710938 -1.425781 0.671875 -1.4375 L 0.21875 -1.484375 C 0.195312 -1.492188 0.179688 -1.5 0.171875 -1.5 C 0.160156 -1.507812 0.15625 -1.523438 0.15625 -1.546875 C 0.164062 -1.660156 0.210938 -1.757812 0.296875 -1.84375 C 0.378906 -1.9375 0.484375 -2.007812 0.609375 -2.0625 C 0.742188 -2.113281 0.894531 -2.140625 1.0625 -2.140625 Z M 0.96875 -0.390625 C 1.09375 -0.390625 1.191406 -0.421875 1.265625 -0.484375 C 1.347656 -0.546875 1.390625 -0.628906 1.390625 -0.734375 L 1.390625 -0.875 C 1.390625 -0.894531 1.382812 -0.90625 1.375 -0.90625 L 1.078125 -0.90625 C 0.953125 -0.90625 0.851562 -0.878906 0.78125 -0.828125 C 0.71875 -0.785156 0.6875 -0.722656 0.6875 -0.640625 C 0.6875 -0.566406 0.710938 -0.503906 0.765625 -0.453125 C 0.816406 -0.410156 0.882812 -0.390625 0.96875 -0.390625 Z M 0.96875 -0.390625 "/></g></g></g><g fill="#ffffff" fill-opacity="1"><g transform="translate(79.150628, 35.90046)"><g><path d="M 2.09375 -1.53125 C 2.144531 -1.40625 2.171875 -1.242188 2.171875 -1.046875 C 2.171875 -0.835938 2.144531 -0.664062 2.09375 -0.53125 C 2.03125 -0.363281 1.925781 -0.226562 1.78125 -0.125 C 1.644531 -0.0195312 1.488281 0.03125 1.3125 0.03125 C 1.101562 0.03125 0.945312 -0.03125 0.84375 -0.15625 C 0.832031 -0.164062 0.820312 -0.171875 0.8125 -0.171875 C 0.8125 -0.171875 0.8125 -0.164062 0.8125 -0.15625 L 0.8125 0.6875 C 0.8125 0.738281 0.785156 0.765625 0.734375 0.765625 L 0.296875 0.765625 C 0.253906 0.765625 0.234375 0.738281 0.234375 0.6875 L 0.234375 -2.03125 C 0.234375 -2.082031 0.253906 -2.109375 0.296875 -2.109375 L 0.734375 -2.109375 C 0.785156 -2.109375 0.8125 -2.082031 0.8125 -2.03125 L 0.8125 -1.921875 C 0.8125 -1.910156 0.8125 -1.90625 0.8125 -1.90625 C 0.820312 -1.90625 0.832031 -1.910156 0.84375 -1.921875 C 0.945312 -2.066406 1.101562 -2.140625 1.3125 -2.140625 C 1.488281 -2.140625 1.648438 -2.082031 1.796875 -1.96875 C 1.941406 -1.863281 2.039062 -1.71875 2.09375 -1.53125 Z M 1.46875 -0.625 C 1.53125 -0.738281 1.5625 -0.882812 1.5625 -1.0625 C 1.5625 -1.21875 1.53125 -1.347656 1.46875 -1.453125 C 1.40625 -1.578125 1.304688 -1.640625 1.171875 -1.640625 C 1.054688 -1.640625 0.960938 -1.578125 0.890625 -1.453125 C 0.835938 -1.359375 0.8125 -1.222656 0.8125 -1.046875 C 0.8125 -0.867188 0.84375 -0.726562 0.90625 -0.625 C 0.96875 -0.519531 1.054688 -0.46875 1.171875 -0.46875 C 1.296875 -0.46875 1.394531 -0.519531 1.46875 -0.625 Z M 1.46875 -0.625 "/></g></g></g><g fill="#ffffff" fill-opacity="1"><g transform="translate(81.436071, 35.90046)"><g><path d="M 1.421875 -1.71875 C 1.421875 -1.664062 1.394531 -1.640625 1.34375 -1.640625 L 0.984375 -1.640625 C 0.960938 -1.640625 0.953125 -1.628906 0.953125 -1.609375 L 0.953125 -0.765625 C 0.953125 -0.679688 0.96875 -0.613281 1 -0.5625 C 1.039062 -0.519531 1.101562 -0.5 1.1875 -0.5 L 1.3125 -0.5 C 1.351562 -0.5 1.375 -0.476562 1.375 -0.4375 L 1.375 -0.09375 C 1.375 -0.0390625 1.351562 -0.015625 1.3125 -0.015625 C 1.207031 -0.00390625 1.128906 0 1.078125 0 C 0.847656 0 0.675781 -0.0351562 0.5625 -0.109375 C 0.457031 -0.191406 0.40625 -0.335938 0.40625 -0.546875 L 0.40625 -1.609375 C 0.40625 -1.628906 0.394531 -1.640625 0.375 -1.640625 L 0.171875 -1.640625 C 0.117188 -1.640625 0.09375 -1.664062 0.09375 -1.71875 L 0.09375 -2.03125 C 0.09375 -2.082031 0.117188 -2.109375 0.171875 -2.109375 L 0.375 -2.109375 C 0.394531 -2.109375 0.40625 -2.113281 0.40625 -2.125 L 0.40625 -2.59375 C 0.40625 -2.632812 0.425781 -2.65625 0.46875 -2.65625 L 0.890625 -2.65625 C 0.929688 -2.65625 0.953125 -2.632812 0.953125 -2.59375 L 0.953125 -2.125 C 0.953125 -2.113281 0.960938 -2.109375 0.984375 -2.109375 L 1.34375 -2.109375 C 1.394531 -2.109375 1.421875 -2.082031 1.421875 -2.03125 Z M 1.421875 -1.71875 "/></g></g></g><g fill="#ffffff" fill-opacity="1"><g transform="translate(82.989683, 35.90046)"><g><path d="M 1.140625 0.03125 C 0.910156 0.03125 0.710938 -0.0234375 0.546875 -0.140625 C 0.390625 -0.265625 0.28125 -0.429688 0.21875 -0.640625 C 0.175781 -0.765625 0.15625 -0.90625 0.15625 -1.0625 C 0.15625 -1.226562 0.175781 -1.367188 0.21875 -1.484375 C 0.28125 -1.691406 0.390625 -1.851562 0.546875 -1.96875 C 0.710938 -2.082031 0.914062 -2.140625 1.15625 -2.140625 C 1.375 -2.140625 1.5625 -2.082031 1.71875 -1.96875 C 1.882812 -1.851562 2 -1.695312 2.0625 -1.5 C 2.101562 -1.375 2.125 -1.226562 2.125 -1.0625 C 2.125 -0.914062 2.101562 -0.78125 2.0625 -0.65625 C 2 -0.4375 1.882812 -0.265625 1.71875 -0.140625 C 1.5625 -0.0234375 1.367188 0.03125 1.140625 0.03125 Z M 1.140625 -0.46875 C 1.234375 -0.46875 1.3125 -0.492188 1.375 -0.546875 C 1.4375 -0.597656 1.476562 -0.671875 1.5 -0.765625 C 1.53125 -0.835938 1.546875 -0.9375 1.546875 -1.0625 C 1.546875 -1.175781 1.53125 -1.269531 1.5 -1.34375 C 1.476562 -1.4375 1.4375 -1.507812 1.375 -1.5625 C 1.3125 -1.613281 1.234375 -1.640625 1.140625 -1.640625 C 1.046875 -1.640625 0.96875 -1.613281 0.90625 -1.5625 C 0.84375 -1.507812 0.800781 -1.4375 0.78125 -1.34375 C 0.75 -1.269531 0.734375 -1.175781 0.734375 -1.0625 C 0.734375 -0.945312 0.75 -0.847656 0.78125 -0.765625 C 0.800781 -0.671875 0.84375 -0.597656 0.90625 -0.546875 C 0.96875 -0.492188 1.046875 -0.46875 1.140625 -0.46875 Z M 1.140625 -0.46875 "/></g></g></g><g fill="#ffffff" fill-opacity="1"><g transform="translate(85.266949, 35.90046)"><g><path d="M 2.09375 -1.53125 C 2.144531 -1.40625 2.171875 -1.242188 2.171875 -1.046875 C 2.171875 -0.835938 2.144531 -0.664062 2.09375 -0.53125 C 2.03125 -0.363281 1.925781 -0.226562 1.78125 -0.125 C 1.644531 -0.0195312 1.488281 0.03125 1.3125 0.03125 C 1.101562 0.03125 0.945312 -0.03125 0.84375 -0.15625 C 0.832031 -0.164062 0.820312 -0.171875 0.8125 -0.171875 C 0.8125 -0.171875 0.8125 -0.164062 0.8125 -0.15625 L 0.8125 0.6875 C 0.8125 0.738281 0.785156 0.765625 0.734375 0.765625 L 0.296875 0.765625 C 0.253906 0.765625 0.234375 0.738281 0.234375 0.6875 L 0.234375 -2.03125 C 0.234375 -2.082031 0.253906 -2.109375 0.296875 -2.109375 L 0.734375 -2.109375 C 0.785156 -2.109375 0.8125 -2.082031 0.8125 -2.03125 L 0.8125 -1.921875 C 0.8125 -1.910156 0.8125 -1.90625 0.8125 -1.90625 C 0.820312 -1.90625 0.832031 -1.910156 0.84375 -1.921875 C 0.945312 -2.066406 1.101562 -2.140625 1.3125 -2.140625 C 1.488281 -2.140625 1.648438 -2.082031 1.796875 -1.96875 C 1.941406 -1.863281 2.039062 -1.71875 2.09375 -1.53125 Z M 1.46875 -0.625 C 1.53125 -0.738281 1.5625 -0.882812 1.5625 -1.0625 C 1.5625 -1.21875 1.53125 -1.347656 1.46875 -1.453125 C 1.40625 -1.578125 1.304688 -1.640625 1.171875 -1.640625 C 1.054688 -1.640625 0.960938 -1.578125 0.890625 -1.453125 C 0.835938 -1.359375 0.8125 -1.222656 0.8125 -1.046875 C 0.8125 -0.867188 0.84375 -0.726562 0.90625 -0.625 C 0.96875 -0.519531 1.054688 -0.46875 1.171875 -0.46875 C 1.296875 -0.46875 1.394531 -0.519531 1.46875 -0.625 Z M 1.46875 -0.625 "/></g></g></g><g fill="#ffffff" fill-opacity="1"><g transform="translate(87.552392, 35.90046)"><g/></g></g><g fill="#ffffff" fill-opacity="1"><g transform="translate(88.370082, 35.90046)"><g><path d="M 0.1875 -0.96875 C 0.144531 -0.96875 0.125 -0.988281 0.125 -1.03125 L 0.125 -1.390625 C 0.125 -1.429688 0.144531 -1.453125 0.1875 -1.453125 L 1.484375 -1.453125 C 1.535156 -1.453125 1.5625 -1.429688 1.5625 -1.390625 L 1.5625 -1.03125 C 1.5625 -0.988281 1.535156 -0.96875 1.484375 -0.96875 Z M 0.1875 -0.96875 "/></g></g></g><g fill="#ffffff" fill-opacity="1"><g transform="translate(90.042258, 35.90046)"><g/></g></g><g fill="#ffffff" fill-opacity="1"><g transform="translate(90.859948, 35.90046)"><g><path d="M 1.25 0.03125 C 1.039062 0.03125 0.851562 -0.0078125 0.6875 -0.09375 C 0.53125 -0.175781 0.40625 -0.289062 0.3125 -0.4375 C 0.226562 -0.59375 0.1875 -0.769531 0.1875 -0.96875 L 0.1875 -1.90625 C 0.1875 -2.101562 0.226562 -2.273438 0.3125 -2.421875 C 0.40625 -2.578125 0.53125 -2.691406 0.6875 -2.765625 C 0.851562 -2.847656 1.039062 -2.890625 1.25 -2.890625 C 1.46875 -2.890625 1.65625 -2.851562 1.8125 -2.78125 C 1.96875 -2.707031 2.085938 -2.597656 2.171875 -2.453125 C 2.265625 -2.304688 2.3125 -2.140625 2.3125 -1.953125 C 2.3125 -1.929688 2.289062 -1.914062 2.25 -1.90625 L 1.8125 -1.875 L 1.796875 -1.875 C 1.753906 -1.875 1.734375 -1.882812 1.734375 -1.90625 L 1.734375 -1.921875 C 1.734375 -2.066406 1.6875 -2.179688 1.59375 -2.265625 C 1.507812 -2.359375 1.394531 -2.40625 1.25 -2.40625 C 1.101562 -2.40625 0.984375 -2.359375 0.890625 -2.265625 C 0.804688 -2.179688 0.765625 -2.066406 0.765625 -1.921875 L 0.765625 -0.9375 C 0.765625 -0.789062 0.804688 -0.675781 0.890625 -0.59375 C 0.984375 -0.507812 1.101562 -0.46875 1.25 -0.46875 C 1.394531 -0.46875 1.507812 -0.507812 1.59375 -0.59375 C 1.6875 -0.675781 1.734375 -0.789062 1.734375 -0.9375 C 1.734375 -0.945312 1.738281 -0.957031 1.75 -0.96875 C 1.769531 -0.976562 1.789062 -0.984375 1.8125 -0.984375 L 2.25 -0.96875 C 2.289062 -0.957031 2.3125 -0.945312 2.3125 -0.9375 L 2.3125 -0.921875 C 2.3125 -0.734375 2.265625 -0.566406 2.171875 -0.421875 C 2.085938 -0.273438 1.96875 -0.160156 1.8125 -0.078125 C 1.65625 -0.00390625 1.46875 0.03125 1.25 0.03125 Z M 1.25 0.03125 "/></g></g></g><g fill="#ffffff" fill-opacity="1"><g transform="translate(93.345728, 35.90046)"><g><path d="M 1.0625 -2.140625 C 1.238281 -2.140625 1.394531 -2.109375 1.53125 -2.046875 C 1.664062 -1.984375 1.769531 -1.898438 1.84375 -1.796875 C 1.925781 -1.691406 1.96875 -1.570312 1.96875 -1.4375 L 1.96875 -0.0625 C 1.96875 -0.0195312 1.945312 0 1.90625 0 L 1.46875 0 C 1.414062 0 1.390625 -0.0195312 1.390625 -0.0625 L 1.390625 -0.171875 C 1.390625 -0.179688 1.382812 -0.1875 1.375 -0.1875 C 1.375 -0.1875 1.375 -0.179688 1.375 -0.171875 C 1.238281 -0.0351562 1.050781 0.03125 0.8125 0.03125 C 0.59375 0.03125 0.421875 -0.0195312 0.296875 -0.125 C 0.171875 -0.226562 0.109375 -0.378906 0.109375 -0.578125 C 0.109375 -0.785156 0.179688 -0.945312 0.328125 -1.0625 C 0.472656 -1.1875 0.679688 -1.25 0.953125 -1.25 L 1.375 -1.25 C 1.382812 -1.25 1.390625 -1.253906 1.390625 -1.265625 L 1.390625 -1.359375 C 1.390625 -1.441406 1.363281 -1.507812 1.3125 -1.5625 C 1.257812 -1.613281 1.175781 -1.640625 1.0625 -1.640625 C 0.988281 -1.640625 0.921875 -1.625 0.859375 -1.59375 C 0.804688 -1.570312 0.769531 -1.535156 0.75 -1.484375 C 0.738281 -1.441406 0.710938 -1.425781 0.671875 -1.4375 L 0.21875 -1.484375 C 0.195312 -1.492188 0.179688 -1.5 0.171875 -1.5 C 0.160156 -1.507812 0.15625 -1.523438 0.15625 -1.546875 C 0.164062 -1.660156 0.210938 -1.757812 0.296875 -1.84375 C 0.378906 -1.9375 0.484375 -2.007812 0.609375 -2.0625 C 0.742188 -2.113281 0.894531 -2.140625 1.0625 -2.140625 Z M 0.96875 -0.390625 C 1.09375 -0.390625 1.191406 -0.421875 1.265625 -0.484375 C 1.347656 -0.546875 1.390625 -0.628906 1.390625 -0.734375 L 1.390625 -0.875 C 1.390625 -0.894531 1.382812 -0.90625 1.375 -0.90625 L 1.078125 -0.90625 C 0.953125 -0.90625 0.851562 -0.878906 0.78125 -0.828125 C 0.71875 -0.785156 0.6875 -0.722656 0.6875 -0.640625 C 0.6875 -0.566406 0.710938 -0.503906 0.765625 -0.453125 C 0.816406 -0.410156 0.882812 -0.390625 0.96875 -0.390625 Z M 0.96875 -0.390625 "/></g></g></g><g fill="#ffffff" fill-opacity="1"><g transform="translate(95.504429, 35.90046)"><g><path d="M 2.546875 -2.140625 C 2.753906 -2.140625 2.914062 -2.070312 3.03125 -1.9375 C 3.15625 -1.8125 3.21875 -1.632812 3.21875 -1.40625 L 3.21875 -0.0625 C 3.21875 -0.0195312 3.195312 0 3.15625 0 L 2.71875 0 C 2.675781 0 2.65625 -0.0195312 2.65625 -0.0625 L 2.65625 -1.28125 C 2.65625 -1.382812 2.625 -1.46875 2.5625 -1.53125 C 2.507812 -1.601562 2.429688 -1.640625 2.328125 -1.640625 C 2.234375 -1.640625 2.15625 -1.601562 2.09375 -1.53125 C 2.039062 -1.46875 2.015625 -1.382812 2.015625 -1.28125 L 2.015625 -0.0625 C 2.015625 -0.0195312 1.988281 0 1.9375 0 L 1.5 0 C 1.457031 0 1.4375 -0.0195312 1.4375 -0.0625 L 1.4375 -1.28125 C 1.4375 -1.382812 1.40625 -1.46875 1.34375 -1.53125 C 1.28125 -1.601562 1.203125 -1.640625 1.109375 -1.640625 C 1.023438 -1.640625 0.953125 -1.613281 0.890625 -1.5625 C 0.835938 -1.507812 0.804688 -1.4375 0.796875 -1.34375 L 0.796875 -0.0625 C 0.796875 -0.0195312 0.769531 0 0.71875 0 L 0.28125 0 C 0.238281 0 0.21875 -0.0195312 0.21875 -0.0625 L 0.21875 -2.03125 C 0.21875 -2.082031 0.238281 -2.109375 0.28125 -2.109375 L 0.71875 -2.109375 C 0.769531 -2.109375 0.796875 -2.082031 0.796875 -2.03125 L 0.796875 -1.90625 C 0.796875 -1.894531 0.796875 -1.882812 0.796875 -1.875 C 0.804688 -1.875 0.8125 -1.878906 0.8125 -1.890625 C 0.925781 -2.054688 1.097656 -2.140625 1.328125 -2.140625 C 1.472656 -2.140625 1.59375 -2.109375 1.6875 -2.046875 C 1.789062 -1.992188 1.867188 -1.914062 1.921875 -1.8125 C 1.921875 -1.800781 1.925781 -1.796875 1.9375 -1.796875 C 1.945312 -1.796875 1.953125 -1.800781 1.953125 -1.8125 C 2.015625 -1.914062 2.097656 -1.992188 2.203125 -2.046875 C 2.304688 -2.109375 2.421875 -2.140625 2.546875 -2.140625 Z M 2.546875 -2.140625 "/></g></g></g><g fill="#ffffff" fill-opacity="1"><g transform="translate(98.918287, 35.90046)"><g><path d="M 1.234375 -0.453125 C 1.410156 -0.460938 1.546875 -0.523438 1.640625 -0.640625 C 1.660156 -0.660156 1.675781 -0.671875 1.6875 -0.671875 C 1.707031 -0.671875 1.722656 -0.664062 1.734375 -0.65625 L 1.96875 -0.421875 C 1.988281 -0.410156 2 -0.394531 2 -0.375 C 2 -0.351562 1.992188 -0.335938 1.984375 -0.328125 C 1.890625 -0.210938 1.769531 -0.125 1.625 -0.0625 C 1.488281 0 1.335938 0.03125 1.171875 0.03125 C 0.921875 0.03125 0.710938 -0.03125 0.546875 -0.15625 C 0.378906 -0.289062 0.269531 -0.46875 0.21875 -0.6875 C 0.1875 -0.8125 0.171875 -0.9375 0.171875 -1.0625 C 0.171875 -1.226562 0.1875 -1.363281 0.21875 -1.46875 C 0.269531 -1.664062 0.378906 -1.828125 0.546875 -1.953125 C 0.710938 -2.078125 0.90625 -2.140625 1.125 -2.140625 C 1.394531 -2.140625 1.609375 -2.0625 1.765625 -1.90625 C 1.921875 -1.75 2.023438 -1.523438 2.078125 -1.234375 C 2.085938 -1.140625 2.09375 -1.039062 2.09375 -0.9375 C 2.09375 -0.894531 2.070312 -0.875 2.03125 -0.875 L 0.765625 -0.875 C 0.753906 -0.875 0.75 -0.863281 0.75 -0.84375 C 0.75 -0.78125 0.757812 -0.738281 0.78125 -0.71875 C 0.800781 -0.632812 0.851562 -0.566406 0.9375 -0.515625 C 1.019531 -0.472656 1.117188 -0.453125 1.234375 -0.453125 Z M 1.125 -1.640625 C 1.03125 -1.640625 0.953125 -1.617188 0.890625 -1.578125 C 0.835938 -1.535156 0.800781 -1.476562 0.78125 -1.40625 C 0.769531 -1.351562 0.757812 -1.316406 0.75 -1.296875 C 0.75 -1.273438 0.757812 -1.265625 0.78125 -1.265625 L 1.46875 -1.265625 C 1.488281 -1.265625 1.5 -1.273438 1.5 -1.296875 C 1.5 -1.316406 1.492188 -1.347656 1.484375 -1.390625 C 1.453125 -1.460938 1.40625 -1.519531 1.34375 -1.5625 C 1.289062 -1.613281 1.21875 -1.640625 1.125 -1.640625 Z M 1.125 -1.640625 "/></g></g></g><g fill="#ffffff" fill-opacity="1"><g transform="translate(101.15467, 35.90046)"><g><path d="M 1.265625 -2.125 C 1.347656 -2.125 1.421875 -2.109375 1.484375 -2.078125 C 1.515625 -2.066406 1.523438 -2.039062 1.515625 -2 L 1.4375 -1.5625 C 1.4375 -1.539062 1.425781 -1.523438 1.40625 -1.515625 C 1.394531 -1.515625 1.378906 -1.515625 1.359375 -1.515625 C 1.316406 -1.535156 1.273438 -1.546875 1.234375 -1.546875 C 1.210938 -1.546875 1.179688 -1.539062 1.140625 -1.53125 C 1.046875 -1.519531 0.960938 -1.484375 0.890625 -1.421875 C 0.828125 -1.359375 0.796875 -1.273438 0.796875 -1.171875 L 0.796875 -0.0625 C 0.796875 -0.0195312 0.769531 0 0.71875 0 L 0.28125 0 C 0.238281 0 0.21875 -0.0195312 0.21875 -0.0625 L 0.21875 -2.03125 C 0.21875 -2.082031 0.238281 -2.109375 0.28125 -2.109375 L 0.71875 -2.109375 C 0.769531 -2.109375 0.796875 -2.082031 0.796875 -2.03125 L 0.796875 -1.90625 C 0.796875 -1.894531 0.796875 -1.890625 0.796875 -1.890625 C 0.804688 -1.890625 0.8125 -1.890625 0.8125 -1.890625 C 0.925781 -2.046875 1.078125 -2.125 1.265625 -2.125 Z M 1.265625 -2.125 "/></g></g></g><g fill="#ffffff" fill-opacity="1"><g transform="translate(102.720544, 35.90046)"><g><path d="M 1.0625 -2.140625 C 1.238281 -2.140625 1.394531 -2.109375 1.53125 -2.046875 C 1.664062 -1.984375 1.769531 -1.898438 1.84375 -1.796875 C 1.925781 -1.691406 1.96875 -1.570312 1.96875 -1.4375 L 1.96875 -0.0625 C 1.96875 -0.0195312 1.945312 0 1.90625 0 L 1.46875 0 C 1.414062 0 1.390625 -0.0195312 1.390625 -0.0625 L 1.390625 -0.171875 C 1.390625 -0.179688 1.382812 -0.1875 1.375 -0.1875 C 1.375 -0.1875 1.375 -0.179688 1.375 -0.171875 C 1.238281 -0.0351562 1.050781 0.03125 0.8125 0.03125 C 0.59375 0.03125 0.421875 -0.0195312 0.296875 -0.125 C 0.171875 -0.226562 0.109375 -0.378906 0.109375 -0.578125 C 0.109375 -0.785156 0.179688 -0.945312 0.328125 -1.0625 C 0.472656 -1.1875 0.679688 -1.25 0.953125 -1.25 L 1.375 -1.25 C 1.382812 -1.25 1.390625 -1.253906 1.390625 -1.265625 L 1.390625 -1.359375 C 1.390625 -1.441406 1.363281 -1.507812 1.3125 -1.5625 C 1.257812 -1.613281 1.175781 -1.640625 1.0625 -1.640625 C 0.988281 -1.640625 0.921875 -1.625 0.859375 -1.59375 C 0.804688 -1.570312 0.769531 -1.535156 0.75 -1.484375 C 0.738281 -1.441406 0.710938 -1.425781 0.671875 -1.4375 L 0.21875 -1.484375 C 0.195312 -1.492188 0.179688 -1.5 0.171875 -1.5 C 0.160156 -1.507812 0.15625 -1.523438 0.15625 -1.546875 C 0.164062 -1.660156 0.210938 -1.757812 0.296875 -1.84375 C 0.378906 -1.9375 0.484375 -2.007812 0.609375 -2.0625 C 0.742188 -2.113281 0.894531 -2.140625 1.0625 -2.140625 Z M 0.96875 -0.390625 C 1.09375 -0.390625 1.191406 -0.421875 1.265625 -0.484375 C 1.347656 -0.546875 1.390625 -0.628906 1.390625 -0.734375 L 1.390625 -0.875 C 1.390625 -0.894531 1.382812 -0.90625 1.375 -0.90625 L 1.078125 -0.90625 C 0.953125 -0.90625 0.851562 -0.878906 0.78125 -0.828125 C 0.71875 -0.785156 0.6875 -0.722656 0.6875 -0.640625 C 0.6875 -0.566406 0.710938 -0.503906 0.765625 -0.453125 C 0.816406 -0.410156 0.882812 -0.390625 0.96875 -0.390625 Z M 0.96875 -0.390625 "/></g></g></g><g fill="#ffffff" fill-opacity="1"><g transform="translate(104.879245, 35.90046)"><g/></g></g><g fill="#ffffff" fill-opacity="1"><g transform="translate(105.696935, 35.90046)"><g><path d="M 0.1875 -0.96875 C 0.144531 -0.96875 0.125 -0.988281 0.125 -1.03125 L 0.125 -1.390625 C 0.125 -1.429688 0.144531 -1.453125 0.1875 -1.453125 L 1.484375 -1.453125 C 1.535156 -1.453125 1.5625 -1.429688 1.5625 -1.390625 L 1.5625 -1.03125 C 1.5625 -0.988281 1.535156 -0.96875 1.484375 -0.96875 Z M 0.1875 -0.96875 "/></g></g></g><g fill="#ffffff" fill-opacity="1"><g transform="translate(107.369111, 35.90046)"><g/></g></g><g fill="#ffffff" fill-opacity="1"><g transform="translate(108.186801, 35.90046)"><g><path d="M 0.328125 0 C 0.273438 0 0.25 -0.0195312 0.25 -0.0625 L 0.25 -2.796875 C 0.25 -2.835938 0.273438 -2.859375 0.328125 -2.859375 L 0.765625 -2.859375 C 0.796875 -2.859375 0.820312 -2.847656 0.84375 -2.828125 L 1.4375 -1.859375 C 1.4375 -1.847656 1.441406 -1.84375 1.453125 -1.84375 C 1.460938 -1.84375 1.46875 -1.847656 1.46875 -1.859375 L 2.078125 -2.828125 C 2.085938 -2.847656 2.113281 -2.859375 2.15625 -2.859375 L 2.59375 -2.859375 C 2.632812 -2.859375 2.65625 -2.835938 2.65625 -2.796875 L 2.65625 -0.0625 C 2.65625 -0.0195312 2.632812 0 2.59375 0 L 2.15625 0 C 2.101562 0 2.078125 -0.0195312 2.078125 -0.0625 L 2.078125 -1.84375 C 2.078125 -1.851562 2.070312 -1.859375 2.0625 -1.859375 C 2.0625 -1.859375 2.0625 -1.851562 2.0625 -1.84375 L 1.640625 -1.171875 C 1.617188 -1.140625 1.59375 -1.125 1.5625 -1.125 L 1.34375 -1.125 C 1.3125 -1.125 1.285156 -1.140625 1.265625 -1.171875 L 0.859375 -1.84375 C 0.847656 -1.851562 0.835938 -1.859375 0.828125 -1.859375 C 0.828125 -1.859375 0.828125 -1.851562 0.828125 -1.84375 L 0.828125 -0.0625 C 0.828125 -0.0195312 0.804688 0 0.765625 0 Z M 0.328125 0 "/></g></g></g><g fill="#ffffff" fill-opacity="1"><g transform="translate(111.093691, 35.90046)"><g><path d="M 1.0625 -2.140625 C 1.238281 -2.140625 1.394531 -2.109375 1.53125 -2.046875 C 1.664062 -1.984375 1.769531 -1.898438 1.84375 -1.796875 C 1.925781 -1.691406 1.96875 -1.570312 1.96875 -1.4375 L 1.96875 -0.0625 C 1.96875 -0.0195312 1.945312 0 1.90625 0 L 1.46875 0 C 1.414062 0 1.390625 -0.0195312 1.390625 -0.0625 L 1.390625 -0.171875 C 1.390625 -0.179688 1.382812 -0.1875 1.375 -0.1875 C 1.375 -0.1875 1.375 -0.179688 1.375 -0.171875 C 1.238281 -0.0351562 1.050781 0.03125 0.8125 0.03125 C 0.59375 0.03125 0.421875 -0.0195312 0.296875 -0.125 C 0.171875 -0.226562 0.109375 -0.378906 0.109375 -0.578125 C 0.109375 -0.785156 0.179688 -0.945312 0.328125 -1.0625 C 0.472656 -1.1875 0.679688 -1.25 0.953125 -1.25 L 1.375 -1.25 C 1.382812 -1.25 1.390625 -1.253906 1.390625 -1.265625 L 1.390625 -1.359375 C 1.390625 -1.441406 1.363281 -1.507812 1.3125 -1.5625 C 1.257812 -1.613281 1.175781 -1.640625 1.0625 -1.640625 C 0.988281 -1.640625 0.921875 -1.625 0.859375 -1.59375 C 0.804688 -1.570312 0.769531 -1.535156 0.75 -1.484375 C 0.738281 -1.441406 0.710938 -1.425781 0.671875 -1.4375 L 0.21875 -1.484375 C 0.195312 -1.492188 0.179688 -1.5 0.171875 -1.5 C 0.160156 -1.507812 0.15625 -1.523438 0.15625 -1.546875 C 0.164062 -1.660156 0.210938 -1.757812 0.296875 -1.84375 C 0.378906 -1.9375 0.484375 -2.007812 0.609375 -2.0625 C 0.742188 -2.113281 0.894531 -2.140625 1.0625 -2.140625 Z M 0.96875 -0.390625 C 1.09375 -0.390625 1.191406 -0.421875 1.265625 -0.484375 C 1.347656 -0.546875 1.390625 -0.628906 1.390625 -0.734375 L 1.390625 -0.875 C 1.390625 -0.894531 1.382812 -0.90625 1.375 -0.90625 L 1.078125 -0.90625 C 0.953125 -0.90625 0.851562 -0.878906 0.78125 -0.828125 C 0.71875 -0.785156 0.6875 -0.722656 0.6875 -0.640625 C 0.6875 -0.566406 0.710938 -0.503906 0.765625 -0.453125 C 0.816406 -0.410156 0.882812 -0.390625 0.96875 -0.390625 Z M 0.875 -2.375 C 0.832031 -2.375 0.8125 -2.390625 0.8125 -2.421875 C 0.8125 -2.441406 0.8125 -2.457031 0.8125 -2.46875 L 1.015625 -2.828125 C 1.035156 -2.867188 1.0625 -2.890625 1.09375 -2.890625 L 1.515625 -2.890625 C 1.535156 -2.890625 1.550781 -2.882812 1.5625 -2.875 C 1.570312 -2.863281 1.578125 -2.851562 1.578125 -2.84375 C 1.578125 -2.820312 1.570312 -2.804688 1.5625 -2.796875 L 1.296875 -2.421875 C 1.273438 -2.390625 1.25 -2.375 1.21875 -2.375 Z M 0.875 -2.375 "/></g></g></g><g fill="#ffffff" fill-opacity="1"><g transform="translate(113.252392, 35.90046)"><g><path d="M 0.203125 0.8125 C 0.179688 0.8125 0.171875 0.789062 0.171875 0.75 L 0.171875 0.40625 C 0.171875 0.363281 0.179688 0.34375 0.203125 0.34375 L 0.21875 0.34375 C 0.382812 0.34375 0.503906 0.320312 0.578125 0.28125 C 0.648438 0.238281 0.703125 0.148438 0.734375 0.015625 C 0.742188 0.00390625 0.742188 -0.00390625 0.734375 -0.015625 L 0.078125 -2.03125 C 0.078125 -2.03125 0.078125 -2.035156 0.078125 -2.046875 C 0.078125 -2.066406 0.0820312 -2.082031 0.09375 -2.09375 C 0.101562 -2.101562 0.117188 -2.109375 0.140625 -2.109375 L 0.609375 -2.109375 C 0.648438 -2.109375 0.675781 -2.085938 0.6875 -2.046875 L 1.015625 -0.828125 C 1.023438 -0.816406 1.03125 -0.8125 1.03125 -0.8125 C 1.039062 -0.8125 1.050781 -0.816406 1.0625 -0.828125 L 1.375 -2.046875 C 1.382812 -2.085938 1.410156 -2.109375 1.453125 -2.109375 L 1.921875 -2.109375 C 1.941406 -2.109375 1.957031 -2.097656 1.96875 -2.078125 C 1.988281 -2.066406 1.992188 -2.050781 1.984375 -2.03125 L 1.28125 0.078125 C 1.207031 0.273438 1.132812 0.421875 1.0625 0.515625 C 1 0.617188 0.898438 0.691406 0.765625 0.734375 C 0.640625 0.785156 0.460938 0.8125 0.234375 0.8125 Z M 0.203125 0.8125 "/></g></g></g><g fill="#ffffff" fill-opacity="1"><g transform="translate(115.317058, 35.90046)"><g/></g></g><g fill="#ffffff" fill-opacity="1"><g transform="translate(116.134748, 35.90046)"><g><path d="M 0.53125 -2.3125 C 0.425781 -2.3125 0.34375 -2.34375 0.28125 -2.40625 C 0.21875 -2.46875 0.1875 -2.550781 0.1875 -2.65625 C 0.1875 -2.75 0.21875 -2.828125 0.28125 -2.890625 C 0.34375 -2.960938 0.425781 -3 0.53125 -3 C 0.632812 -3 0.71875 -2.960938 0.78125 -2.890625 C 0.851562 -2.828125 0.890625 -2.75 0.890625 -2.65625 C 0.890625 -2.550781 0.851562 -2.46875 0.78125 -2.40625 C 0.71875 -2.34375 0.632812 -2.3125 0.53125 -2.3125 Z M 0.3125 0 C 0.269531 0 0.25 -0.0195312 0.25 -0.0625 L 0.25 -2.03125 C 0.25 -2.082031 0.269531 -2.109375 0.3125 -2.109375 L 0.75 -2.109375 C 0.800781 -2.109375 0.828125 -2.082031 0.828125 -2.03125 L 0.828125 -0.0625 C 0.828125 -0.0195312 0.800781 0 0.75 0 Z M 0.3125 0 "/></g></g></g><g fill="#ffffff" fill-opacity="1"><g transform="translate(117.197745, 35.90046)"><g><path d="M 1.3125 -2.140625 C 1.53125 -2.140625 1.703125 -2.070312 1.828125 -1.9375 C 1.960938 -1.800781 2.03125 -1.617188 2.03125 -1.390625 L 2.03125 -0.0625 C 2.03125 -0.0195312 2.007812 0 1.96875 0 L 1.53125 0 C 1.488281 0 1.46875 -0.0195312 1.46875 -0.0625 L 1.46875 -1.265625 C 1.46875 -1.378906 1.4375 -1.46875 1.375 -1.53125 C 1.3125 -1.601562 1.226562 -1.640625 1.125 -1.640625 C 1.03125 -1.640625 0.953125 -1.601562 0.890625 -1.53125 C 0.828125 -1.46875 0.796875 -1.378906 0.796875 -1.265625 L 0.796875 -0.0625 C 0.796875 -0.0195312 0.769531 0 0.71875 0 L 0.28125 0 C 0.238281 0 0.21875 -0.0195312 0.21875 -0.0625 L 0.21875 -2.03125 C 0.21875 -2.082031 0.238281 -2.109375 0.28125 -2.109375 L 0.71875 -2.109375 C 0.769531 -2.109375 0.796875 -2.082031 0.796875 -2.03125 L 0.796875 -1.921875 C 0.796875 -1.910156 0.796875 -1.898438 0.796875 -1.890625 C 0.804688 -1.890625 0.8125 -1.894531 0.8125 -1.90625 C 0.925781 -2.0625 1.09375 -2.140625 1.3125 -2.140625 Z M 1.3125 -2.140625 "/></g></g></g><g clip-path="url(#66a1f9e348)"><path fill="#ffffff" d="M 34.636719 12.0625 C 33.433594 11.84375 32.480469 12.070312 32.101562 12.730469 C 31.820312 13.21875 31.898438 13.867188 32.296875 14.5625 C 32.339844 14.632812 32.394531 14.648438 32.464844 14.609375 C 32.539062 14.566406 32.554688 14.511719 32.511719 14.441406 C 32.152344 13.8125 32.082031 13.253906 32.316406 12.851562 C 32.632812 12.304688 33.480469 12.101562 34.589844 12.304688 C 34.671875 12.320312 34.71875 12.285156 34.734375 12.207031 C 34.75 12.125 34.714844 12.078125 34.636719 12.0625 Z M 32.921875 15.40625 C 33.410156 15.941406 34.042969 16.441406 34.761719 16.859375 C 36.507812 17.867188 38.367188 18.136719 39.28125 17.511719 C 39.347656 17.464844 39.359375 17.40625 39.3125 17.339844 C 39.269531 17.273438 39.210938 17.261719 39.144531 17.308594 C 38.324219 17.867188 36.558594 17.609375 34.886719 16.644531 C 34.1875 16.242188 33.574219 15.757812 33.105469 15.242188 C 33.050781 15.179688 32.992188 15.175781 32.929688 15.234375 C 32.871094 15.289062 32.867188 15.347656 32.921875 15.40625 Z M 38.992188 15.257812 C 39.777344 14.328125 40.054688 13.390625 39.675781 12.734375 C 39.398438 12.253906 38.808594 12 38.027344 11.988281 C 37.945312 11.988281 37.902344 12.027344 37.902344 12.109375 C 37.898438 12.191406 37.941406 12.234375 38.023438 12.234375 C 38.726562 12.246094 39.234375 12.464844 39.460938 12.859375 C 39.777344 13.402344 39.53125 14.238281 38.800781 15.097656 C 38.75 15.160156 38.753906 15.21875 38.816406 15.273438 C 38.878906 15.324219 38.9375 15.320312 38.992188 15.257812 Z M 36.964844 12.101562 C 36.253906 12.253906 35.496094 12.554688 34.769531 12.972656 C 32.964844 14.015625 31.792969 15.550781 31.953125 16.660156 C 31.964844 16.742188 32.011719 16.777344 32.09375 16.765625 C 32.175781 16.753906 32.210938 16.707031 32.199219 16.625 C 32.054688 15.636719 33.167969 14.183594 34.890625 13.1875 C 35.597656 12.777344 36.332031 12.488281 37.019531 12.34375 C 37.097656 12.324219 37.128906 12.277344 37.113281 12.195312 C 37.09375 12.117188 37.046875 12.085938 36.964844 12.101562 Z M 36.964844 12.101562 " fill-opacity="1" fill-rule="evenodd"/></g><g clip-path="url(#bf872c5259)"><path fill="#ffffff" d="M 34.046875 17.429688 C 34.460938 18.582031 35.132812 19.289062 35.890625 19.289062 C 36.445312 19.289062 36.957031 18.914062 37.355469 18.25 C 37.394531 18.179688 37.382812 18.121094 37.3125 18.082031 C 37.242188 18.039062 37.183594 18.050781 37.140625 18.121094 C 36.78125 18.71875 36.34375 19.042969 35.890625 19.042969 C 35.261719 19.042969 34.660156 18.410156 34.28125 17.347656 C 34.253906 17.269531 34.199219 17.246094 34.121094 17.273438 C 34.046875 17.300781 34.019531 17.355469 34.046875 17.429688 Z M 37.808594 17.207031 C 38.023438 16.523438 38.136719 15.738281 38.136719 14.917969 C 38.136719 12.875 37.421875 11.113281 36.402344 10.660156 C 36.328125 10.628906 36.273438 10.648438 36.242188 10.726562 C 36.207031 10.800781 36.226562 10.855469 36.304688 10.886719 C 37.210938 11.289062 37.890625 12.964844 37.890625 14.921875 C 37.890625 15.714844 37.78125 16.476562 37.574219 17.132812 C 37.550781 17.210938 37.578125 17.261719 37.65625 17.289062 C 37.734375 17.3125 37.785156 17.285156 37.808594 17.207031 Z M 40.132812 17.085938 C 40.132812 16.757812 39.867188 16.496094 39.542969 16.496094 C 39.214844 16.496094 38.949219 16.757812 38.949219 17.085938 C 38.949219 17.414062 39.214844 17.675781 39.542969 17.675781 C 39.867188 17.675781 40.132812 17.410156 40.132812 17.085938 Z M 39.886719 17.085938 C 39.886719 17.179688 39.851562 17.261719 39.785156 17.328125 C 39.71875 17.394531 39.636719 17.429688 39.542969 17.429688 C 39.449219 17.429688 39.367188 17.394531 39.300781 17.328125 C 39.234375 17.261719 39.199219 17.179688 39.199219 17.085938 C 39.199219 16.992188 39.234375 16.910156 39.300781 16.84375 C 39.367188 16.777344 39.449219 16.742188 39.542969 16.742188 C 39.636719 16.742188 39.71875 16.777344 39.785156 16.84375 C 39.851562 16.910156 39.886719 16.992188 39.886719 17.085938 Z M 39.886719 17.085938 " fill-opacity="1" fill-rule="evenodd"/></g><g clip-path="url(#7ab662c55a)"><path fill="#ffffff" d="M 32.230469 17.675781 C 32.558594 17.675781 32.820312 17.410156 32.820312 17.085938 C 32.820312 16.757812 32.558594 16.496094 32.230469 16.496094 C 32.066406 16.496094 31.929688 16.550781 31.8125 16.667969 C 31.699219 16.785156 31.640625 16.921875 31.640625 17.085938 C 31.640625 17.25 31.699219 17.386719 31.8125 17.503906 C 31.929688 17.617188 32.066406 17.675781 32.230469 17.675781 Z M 32.230469 17.429688 C 32.136719 17.429688 32.054688 17.394531 31.988281 17.328125 C 31.921875 17.261719 31.886719 17.179688 31.886719 17.085938 C 31.886719 16.992188 31.921875 16.910156 31.988281 16.84375 C 32.054688 16.777344 32.136719 16.742188 32.230469 16.742188 C 32.324219 16.742188 32.40625 16.777344 32.472656 16.84375 C 32.539062 16.910156 32.574219 16.992188 32.574219 17.085938 C 32.574219 17.179688 32.539062 17.261719 32.472656 17.328125 C 32.40625 17.394531 32.324219 17.429688 32.230469 17.429688 Z M 35.890625 11.261719 C 36.21875 11.261719 36.480469 11 36.480469 10.671875 C 36.480469 10.347656 36.21875 10.082031 35.890625 10.082031 C 35.566406 10.082031 35.300781 10.347656 35.300781 10.675781 C 35.300781 11 35.566406 11.261719 35.890625 11.261719 Z M 35.890625 11.015625 C 35.796875 11.015625 35.714844 10.984375 35.648438 10.914062 C 35.582031 10.847656 35.546875 10.765625 35.546875 10.671875 C 35.546875 10.578125 35.582031 10.496094 35.648438 10.429688 C 35.714844 10.363281 35.796875 10.328125 35.890625 10.328125 C 35.984375 10.328125 36.066406 10.363281 36.132812 10.429688 C 36.203125 10.496094 36.234375 10.578125 36.234375 10.671875 C 36.234375 10.765625 36.203125 10.847656 36.132812 10.914062 C 36.066406 10.984375 35.984375 11.015625 35.890625 11.015625 Z M 35.980469 15.335938 C 35.867188 15.363281 35.757812 15.34375 35.65625 15.28125 C 35.558594 15.214844 35.496094 15.125 35.472656 15.011719 C 35.445312 14.894531 35.464844 14.785156 35.53125 14.6875 C 35.59375 14.589844 35.683594 14.527344 35.800781 14.503906 C 35.917969 14.476562 36.023438 14.496094 36.125 14.558594 C 36.222656 14.625 36.285156 14.714844 36.3125 14.828125 C 36.335938 14.945312 36.316406 15.050781 36.253906 15.152344 C 36.1875 15.25 36.097656 15.3125 35.980469 15.335938 Z M 35.980469 15.335938 " fill-opacity="1" fill-rule="evenodd"/></g></svg>