<svg xmlns="http://www.w3.org/2000/svg" xmlns:xlink="http://www.w3.org/1999/xlink" width="254" zoomAndPan="magnify" viewBox="0 0 190.5 60" height="80" preserveAspectRatio="xMidYMid meet" version="1.0"><defs><g/><clipPath id="6827c414b9"><path d="M 33 11.148438 L 68 11.148438 L 68 48 L 33 48 Z M 33 11.148438 " clip-rule="nonzero"/></clipPath><clipPath id="61dfb45549"><path d="M 53.070312 28.277344 L 37.4375 28.277344 C 36.828125 28.277344 36.390625 27.699219 36.554688 27.113281 L 40.847656 11.816406 C 40.957031 11.421875 41.316406 11.148438 41.726562 11.148438 L 57.363281 11.148438 C 57.96875 11.148438 58.40625 11.726562 58.242188 12.3125 L 53.953125 27.609375 C 53.839844 28.003906 53.480469 28.277344 53.070312 28.277344 Z M 42.914062 39.824219 L 45.125 31.945312 C 45.289062 31.363281 44.851562 30.785156 44.242188 30.785156 L 36.207031 30.785156 C 35.796875 30.785156 35.4375 31.058594 35.324219 31.453125 L 33.117188 39.328125 C 32.953125 39.910156 33.390625 40.492188 33.996094 40.492188 L 42.035156 40.492188 C 42.445312 40.492188 42.804688 40.21875 42.914062 39.824219 Z M 46.980469 31.453125 L 42.691406 46.75 C 42.527344 47.332031 42.964844 47.910156 43.570312 47.910156 L 59.207031 47.910156 C 59.617188 47.910156 59.976562 47.636719 60.085938 47.242188 L 64.378906 31.945312 C 64.542969 31.363281 64.105469 30.785156 63.5 30.785156 L 47.863281 30.785156 C 47.453125 30.785156 47.09375 31.058594 46.980469 31.453125 Z M 58.019531 19.238281 L 55.808594 27.113281 C 55.644531 27.699219 56.082031 28.277344 56.691406 28.277344 L 64.726562 28.277344 C 65.136719 28.277344 65.496094 28.003906 65.609375 27.609375 L 67.816406 19.730469 C 67.980469 19.148438 67.542969 18.570312 66.9375 18.570312 L 58.898438 18.570312 C 58.488281 18.570312 58.128906 18.84375 58.019531 19.238281 Z M 58.019531 19.238281 " clip-rule="nonzero"/></clipPath><linearGradient x1="114.296445" gradientTransform="matrix(0.073525, 0, 0, 0.073525, 33.081207, 11.148723)" y1="-47.633964" x2="358.621835" gradientUnits="userSpaceOnUse" y2="547.633982" id="da58e4648d"><stop stop-opacity="1" stop-color="rgb(16.499329%, 28.199768%, 63.899231%)" offset="0"/><stop stop-opacity="1" stop-color="rgb(16.499329%, 28.199768%, 63.899231%)" offset="0.0625"/><stop stop-opacity="1" stop-color="rgb(16.482544%, 28.17688%, 63.859558%)" offset="0.09375"/><stop stop-opacity="1" stop-color="rgb(16.419983%, 28.091431%, 63.711548%)" offset="0.101562"/><stop stop-opacity="1" stop-color="rgb(16.326904%, 27.967834%, 63.496399%)" offset="0.109375"/><stop stop-opacity="1" stop-color="rgb(16.235352%, 27.844238%, 63.28125%)" offset="0.117188"/><stop stop-opacity="1" stop-color="rgb(16.143799%, 27.720642%, 63.066101%)" offset="0.125"/><stop stop-opacity="1" stop-color="rgb(16.052246%, 27.598572%, 62.850952%)" offset="0.132812"/><stop stop-opacity="1" stop-color="rgb(15.960693%, 27.474976%, 62.635803%)" offset="0.140625"/><stop stop-opacity="1" stop-color="rgb(15.869141%, 27.351379%, 62.420654%)" offset="0.148437"/><stop stop-opacity="1" stop-color="rgb(15.777588%, 27.227783%, 62.205505%)" offset="0.15625"/><stop stop-opacity="1" stop-color="rgb(15.686035%, 27.104187%, 61.991882%)" offset="0.164062"/><stop stop-opacity="1" stop-color="rgb(15.594482%, 26.982117%, 61.776733%)" offset="0.171875"/><stop stop-opacity="1" stop-color="rgb(15.50293%, 26.858521%, 61.561584%)" offset="0.179688"/><stop stop-opacity="1" stop-color="rgb(15.411377%, 26.734924%, 61.346436%)" offset="0.1875"/><stop stop-opacity="1" stop-color="rgb(15.318298%, 26.611328%, 61.131287%)" offset="0.195312"/><stop stop-opacity="1" stop-color="rgb(15.226746%, 26.487732%, 60.916138%)" offset="0.203125"/><stop stop-opacity="1" stop-color="rgb(15.135193%, 26.364136%, 60.700989%)" offset="0.210937"/><stop stop-opacity="1" stop-color="rgb(15.04364%, 26.242065%, 60.48584%)" offset="0.21875"/><stop stop-opacity="1" stop-color="rgb(14.952087%, 26.118469%, 60.270691%)" offset="0.226563"/><stop stop-opacity="1" stop-color="rgb(14.860535%, 25.994873%, 60.055542%)" offset="0.234375"/><stop stop-opacity="1" stop-color="rgb(14.768982%, 25.871277%, 59.840393%)" offset="0.242187"/><stop stop-opacity="1" stop-color="rgb(14.677429%, 25.747681%, 59.625244%)" offset="0.25"/><stop stop-opacity="1" stop-color="rgb(14.585876%, 25.624084%, 59.411621%)" offset="0.257812"/><stop stop-opacity="1" stop-color="rgb(14.494324%, 25.502014%, 59.196472%)" offset="0.265625"/><stop stop-opacity="1" stop-color="rgb(14.401245%, 25.378418%, 58.981323%)" offset="0.273438"/><stop stop-opacity="1" stop-color="rgb(14.309692%, 25.254822%, 58.766174%)" offset="0.281145"/><stop stop-opacity="1" stop-color="rgb(14.263916%, 25.193787%, 58.659363%)" offset="0.28125"/><stop stop-opacity="1" stop-color="rgb(14.21814%, 25.131226%, 58.551025%)" offset="0.289062"/><stop stop-opacity="1" stop-color="rgb(14.126587%, 25.007629%, 58.335876%)" offset="0.296875"/><stop stop-opacity="1" stop-color="rgb(14.035034%, 24.885559%, 58.120728%)" offset="0.304687"/><stop stop-opacity="1" stop-color="rgb(13.943481%, 24.761963%, 57.905579%)" offset="0.3125"/><stop stop-opacity="1" stop-color="rgb(13.851929%, 24.638367%, 57.69043%)" offset="0.320312"/><stop stop-opacity="1" stop-color="rgb(13.760376%, 24.514771%, 57.475281%)" offset="0.328125"/><stop stop-opacity="1" stop-color="rgb(13.668823%, 24.391174%, 57.260132%)" offset="0.335937"/><stop stop-opacity="1" stop-color="rgb(13.577271%, 24.267578%, 57.044983%)" offset="0.34375"/><stop stop-opacity="1" stop-color="rgb(13.484192%, 24.145508%, 56.829834%)" offset="0.351562"/><stop stop-opacity="1" stop-color="rgb(13.392639%, 24.021912%, 56.616211%)" offset="0.359375"/><stop stop-opacity="1" stop-color="rgb(13.301086%, 23.898315%, 56.401062%)" offset="0.367187"/><stop stop-opacity="1" stop-color="rgb(13.209534%, 23.774719%, 56.185913%)" offset="0.375"/><stop stop-opacity="1" stop-color="rgb(13.117981%, 23.651123%, 55.970764%)" offset="0.382812"/><stop stop-opacity="1" stop-color="rgb(13.026428%, 23.529053%, 55.755615%)" offset="0.390625"/><stop stop-opacity="1" stop-color="rgb(12.934875%, 23.405457%, 55.540466%)" offset="0.398438"/><stop stop-opacity="1" stop-color="rgb(12.843323%, 23.28186%, 55.325317%)" offset="0.40625"/><stop stop-opacity="1" stop-color="rgb(12.75177%, 23.158264%, 55.110168%)" offset="0.414062"/><stop stop-opacity="1" stop-color="rgb(12.660217%, 23.034668%, 54.89502%)" offset="0.421875"/><stop stop-opacity="1" stop-color="rgb(12.567139%, 22.911072%, 54.679871%)" offset="0.429687"/><stop stop-opacity="1" stop-color="rgb(12.475586%, 22.789001%, 54.464722%)" offset="0.4375"/><stop stop-opacity="1" stop-color="rgb(12.384033%, 22.665405%, 54.249573%)" offset="0.445312"/><stop stop-opacity="1" stop-color="rgb(12.29248%, 22.541809%, 54.03595%)" offset="0.453125"/><stop stop-opacity="1" stop-color="rgb(12.200928%, 22.418213%, 53.820801%)" offset="0.460938"/><stop stop-opacity="1" stop-color="rgb(12.109375%, 22.294617%, 53.605652%)" offset="0.46875"/><stop stop-opacity="1" stop-color="rgb(12.017822%, 22.171021%, 53.390503%)" offset="0.476562"/><stop stop-opacity="1" stop-color="rgb(11.92627%, 22.04895%, 53.175354%)" offset="0.484375"/><stop stop-opacity="1" stop-color="rgb(11.834717%, 21.925354%, 52.960205%)" offset="0.492187"/><stop stop-opacity="1" stop-color="rgb(11.743164%, 21.801758%, 52.745056%)" offset="0.5"/><stop stop-opacity="1" stop-color="rgb(11.651611%, 21.678162%, 52.529907%)" offset="0.507813"/><stop stop-opacity="1" stop-color="rgb(11.558533%, 21.554565%, 52.314758%)" offset="0.515625"/><stop stop-opacity="1" stop-color="rgb(11.46698%, 21.432495%, 52.099609%)" offset="0.523438"/><stop stop-opacity="1" stop-color="rgb(11.375427%, 21.308899%, 51.88446%)" offset="0.53125"/><stop stop-opacity="1" stop-color="rgb(11.283875%, 21.185303%, 51.669312%)" offset="0.539062"/><stop stop-opacity="1" stop-color="rgb(11.192322%, 21.061707%, 51.455688%)" offset="0.546875"/><stop stop-opacity="1" stop-color="rgb(11.100769%, 20.93811%, 51.24054%)" offset="0.554688"/><stop stop-opacity="1" stop-color="rgb(11.009216%, 20.814514%, 51.025391%)" offset="0.5625"/><stop stop-opacity="1" stop-color="rgb(10.917664%, 20.692444%, 50.810242%)" offset="0.570312"/><stop stop-opacity="1" stop-color="rgb(10.826111%, 20.568848%, 50.595093%)" offset="0.578125"/><stop stop-opacity="1" stop-color="rgb(10.734558%, 20.445251%, 50.379944%)" offset="0.585937"/><stop stop-opacity="1" stop-color="rgb(10.641479%, 20.321655%, 50.164795%)" offset="0.59375"/><stop stop-opacity="1" stop-color="rgb(10.549927%, 20.198059%, 49.949646%)" offset="0.601562"/><stop stop-opacity="1" stop-color="rgb(10.458374%, 20.075989%, 49.734497%)" offset="0.609375"/><stop stop-opacity="1" stop-color="rgb(10.366821%, 19.952393%, 49.519348%)" offset="0.617188"/><stop stop-opacity="1" stop-color="rgb(10.275269%, 19.828796%, 49.304199%)" offset="0.625"/><stop stop-opacity="1" stop-color="rgb(10.183716%, 19.7052%, 49.08905%)" offset="0.632812"/><stop stop-opacity="1" stop-color="rgb(10.092163%, 19.581604%, 48.873901%)" offset="0.640625"/><stop stop-opacity="1" stop-color="rgb(10.00061%, 19.458008%, 48.660278%)" offset="0.648437"/><stop stop-opacity="1" stop-color="rgb(9.909058%, 19.335938%, 48.445129%)" offset="0.65625"/><stop stop-opacity="1" stop-color="rgb(9.817505%, 19.212341%, 48.22998%)" offset="0.664062"/><stop stop-opacity="1" stop-color="rgb(9.724426%, 19.088745%, 48.014832%)" offset="0.671875"/><stop stop-opacity="1" stop-color="rgb(9.632874%, 18.965149%, 47.799683%)" offset="0.679688"/><stop stop-opacity="1" stop-color="rgb(9.541321%, 18.841553%, 47.584534%)" offset="0.6875"/><stop stop-opacity="1" stop-color="rgb(9.449768%, 18.717957%, 47.369385%)" offset="0.695312"/><stop stop-opacity="1" stop-color="rgb(9.358215%, 18.595886%, 47.154236%)" offset="0.703125"/><stop stop-opacity="1" stop-color="rgb(9.266663%, 18.47229%, 46.939087%)" offset="0.710937"/><stop stop-opacity="1" stop-color="rgb(9.17511%, 18.348694%, 46.723938%)" offset="0.71875"/><stop stop-opacity="1" stop-color="rgb(9.083557%, 18.225098%, 46.508789%)" offset="0.718855"/><stop stop-opacity="1" stop-color="rgb(9.037781%, 18.164062%, 46.401978%)" offset="0.726562"/><stop stop-opacity="1" stop-color="rgb(8.992004%, 18.101501%, 46.29364%)" offset="0.734375"/><stop stop-opacity="1" stop-color="rgb(8.900452%, 17.979431%, 46.080017%)" offset="0.742188"/><stop stop-opacity="1" stop-color="rgb(8.807373%, 17.855835%, 45.864868%)" offset="0.75"/><stop stop-opacity="1" stop-color="rgb(8.71582%, 17.732239%, 45.649719%)" offset="0.757812"/><stop stop-opacity="1" stop-color="rgb(8.624268%, 17.608643%, 45.43457%)" offset="0.765625"/><stop stop-opacity="1" stop-color="rgb(8.532715%, 17.485046%, 45.219421%)" offset="0.773437"/><stop stop-opacity="1" stop-color="rgb(8.441162%, 17.36145%, 45.004272%)" offset="0.78125"/><stop stop-opacity="1" stop-color="rgb(8.349609%, 17.23938%, 44.789124%)" offset="0.789062"/><stop stop-opacity="1" stop-color="rgb(8.258057%, 17.115784%, 44.573975%)" offset="0.796875"/><stop stop-opacity="1" stop-color="rgb(8.166504%, 16.992188%, 44.358826%)" offset="0.804688"/><stop stop-opacity="1" stop-color="rgb(8.074951%, 16.868591%, 44.143677%)" offset="0.8125"/><stop stop-opacity="1" stop-color="rgb(7.983398%, 16.744995%, 43.928528%)" offset="0.820312"/><stop stop-opacity="1" stop-color="rgb(7.89032%, 16.622925%, 43.713379%)" offset="0.828125"/><stop stop-opacity="1" stop-color="rgb(7.821655%, 16.529846%, 43.553162%)" offset="0.84375"/><stop stop-opacity="1" stop-color="rgb(7.798767%, 16.499329%, 43.499756%)" offset="0.875"/><stop stop-opacity="1" stop-color="rgb(7.798767%, 16.499329%, 43.499756%)" offset="1"/></linearGradient><clipPath id="49d6c7dd1c"><path d="M 42.460938 15 L 53.429688 15 L 53.429688 24 L 42.460938 24 Z M 42.460938 15 " clip-rule="nonzero"/></clipPath><clipPath id="e8d7ea781a"><path d="M 45 14 L 53.429688 14 L 53.429688 26 L 45 26 Z M 45 14 " clip-rule="nonzero"/></clipPath><clipPath id="45aee9fd7d"><path d="M 42.460938 13.402344 L 49 13.402344 L 49 24 L 42.460938 24 Z M 42.460938 13.402344 " clip-rule="nonzero"/></clipPath></defs><g clip-path="url(#6827c414b9)"><g clip-path="url(#61dfb45549)"><path fill="url(#da58e4648d)" d="M 32.953125 11.148438 L 32.953125 47.910156 L 67.980469 47.910156 L 67.980469 11.148438 Z M 32.953125 11.148438 " fill-rule="nonzero"/></g></g><g fill="#142a6f" fill-opacity="1"><g transform="translate(71.620292, 39.786703)"><g><path d="M 15.84375 -18.828125 C 16.15625 -18.828125 16.289062 -18.675781 16.25 -18.375 L 15.953125 -16.015625 C 15.921875 -15.703125 15.75 -15.546875 15.4375 -15.546875 L 10.953125 -15.546875 C 10.859375 -15.546875 10.796875 -15.492188 10.765625 -15.390625 L 8.9375 -0.453125 C 8.894531 -0.148438 8.722656 0 8.421875 0 L 5.65625 0 C 5.34375 0 5.207031 -0.148438 5.25 -0.453125 L 7.078125 -15.390625 C 7.109375 -15.492188 7.0625 -15.546875 6.9375 -15.546875 L 2.5625 -15.546875 C 2.414062 -15.546875 2.3125 -15.585938 2.25 -15.671875 C 2.1875 -15.753906 2.160156 -15.867188 2.171875 -16.015625 L 2.46875 -18.375 C 2.507812 -18.675781 2.671875 -18.828125 2.953125 -18.828125 Z M 15.84375 -18.828125 "/></g></g></g><g fill="#142a6f" fill-opacity="1"><g transform="translate(86.871096, 39.786703)"><g><path d="M 9.234375 -14.015625 C 9.785156 -14.015625 10.234375 -13.90625 10.578125 -13.6875 C 10.722656 -13.625 10.796875 -13.519531 10.796875 -13.375 C 10.796875 -13.320312 10.773438 -13.238281 10.734375 -13.125 L 9.90625 -10.3125 C 9.863281 -10.164062 9.800781 -10.066406 9.71875 -10.015625 C 9.644531 -9.972656 9.523438 -9.972656 9.359375 -10.015625 C 9.078125 -10.078125 8.828125 -10.109375 8.609375 -10.109375 C 8.484375 -10.109375 8.273438 -10.09375 7.984375 -10.0625 C 7.359375 -10.007812 6.796875 -9.765625 6.296875 -9.328125 C 5.804688 -8.898438 5.53125 -8.347656 5.46875 -7.671875 L 4.578125 -0.453125 C 4.535156 -0.148438 4.363281 0 4.0625 0 L 1.296875 0 C 0.984375 0 0.847656 -0.148438 0.890625 -0.453125 L 2.46875 -13.375 C 2.507812 -13.675781 2.679688 -13.828125 2.984375 -13.828125 L 5.765625 -13.828125 C 6.066406 -13.828125 6.195312 -13.675781 6.15625 -13.375 L 6.046875 -12.53125 C 6.035156 -12.46875 6.046875 -12.425781 6.078125 -12.40625 C 6.117188 -12.382812 6.164062 -12.398438 6.21875 -12.453125 C 7.039062 -13.492188 8.046875 -14.015625 9.234375 -14.015625 Z M 9.234375 -14.015625 "/></g></g></g><g fill="#142a6f" fill-opacity="1"><g transform="translate(96.876914, 39.786703)"><g><path d="M 1.203125 0 C 0.898438 0 0.769531 -0.148438 0.8125 -0.453125 L 2.390625 -13.375 C 2.441406 -13.675781 2.613281 -13.828125 2.90625 -13.828125 L 5.703125 -13.828125 C 5.992188 -13.828125 6.117188 -13.675781 6.078125 -13.375 L 4.5 -0.453125 C 4.457031 -0.148438 4.285156 0 3.984375 0 Z M 3.15625 -15.734375 C 2.914062 -15.734375 2.796875 -15.828125 2.796875 -16.015625 C 2.796875 -16.085938 2.820312 -16.175781 2.875 -16.28125 L 4.46875 -18.734375 C 4.59375 -18.941406 4.78125 -19.046875 5.03125 -19.046875 L 7.671875 -19.046875 C 7.898438 -19.046875 8.015625 -18.96875 8.015625 -18.8125 C 8.015625 -18.71875 7.972656 -18.609375 7.890625 -18.484375 L 5.921875 -16.03125 C 5.753906 -15.832031 5.554688 -15.734375 5.328125 -15.734375 Z M 3.15625 -15.734375 "/></g></g></g><g fill="#142a6f" fill-opacity="1"><g transform="translate(103.170897, 39.786703)"><g/></g></g><g fill="#142a6f" fill-opacity="1"><g transform="translate(108.388986, 39.786703)"><g><path d="M 11.546875 -18.828125 C 13.359375 -18.828125 14.789062 -18.382812 15.84375 -17.5 C 16.90625 -16.613281 17.4375 -15.425781 17.4375 -13.9375 C 17.4375 -13.757812 17.414062 -13.488281 17.375 -13.125 L 16.46875 -5.703125 C 16.320312 -4.578125 15.925781 -3.582031 15.28125 -2.71875 C 14.632812 -1.851562 13.789062 -1.179688 12.75 -0.703125 C 11.707031 -0.234375 10.535156 0 9.234375 0 L 2.859375 0 C 2.546875 0 2.410156 -0.148438 2.453125 -0.453125 L 3.421875 -8.265625 C 3.421875 -8.367188 3.375 -8.421875 3.28125 -8.421875 L 2.5625 -8.421875 C 2.25 -8.421875 2.113281 -8.570312 2.15625 -8.875 L 2.375 -10.546875 C 2.40625 -10.847656 2.566406 -11 2.859375 -11 L 3.609375 -11 C 3.710938 -11 3.765625 -11.054688 3.765625 -11.171875 L 4.65625 -18.375 C 4.6875 -18.675781 4.859375 -18.828125 5.171875 -18.828125 Z M 13.609375 -12.515625 C 13.628906 -12.640625 13.640625 -12.828125 13.640625 -13.078125 C 13.640625 -13.847656 13.425781 -14.457031 13 -14.90625 C 12.582031 -15.351562 12 -15.578125 11.25 -15.578125 L 8.15625 -15.578125 C 8.0625 -15.578125 8 -15.523438 7.96875 -15.421875 L 7.453125 -11.171875 C 7.453125 -11.054688 7.5 -11 7.59375 -11 L 9.53125 -11 C 9.664062 -11 9.765625 -10.957031 9.828125 -10.875 C 9.890625 -10.800781 9.914062 -10.691406 9.90625 -10.546875 L 9.71875 -8.875 C 9.65625 -8.570312 9.484375 -8.421875 9.203125 -8.421875 L 7.265625 -8.421875 C 7.160156 -8.421875 7.109375 -8.367188 7.109375 -8.265625 L 6.515625 -3.421875 C 6.492188 -3.378906 6.492188 -3.335938 6.515625 -3.296875 C 6.546875 -3.265625 6.585938 -3.25 6.640625 -3.25 L 9.765625 -3.25 C 10.578125 -3.25 11.265625 -3.523438 11.828125 -4.078125 C 12.390625 -4.640625 12.734375 -5.390625 12.859375 -6.328125 Z M 13.609375 -12.515625 "/></g></g></g><g fill="#142a6f" fill-opacity="1"><g transform="translate(125.845369, 39.786703)"><g><path d="M 5.1875 0.265625 C 3.914062 0.265625 2.96875 -0.113281 2.34375 -0.875 C 1.71875 -1.632812 1.40625 -2.660156 1.40625 -3.953125 C 1.40625 -4.273438 1.4375 -4.691406 1.5 -5.203125 C 1.570312 -5.710938 1.664062 -6.226562 1.78125 -6.75 L 3.4375 -14.6875 L 7.40625 -14.6875 L 5.59375 -6.109375 C 5.445312 -5.484375 5.375 -4.960938 5.375 -4.546875 C 5.375 -3.472656 5.851562 -2.9375 6.8125 -2.9375 C 7.394531 -2.9375 7.925781 -3.191406 8.40625 -3.703125 C 8.894531 -4.210938 9.316406 -4.894531 9.671875 -5.75 C 10.035156 -6.613281 10.328125 -7.566406 10.546875 -8.609375 L 11.84375 -14.6875 L 15.796875 -14.6875 L 15.46875 -13.21875 C 16.3125 -13.425781 16.882812 -13.867188 17.1875 -14.546875 C 17.5 -15.234375 17.722656 -16.007812 17.859375 -16.875 L 21.84375 -16.875 L 21.984375 -16.546875 C 21.679688 -15.554688 21.238281 -14.640625 20.65625 -13.796875 C 20.082031 -12.953125 19.328125 -12.253906 18.390625 -11.703125 C 17.460938 -11.160156 16.316406 -10.835938 14.953125 -10.734375 L 12.671875 0 L 9.6875 0 L 9.953125 -2.71875 L 9.84375 -2.71875 C 9.269531 -1.84375 8.609375 -1.125 7.859375 -0.5625 C 7.109375 -0.0078125 6.21875 0.265625 5.1875 0.265625 Z M 7.640625 -16.3125 L 7.640625 -16.625 C 8.085938 -17.125 8.578125 -17.753906 9.109375 -18.515625 C 9.648438 -19.285156 10.128906 -19.984375 10.546875 -20.609375 L 14.953125 -20.609375 L 14.953125 -20.390625 C 14.753906 -20.140625 14.46875 -19.832031 14.09375 -19.46875 C 13.726562 -19.113281 13.320312 -18.738281 12.875 -18.34375 C 12.425781 -17.957031 11.984375 -17.582031 11.546875 -17.21875 C 11.109375 -16.863281 10.71875 -16.5625 10.375 -16.3125 Z M 7.640625 -16.3125 "/></g></g></g><g fill="#142a6f" fill-opacity="1"><g transform="translate(144.969392, 39.786703)"><g><path d="M 6.703125 0.21875 C 5.316406 0.21875 4.15625 -0.140625 3.21875 -0.859375 C 2.289062 -1.578125 1.6875 -2.566406 1.40625 -3.828125 C 1.289062 -4.335938 1.234375 -4.882812 1.234375 -5.46875 C 1.234375 -5.769531 1.269531 -6.28125 1.34375 -7 C 1.488281 -8.144531 1.765625 -9.179688 2.171875 -10.109375 C 2.753906 -11.335938 3.597656 -12.300781 4.703125 -13 C 5.816406 -13.695312 7.066406 -14.046875 8.453125 -14.046875 C 9.847656 -14.046875 11.023438 -13.6875 11.984375 -12.96875 C 12.941406 -12.25 13.53125 -11.34375 13.75 -10.25 C 13.820312 -9.96875 13.859375 -9.691406 13.859375 -9.421875 C 13.859375 -9.148438 13.710938 -8.988281 13.421875 -8.9375 L 10.625 -8.5 L 10.5 -8.46875 C 10.40625 -8.46875 10.328125 -8.5 10.265625 -8.5625 C 10.203125 -8.625 10.171875 -8.703125 10.171875 -8.796875 L 10.140625 -9.171875 C 10.066406 -9.640625 9.84375 -10.023438 9.46875 -10.328125 C 9.09375 -10.640625 8.617188 -10.796875 8.046875 -10.796875 C 7.484375 -10.796875 6.992188 -10.648438 6.578125 -10.359375 C 6.160156 -10.066406 5.84375 -9.671875 5.625 -9.171875 C 5.351562 -8.597656 5.164062 -7.863281 5.0625 -6.96875 C 5.007812 -6.519531 4.984375 -6.109375 4.984375 -5.734375 C 4.984375 -5.335938 5.007812 -5.015625 5.0625 -4.765625 C 5.144531 -4.222656 5.359375 -3.800781 5.703125 -3.5 C 6.046875 -3.195312 6.503906 -3.046875 7.078125 -3.046875 C 7.628906 -3.046875 8.125 -3.191406 8.5625 -3.484375 C 9.007812 -3.773438 9.335938 -4.175781 9.546875 -4.6875 L 9.609375 -4.8125 C 9.617188 -4.882812 9.679688 -4.96875 9.796875 -5.0625 C 9.921875 -5.164062 10.046875 -5.207031 10.171875 -5.1875 L 12.859375 -4.765625 C 12.984375 -4.722656 13.070312 -4.65625 13.125 -4.5625 C 13.1875 -4.476562 13.195312 -4.375 13.15625 -4.25 C 13.132812 -4.070312 13.0625 -3.863281 12.9375 -3.625 C 12.414062 -2.425781 11.585938 -1.484375 10.453125 -0.796875 C 9.328125 -0.117188 8.078125 0.21875 6.703125 0.21875 Z M 6.703125 0.21875 "/></g></g></g><g fill="#2a48a3" fill-opacity="1"><g transform="translate(75.561144, 47.906946)"><g><path d="M 0.4375 0 C 0.375 0 0.34375 -0.03125 0.34375 -0.09375 L 0.34375 -3.734375 C 0.34375 -3.796875 0.375 -3.828125 0.4375 -3.828125 L 1.015625 -3.828125 C 1.066406 -3.828125 1.101562 -3.804688 1.125 -3.765625 L 1.921875 -2.484375 C 1.929688 -2.472656 1.9375 -2.46875 1.9375 -2.46875 C 1.945312 -2.46875 1.957031 -2.472656 1.96875 -2.484375 L 2.765625 -3.765625 C 2.796875 -3.804688 2.832031 -3.828125 2.875 -3.828125 L 3.46875 -3.828125 C 3.53125 -3.828125 3.5625 -3.796875 3.5625 -3.734375 L 3.5625 -0.09375 C 3.5625 -0.03125 3.53125 0 3.46875 0 L 2.875 0 C 2.8125 0 2.78125 -0.03125 2.78125 -0.09375 L 2.78125 -2.46875 C 2.78125 -2.476562 2.773438 -2.484375 2.765625 -2.484375 C 2.753906 -2.492188 2.75 -2.488281 2.75 -2.46875 L 2.1875 -1.5625 C 2.164062 -1.53125 2.128906 -1.515625 2.078125 -1.515625 L 1.8125 -1.515625 C 1.757812 -1.515625 1.722656 -1.53125 1.703125 -1.5625 L 1.15625 -2.46875 C 1.144531 -2.488281 1.132812 -2.492188 1.125 -2.484375 C 1.113281 -2.484375 1.109375 -2.476562 1.109375 -2.46875 L 1.109375 -0.09375 C 1.109375 -0.03125 1.078125 0 1.015625 0 Z M 0.4375 0 "/></g></g></g><g fill="#2a48a3" fill-opacity="1"><g transform="translate(79.445602, 47.906946)"><g><path d="M 1.40625 -2.859375 C 1.644531 -2.859375 1.859375 -2.816406 2.046875 -2.734375 C 2.234375 -2.648438 2.378906 -2.535156 2.484375 -2.390625 C 2.585938 -2.253906 2.640625 -2.097656 2.640625 -1.921875 L 2.640625 -0.09375 C 2.640625 -0.03125 2.609375 0 2.546875 0 L 1.953125 0 C 1.890625 0 1.859375 -0.03125 1.859375 -0.09375 L 1.859375 -0.21875 C 1.859375 -0.238281 1.851562 -0.25 1.84375 -0.25 C 1.84375 -0.25 1.835938 -0.242188 1.828125 -0.234375 C 1.660156 -0.046875 1.410156 0.046875 1.078125 0.046875 C 0.796875 0.046875 0.566406 -0.0195312 0.390625 -0.15625 C 0.222656 -0.300781 0.140625 -0.507812 0.140625 -0.78125 C 0.140625 -1.0625 0.238281 -1.273438 0.4375 -1.421875 C 0.632812 -1.578125 0.914062 -1.65625 1.28125 -1.65625 L 1.828125 -1.65625 C 1.847656 -1.65625 1.859375 -1.671875 1.859375 -1.703125 L 1.859375 -1.8125 C 1.859375 -1.925781 1.820312 -2.015625 1.75 -2.078125 C 1.675781 -2.148438 1.566406 -2.1875 1.421875 -2.1875 C 1.316406 -2.1875 1.226562 -2.164062 1.15625 -2.125 C 1.082031 -2.09375 1.035156 -2.046875 1.015625 -1.984375 C 0.992188 -1.929688 0.957031 -1.910156 0.90625 -1.921875 L 0.296875 -1.984375 C 0.265625 -1.992188 0.238281 -2.003906 0.21875 -2.015625 C 0.207031 -2.023438 0.203125 -2.039062 0.203125 -2.0625 C 0.222656 -2.21875 0.285156 -2.351562 0.390625 -2.46875 C 0.503906 -2.59375 0.648438 -2.6875 0.828125 -2.75 C 1.003906 -2.820312 1.195312 -2.859375 1.40625 -2.859375 Z M 1.296875 -0.53125 C 1.453125 -0.53125 1.582031 -0.570312 1.6875 -0.65625 C 1.800781 -0.738281 1.859375 -0.847656 1.859375 -0.984375 L 1.859375 -1.171875 C 1.859375 -1.191406 1.847656 -1.203125 1.828125 -1.203125 L 1.4375 -1.203125 C 1.28125 -1.203125 1.148438 -1.171875 1.046875 -1.109375 C 0.953125 -1.046875 0.90625 -0.957031 0.90625 -0.84375 C 0.90625 -0.75 0.941406 -0.671875 1.015625 -0.609375 C 1.085938 -0.554688 1.179688 -0.53125 1.296875 -0.53125 Z M 1.15625 -3.1875 C 1.09375 -3.1875 1.0625 -3.207031 1.0625 -3.25 C 1.0625 -3.269531 1.066406 -3.285156 1.078125 -3.296875 L 1.359375 -3.796875 C 1.378906 -3.835938 1.414062 -3.859375 1.46875 -3.859375 L 2.015625 -3.859375 C 2.035156 -3.859375 2.050781 -3.851562 2.0625 -3.84375 C 2.082031 -3.832031 2.09375 -3.816406 2.09375 -3.796875 C 2.09375 -3.773438 2.085938 -3.757812 2.078125 -3.75 L 1.71875 -3.25 C 1.695312 -3.207031 1.660156 -3.1875 1.609375 -3.1875 Z M 1.15625 -3.1875 "/></g></g></g><g fill="#2a48a3" fill-opacity="1"><g transform="translate(82.330259, 47.906946)"><g><path d="M 0.265625 1.09375 C 0.242188 1.09375 0.234375 1.0625 0.234375 1 L 0.234375 0.546875 C 0.234375 0.484375 0.242188 0.453125 0.265625 0.453125 L 0.296875 0.453125 C 0.523438 0.453125 0.6875 0.421875 0.78125 0.359375 C 0.875 0.304688 0.941406 0.191406 0.984375 0.015625 C 0.992188 0.00390625 0.992188 -0.00390625 0.984375 -0.015625 L 0.109375 -2.703125 C 0.109375 -2.710938 0.109375 -2.722656 0.109375 -2.734375 C 0.109375 -2.753906 0.113281 -2.769531 0.125 -2.78125 C 0.132812 -2.800781 0.15625 -2.8125 0.1875 -2.8125 L 0.8125 -2.8125 C 0.863281 -2.8125 0.898438 -2.785156 0.921875 -2.734375 L 1.375 -1.109375 C 1.375 -1.085938 1.378906 -1.078125 1.390625 -1.078125 C 1.398438 -1.078125 1.40625 -1.085938 1.40625 -1.109375 L 1.84375 -2.734375 C 1.851562 -2.785156 1.882812 -2.8125 1.9375 -2.8125 L 2.578125 -2.8125 C 2.609375 -2.8125 2.628906 -2.800781 2.640625 -2.78125 C 2.648438 -2.757812 2.648438 -2.734375 2.640625 -2.703125 L 1.71875 0.109375 C 1.625 0.367188 1.53125 0.566406 1.4375 0.703125 C 1.34375 0.835938 1.207031 0.9375 1.03125 1 C 0.863281 1.0625 0.625 1.09375 0.3125 1.09375 Z M 0.265625 1.09375 "/></g></g></g><g fill="#2a48a3" fill-opacity="1"><g transform="translate(85.089258, 47.906946)"><g/></g></g><g fill="#2a48a3" fill-opacity="1"><g transform="translate(86.181931, 47.906946)"><g><path d="M 1.890625 -2.28125 C 1.890625 -2.21875 1.863281 -2.1875 1.8125 -2.1875 L 1.3125 -2.1875 C 1.289062 -2.1875 1.28125 -2.175781 1.28125 -2.15625 L 1.28125 -1.03125 C 1.28125 -0.90625 1.300781 -0.8125 1.34375 -0.75 C 1.394531 -0.695312 1.476562 -0.671875 1.59375 -0.671875 L 1.75 -0.671875 C 1.8125 -0.671875 1.84375 -0.640625 1.84375 -0.578125 L 1.84375 -0.109375 C 1.84375 -0.0546875 1.8125 -0.0234375 1.75 -0.015625 C 1.601562 -0.00390625 1.5 0 1.4375 0 C 1.132812 0 0.910156 -0.0507812 0.765625 -0.15625 C 0.617188 -0.257812 0.539062 -0.453125 0.53125 -0.734375 L 0.53125 -2.15625 C 0.53125 -2.175781 0.519531 -2.1875 0.5 -2.1875 L 0.21875 -2.1875 C 0.15625 -2.1875 0.125 -2.21875 0.125 -2.28125 L 0.125 -2.71875 C 0.125 -2.78125 0.15625 -2.8125 0.21875 -2.8125 L 0.5 -2.8125 C 0.519531 -2.8125 0.53125 -2.820312 0.53125 -2.84375 L 0.53125 -3.46875 C 0.53125 -3.53125 0.5625 -3.5625 0.625 -3.5625 L 1.1875 -3.5625 C 1.25 -3.5625 1.28125 -3.53125 1.28125 -3.46875 L 1.28125 -2.84375 C 1.28125 -2.820312 1.289062 -2.8125 1.3125 -2.8125 L 1.8125 -2.8125 C 1.863281 -2.8125 1.890625 -2.78125 1.890625 -2.71875 Z M 1.890625 -2.28125 "/></g></g></g><g fill="#2a48a3" fill-opacity="1"><g transform="translate(88.258012, 47.906946)"><g><path d="M 0.359375 0 C 0.296875 0 0.265625 -0.03125 0.265625 -0.09375 L 0.265625 -2.71875 C 0.265625 -2.78125 0.296875 -2.8125 0.359375 -2.8125 L 0.953125 -2.8125 C 1.015625 -2.8125 1.046875 -2.78125 1.046875 -2.71875 L 1.046875 -0.09375 C 1.046875 -0.03125 1.015625 0 0.953125 0 Z M 0.375 -3.203125 C 0.3125 -3.203125 0.28125 -3.222656 0.28125 -3.265625 C 0.28125 -3.285156 0.285156 -3.300781 0.296875 -3.3125 L 0.578125 -3.8125 C 0.597656 -3.851562 0.632812 -3.875 0.6875 -3.875 L 1.234375 -3.875 C 1.253906 -3.875 1.269531 -3.867188 1.28125 -3.859375 C 1.300781 -3.847656 1.3125 -3.832031 1.3125 -3.8125 C 1.3125 -3.789062 1.304688 -3.773438 1.296875 -3.765625 L 0.9375 -3.265625 C 0.914062 -3.222656 0.878906 -3.203125 0.828125 -3.203125 Z M 0.375 -3.203125 "/></g></g></g><g fill="#2a48a3" fill-opacity="1"><g transform="translate(89.574682, 47.906946)"><g><path d="M 1.75 -2.859375 C 2.039062 -2.859375 2.273438 -2.765625 2.453125 -2.578125 C 2.628906 -2.398438 2.71875 -2.160156 2.71875 -1.859375 L 2.71875 -0.09375 C 2.71875 -0.03125 2.6875 0 2.625 0 L 2.046875 0 C 1.984375 0 1.953125 -0.03125 1.953125 -0.09375 L 1.953125 -1.703125 C 1.953125 -1.847656 1.910156 -1.960938 1.828125 -2.046875 C 1.753906 -2.140625 1.648438 -2.1875 1.515625 -2.1875 C 1.378906 -2.1875 1.269531 -2.140625 1.1875 -2.046875 C 1.101562 -1.960938 1.0625 -1.847656 1.0625 -1.703125 L 1.0625 -0.09375 C 1.0625 -0.03125 1.03125 0 0.96875 0 L 0.375 0 C 0.3125 0 0.28125 -0.03125 0.28125 -0.09375 L 0.28125 -2.71875 C 0.28125 -2.78125 0.3125 -2.8125 0.375 -2.8125 L 0.96875 -2.8125 C 1.03125 -2.8125 1.0625 -2.78125 1.0625 -2.71875 L 1.0625 -2.5625 C 1.0625 -2.550781 1.0625 -2.539062 1.0625 -2.53125 C 1.070312 -2.53125 1.082031 -2.535156 1.09375 -2.546875 C 1.238281 -2.753906 1.457031 -2.859375 1.75 -2.859375 Z M 1.75 -2.859375 "/></g></g></g><g fill="#2a48a3" fill-opacity="1"><g transform="translate(92.563145, 47.906946)"><g><path d="M 1.75 -2.859375 C 2.039062 -2.859375 2.273438 -2.765625 2.453125 -2.578125 C 2.628906 -2.398438 2.71875 -2.160156 2.71875 -1.859375 L 2.71875 -0.09375 C 2.71875 -0.03125 2.6875 0 2.625 0 L 2.046875 0 C 1.984375 0 1.953125 -0.03125 1.953125 -0.09375 L 1.953125 -1.703125 C 1.953125 -1.847656 1.910156 -1.960938 1.828125 -2.046875 C 1.753906 -2.140625 1.648438 -2.1875 1.515625 -2.1875 C 1.378906 -2.1875 1.269531 -2.140625 1.1875 -2.046875 C 1.101562 -1.960938 1.0625 -1.847656 1.0625 -1.703125 L 1.0625 -0.09375 C 1.0625 -0.03125 1.03125 0 0.96875 0 L 0.375 0 C 0.3125 0 0.28125 -0.03125 0.28125 -0.09375 L 0.28125 -3.734375 C 0.28125 -3.796875 0.3125 -3.828125 0.375 -3.828125 L 0.96875 -3.828125 C 1.03125 -3.828125 1.0625 -3.796875 1.0625 -3.734375 L 1.0625 -2.5625 C 1.0625 -2.550781 1.0625 -2.539062 1.0625 -2.53125 C 1.070312 -2.53125 1.082031 -2.535156 1.09375 -2.546875 C 1.238281 -2.753906 1.457031 -2.859375 1.75 -2.859375 Z M 1.75 -2.859375 "/></g></g></g><g fill="#2a48a3" fill-opacity="1"><g transform="translate(95.551608, 47.906946)"><g/></g></g><g fill="#2a48a3" fill-opacity="1"><g transform="translate(96.644281, 47.906946)"><g><path d="M 0.25 -1.28125 C 0.1875 -1.28125 0.15625 -1.3125 0.15625 -1.375 L 0.15625 -1.859375 C 0.15625 -1.921875 0.1875 -1.953125 0.25 -1.953125 L 1.984375 -1.953125 C 2.046875 -1.953125 2.078125 -1.921875 2.078125 -1.859375 L 2.078125 -1.375 C 2.078125 -1.3125 2.046875 -1.28125 1.984375 -1.28125 Z M 0.25 -1.28125 "/></g></g></g><g fill="#2a48a3" fill-opacity="1"><g transform="translate(98.878799, 47.906946)"><g/></g></g><g fill="#2a48a3" fill-opacity="1"><g transform="translate(99.971472, 47.906946)"><g><path d="M 0.421875 0 C 0.359375 0 0.328125 -0.03125 0.328125 -0.09375 L 0.328125 -3.734375 C 0.328125 -3.796875 0.359375 -3.828125 0.421875 -3.828125 L 1.015625 -3.828125 C 1.078125 -3.828125 1.109375 -3.796875 1.109375 -3.734375 L 1.109375 -0.6875 C 1.109375 -0.664062 1.117188 -0.65625 1.140625 -0.65625 L 2.890625 -0.65625 C 2.953125 -0.65625 2.984375 -0.625 2.984375 -0.5625 L 2.984375 -0.09375 C 2.984375 -0.03125 2.953125 0 2.890625 0 Z M 0.421875 0 "/></g></g></g><g fill="#2a48a3" fill-opacity="1"><g transform="translate(103.09652, 47.906946)"><g><path d="M 1.40625 -2.859375 C 1.644531 -2.859375 1.859375 -2.816406 2.046875 -2.734375 C 2.234375 -2.648438 2.378906 -2.535156 2.484375 -2.390625 C 2.585938 -2.253906 2.640625 -2.097656 2.640625 -1.921875 L 2.640625 -0.09375 C 2.640625 -0.03125 2.609375 0 2.546875 0 L 1.953125 0 C 1.890625 0 1.859375 -0.03125 1.859375 -0.09375 L 1.859375 -0.21875 C 1.859375 -0.238281 1.851562 -0.25 1.84375 -0.25 C 1.84375 -0.25 1.835938 -0.242188 1.828125 -0.234375 C 1.660156 -0.046875 1.410156 0.046875 1.078125 0.046875 C 0.796875 0.046875 0.566406 -0.0195312 0.390625 -0.15625 C 0.222656 -0.300781 0.140625 -0.507812 0.140625 -0.78125 C 0.140625 -1.0625 0.238281 -1.273438 0.4375 -1.421875 C 0.632812 -1.578125 0.914062 -1.65625 1.28125 -1.65625 L 1.828125 -1.65625 C 1.847656 -1.65625 1.859375 -1.671875 1.859375 -1.703125 L 1.859375 -1.8125 C 1.859375 -1.925781 1.820312 -2.015625 1.75 -2.078125 C 1.675781 -2.148438 1.566406 -2.1875 1.421875 -2.1875 C 1.316406 -2.1875 1.226562 -2.164062 1.15625 -2.125 C 1.082031 -2.09375 1.035156 -2.046875 1.015625 -1.984375 C 0.992188 -1.929688 0.957031 -1.910156 0.90625 -1.921875 L 0.296875 -1.984375 C 0.265625 -1.992188 0.238281 -2.003906 0.21875 -2.015625 C 0.207031 -2.023438 0.203125 -2.039062 0.203125 -2.0625 C 0.222656 -2.21875 0.285156 -2.351562 0.390625 -2.46875 C 0.503906 -2.59375 0.648438 -2.6875 0.828125 -2.75 C 1.003906 -2.820312 1.195312 -2.859375 1.40625 -2.859375 Z M 1.296875 -0.53125 C 1.453125 -0.53125 1.582031 -0.570312 1.6875 -0.65625 C 1.800781 -0.738281 1.859375 -0.847656 1.859375 -0.984375 L 1.859375 -1.171875 C 1.859375 -1.191406 1.847656 -1.203125 1.828125 -1.203125 L 1.4375 -1.203125 C 1.28125 -1.203125 1.148438 -1.171875 1.046875 -1.109375 C 0.953125 -1.046875 0.90625 -0.957031 0.90625 -0.84375 C 0.90625 -0.75 0.941406 -0.671875 1.015625 -0.609375 C 1.085938 -0.554688 1.179688 -0.53125 1.296875 -0.53125 Z M 1.296875 -0.53125 "/></g></g></g><g fill="#2a48a3" fill-opacity="1"><g transform="translate(105.981177, 47.906946)"><g><path d="M 2.796875 -2.046875 C 2.859375 -1.867188 2.890625 -1.648438 2.890625 -1.390625 C 2.890625 -1.117188 2.859375 -0.894531 2.796875 -0.71875 C 2.710938 -0.476562 2.578125 -0.289062 2.390625 -0.15625 C 2.203125 -0.0195312 1.988281 0.046875 1.75 0.046875 C 1.476562 0.046875 1.269531 -0.0390625 1.125 -0.21875 C 1.113281 -0.226562 1.101562 -0.226562 1.09375 -0.21875 C 1.082031 -0.21875 1.078125 -0.210938 1.078125 -0.203125 L 1.078125 0.921875 C 1.078125 0.984375 1.046875 1.015625 0.984375 1.015625 L 0.40625 1.015625 C 0.34375 1.015625 0.3125 0.984375 0.3125 0.921875 L 0.3125 -2.71875 C 0.3125 -2.78125 0.34375 -2.8125 0.40625 -2.8125 L 0.984375 -2.8125 C 1.046875 -2.8125 1.078125 -2.78125 1.078125 -2.71875 L 1.078125 -2.578125 C 1.078125 -2.554688 1.082031 -2.546875 1.09375 -2.546875 C 1.101562 -2.546875 1.113281 -2.550781 1.125 -2.5625 C 1.269531 -2.757812 1.476562 -2.859375 1.75 -2.859375 C 1.988281 -2.859375 2.203125 -2.78125 2.390625 -2.625 C 2.585938 -2.476562 2.722656 -2.285156 2.796875 -2.046875 Z M 1.953125 -0.84375 C 2.035156 -0.988281 2.078125 -1.175781 2.078125 -1.40625 C 2.078125 -1.625 2.039062 -1.804688 1.96875 -1.953125 C 1.882812 -2.109375 1.75 -2.1875 1.5625 -2.1875 C 1.40625 -2.1875 1.285156 -2.109375 1.203125 -1.953125 C 1.128906 -1.816406 1.09375 -1.632812 1.09375 -1.40625 C 1.09375 -1.164062 1.128906 -0.976562 1.203125 -0.84375 C 1.296875 -0.695312 1.414062 -0.625 1.5625 -0.625 C 1.738281 -0.625 1.867188 -0.695312 1.953125 -0.84375 Z M 1.953125 -0.84375 "/></g></g></g><g fill="#2a48a3" fill-opacity="1"><g transform="translate(109.035199, 47.906946)"><g><path d="M 1.890625 -2.28125 C 1.890625 -2.21875 1.863281 -2.1875 1.8125 -2.1875 L 1.3125 -2.1875 C 1.289062 -2.1875 1.28125 -2.175781 1.28125 -2.15625 L 1.28125 -1.03125 C 1.28125 -0.90625 1.300781 -0.8125 1.34375 -0.75 C 1.394531 -0.695312 1.476562 -0.671875 1.59375 -0.671875 L 1.75 -0.671875 C 1.8125 -0.671875 1.84375 -0.640625 1.84375 -0.578125 L 1.84375 -0.109375 C 1.84375 -0.0546875 1.8125 -0.0234375 1.75 -0.015625 C 1.601562 -0.00390625 1.5 0 1.4375 0 C 1.132812 0 0.910156 -0.0507812 0.765625 -0.15625 C 0.617188 -0.257812 0.539062 -0.453125 0.53125 -0.734375 L 0.53125 -2.15625 C 0.53125 -2.175781 0.519531 -2.1875 0.5 -2.1875 L 0.21875 -2.1875 C 0.15625 -2.1875 0.125 -2.21875 0.125 -2.28125 L 0.125 -2.71875 C 0.125 -2.78125 0.15625 -2.8125 0.21875 -2.8125 L 0.5 -2.8125 C 0.519531 -2.8125 0.53125 -2.820312 0.53125 -2.84375 L 0.53125 -3.46875 C 0.53125 -3.53125 0.5625 -3.5625 0.625 -3.5625 L 1.1875 -3.5625 C 1.25 -3.5625 1.28125 -3.53125 1.28125 -3.46875 L 1.28125 -2.84375 C 1.28125 -2.820312 1.289062 -2.8125 1.3125 -2.8125 L 1.8125 -2.8125 C 1.863281 -2.8125 1.890625 -2.78125 1.890625 -2.71875 Z M 1.890625 -2.28125 "/></g></g></g><g fill="#2a48a3" fill-opacity="1"><g transform="translate(111.11128, 47.906946)"><g><path d="M 1.53125 0.046875 C 1.21875 0.046875 0.953125 -0.03125 0.734375 -0.1875 C 0.515625 -0.351562 0.367188 -0.578125 0.296875 -0.859375 C 0.242188 -1.023438 0.21875 -1.207031 0.21875 -1.40625 C 0.21875 -1.632812 0.242188 -1.828125 0.296875 -1.984375 C 0.378906 -2.253906 0.53125 -2.46875 0.75 -2.625 C 0.96875 -2.78125 1.226562 -2.859375 1.53125 -2.859375 C 1.832031 -2.859375 2.085938 -2.78125 2.296875 -2.625 C 2.515625 -2.46875 2.664062 -2.257812 2.75 -2 C 2.800781 -1.832031 2.828125 -1.640625 2.828125 -1.421875 C 2.828125 -1.234375 2.804688 -1.050781 2.765625 -0.875 C 2.679688 -0.582031 2.53125 -0.351562 2.3125 -0.1875 C 2.09375 -0.03125 1.832031 0.046875 1.53125 0.046875 Z M 1.53125 -0.625 C 1.644531 -0.625 1.742188 -0.660156 1.828125 -0.734375 C 1.910156 -0.804688 1.972656 -0.90625 2.015625 -1.03125 C 2.046875 -1.125 2.0625 -1.25 2.0625 -1.40625 C 2.0625 -1.5625 2.046875 -1.691406 2.015625 -1.796875 C 1.972656 -1.921875 1.910156 -2.015625 1.828125 -2.078125 C 1.742188 -2.148438 1.640625 -2.1875 1.515625 -2.1875 C 1.398438 -2.1875 1.300781 -2.148438 1.21875 -2.078125 C 1.132812 -2.015625 1.070312 -1.921875 1.03125 -1.796875 C 1 -1.691406 0.984375 -1.5625 0.984375 -1.40625 C 0.984375 -1.257812 1 -1.132812 1.03125 -1.03125 C 1.070312 -0.90625 1.132812 -0.804688 1.21875 -0.734375 C 1.300781 -0.660156 1.40625 -0.625 1.53125 -0.625 Z M 1.53125 -0.625 "/></g></g></g><g fill="#2a48a3" fill-opacity="1"><g transform="translate(114.154375, 47.906946)"><g><path d="M 2.796875 -2.046875 C 2.859375 -1.867188 2.890625 -1.648438 2.890625 -1.390625 C 2.890625 -1.117188 2.859375 -0.894531 2.796875 -0.71875 C 2.710938 -0.476562 2.578125 -0.289062 2.390625 -0.15625 C 2.203125 -0.0195312 1.988281 0.046875 1.75 0.046875 C 1.476562 0.046875 1.269531 -0.0390625 1.125 -0.21875 C 1.113281 -0.226562 1.101562 -0.226562 1.09375 -0.21875 C 1.082031 -0.21875 1.078125 -0.210938 1.078125 -0.203125 L 1.078125 0.921875 C 1.078125 0.984375 1.046875 1.015625 0.984375 1.015625 L 0.40625 1.015625 C 0.34375 1.015625 0.3125 0.984375 0.3125 0.921875 L 0.3125 -2.71875 C 0.3125 -2.78125 0.34375 -2.8125 0.40625 -2.8125 L 0.984375 -2.8125 C 1.046875 -2.8125 1.078125 -2.78125 1.078125 -2.71875 L 1.078125 -2.578125 C 1.078125 -2.554688 1.082031 -2.546875 1.09375 -2.546875 C 1.101562 -2.546875 1.113281 -2.550781 1.125 -2.5625 C 1.269531 -2.757812 1.476562 -2.859375 1.75 -2.859375 C 1.988281 -2.859375 2.203125 -2.78125 2.390625 -2.625 C 2.585938 -2.476562 2.722656 -2.285156 2.796875 -2.046875 Z M 1.953125 -0.84375 C 2.035156 -0.988281 2.078125 -1.175781 2.078125 -1.40625 C 2.078125 -1.625 2.039062 -1.804688 1.96875 -1.953125 C 1.882812 -2.109375 1.75 -2.1875 1.5625 -2.1875 C 1.40625 -2.1875 1.285156 -2.109375 1.203125 -1.953125 C 1.128906 -1.816406 1.09375 -1.632812 1.09375 -1.40625 C 1.09375 -1.164062 1.128906 -0.976562 1.203125 -0.84375 C 1.296875 -0.695312 1.414062 -0.625 1.5625 -0.625 C 1.738281 -0.625 1.867188 -0.695312 1.953125 -0.84375 Z M 1.953125 -0.84375 "/></g></g></g><g fill="#2a48a3" fill-opacity="1"><g transform="translate(117.208397, 47.906946)"><g/></g></g><g fill="#2a48a3" fill-opacity="1"><g transform="translate(118.30107, 47.906946)"><g><path d="M 0.25 -1.28125 C 0.1875 -1.28125 0.15625 -1.3125 0.15625 -1.375 L 0.15625 -1.859375 C 0.15625 -1.921875 0.1875 -1.953125 0.25 -1.953125 L 1.984375 -1.953125 C 2.046875 -1.953125 2.078125 -1.921875 2.078125 -1.859375 L 2.078125 -1.375 C 2.078125 -1.3125 2.046875 -1.28125 1.984375 -1.28125 Z M 0.25 -1.28125 "/></g></g></g><g fill="#2a48a3" fill-opacity="1"><g transform="translate(120.535589, 47.906946)"><g/></g></g><g fill="#2a48a3" fill-opacity="1"><g transform="translate(121.628262, 47.906946)"><g><path d="M 1.671875 0.046875 C 1.390625 0.046875 1.140625 -0.0078125 0.921875 -0.125 C 0.710938 -0.238281 0.546875 -0.394531 0.421875 -0.59375 C 0.304688 -0.789062 0.25 -1.019531 0.25 -1.28125 L 0.25 -2.546875 C 0.25 -2.804688 0.304688 -3.035156 0.421875 -3.234375 C 0.546875 -3.441406 0.710938 -3.597656 0.921875 -3.703125 C 1.140625 -3.816406 1.390625 -3.875 1.671875 -3.875 C 1.953125 -3.875 2.195312 -3.820312 2.40625 -3.71875 C 2.625 -3.613281 2.789062 -3.460938 2.90625 -3.265625 C 3.03125 -3.078125 3.09375 -2.859375 3.09375 -2.609375 C 3.09375 -2.578125 3.066406 -2.554688 3.015625 -2.546875 L 2.421875 -2.515625 L 2.40625 -2.515625 C 2.351562 -2.515625 2.328125 -2.519531 2.328125 -2.53125 L 2.328125 -2.578125 C 2.328125 -2.765625 2.265625 -2.914062 2.140625 -3.03125 C 2.023438 -3.144531 1.867188 -3.203125 1.671875 -3.203125 C 1.484375 -3.203125 1.328125 -3.144531 1.203125 -3.03125 C 1.085938 -2.914062 1.03125 -2.765625 1.03125 -2.578125 L 1.03125 -1.25 C 1.03125 -1.0625 1.085938 -0.910156 1.203125 -0.796875 C 1.328125 -0.679688 1.484375 -0.625 1.671875 -0.625 C 1.867188 -0.625 2.023438 -0.679688 2.140625 -0.796875 C 2.265625 -0.910156 2.328125 -1.0625 2.328125 -1.25 C 2.328125 -1.269531 2.332031 -1.285156 2.34375 -1.296875 C 2.363281 -1.304688 2.390625 -1.3125 2.421875 -1.3125 L 3 -1.28125 C 3.0625 -1.28125 3.09375 -1.273438 3.09375 -1.265625 L 3.09375 -1.234375 C 3.09375 -0.984375 3.03125 -0.757812 2.90625 -0.5625 C 2.789062 -0.375 2.625 -0.222656 2.40625 -0.109375 C 2.195312 -0.00390625 1.953125 0.046875 1.671875 0.046875 Z M 1.671875 0.046875 "/></g></g></g><g fill="#2a48a3" fill-opacity="1"><g transform="translate(124.949993, 47.906946)"><g><path d="M 1.40625 -2.859375 C 1.644531 -2.859375 1.859375 -2.816406 2.046875 -2.734375 C 2.234375 -2.648438 2.378906 -2.535156 2.484375 -2.390625 C 2.585938 -2.253906 2.640625 -2.097656 2.640625 -1.921875 L 2.640625 -0.09375 C 2.640625 -0.03125 2.609375 0 2.546875 0 L 1.953125 0 C 1.890625 0 1.859375 -0.03125 1.859375 -0.09375 L 1.859375 -0.21875 C 1.859375 -0.238281 1.851562 -0.25 1.84375 -0.25 C 1.84375 -0.25 1.835938 -0.242188 1.828125 -0.234375 C 1.660156 -0.046875 1.410156 0.046875 1.078125 0.046875 C 0.796875 0.046875 0.566406 -0.0195312 0.390625 -0.15625 C 0.222656 -0.300781 0.140625 -0.507812 0.140625 -0.78125 C 0.140625 -1.0625 0.238281 -1.273438 0.4375 -1.421875 C 0.632812 -1.578125 0.914062 -1.65625 1.28125 -1.65625 L 1.828125 -1.65625 C 1.847656 -1.65625 1.859375 -1.671875 1.859375 -1.703125 L 1.859375 -1.8125 C 1.859375 -1.925781 1.820312 -2.015625 1.75 -2.078125 C 1.675781 -2.148438 1.566406 -2.1875 1.421875 -2.1875 C 1.316406 -2.1875 1.226562 -2.164062 1.15625 -2.125 C 1.082031 -2.09375 1.035156 -2.046875 1.015625 -1.984375 C 0.992188 -1.929688 0.957031 -1.910156 0.90625 -1.921875 L 0.296875 -1.984375 C 0.265625 -1.992188 0.238281 -2.003906 0.21875 -2.015625 C 0.207031 -2.023438 0.203125 -2.039062 0.203125 -2.0625 C 0.222656 -2.21875 0.285156 -2.351562 0.390625 -2.46875 C 0.503906 -2.59375 0.648438 -2.6875 0.828125 -2.75 C 1.003906 -2.820312 1.195312 -2.859375 1.40625 -2.859375 Z M 1.296875 -0.53125 C 1.453125 -0.53125 1.582031 -0.570312 1.6875 -0.65625 C 1.800781 -0.738281 1.859375 -0.847656 1.859375 -0.984375 L 1.859375 -1.171875 C 1.859375 -1.191406 1.847656 -1.203125 1.828125 -1.203125 L 1.4375 -1.203125 C 1.28125 -1.203125 1.148438 -1.171875 1.046875 -1.109375 C 0.953125 -1.046875 0.90625 -0.957031 0.90625 -0.84375 C 0.90625 -0.75 0.941406 -0.671875 1.015625 -0.609375 C 1.085938 -0.554688 1.179688 -0.53125 1.296875 -0.53125 Z M 1.296875 -0.53125 "/></g></g></g><g fill="#2a48a3" fill-opacity="1"><g transform="translate(127.834651, 47.906946)"><g><path d="M 3.40625 -2.859375 C 3.6875 -2.859375 3.90625 -2.769531 4.0625 -2.59375 C 4.226562 -2.425781 4.3125 -2.1875 4.3125 -1.875 L 4.3125 -0.09375 C 4.3125 -0.03125 4.28125 0 4.21875 0 L 3.625 0 C 3.5625 0 3.53125 -0.03125 3.53125 -0.09375 L 3.53125 -1.703125 C 3.53125 -1.859375 3.492188 -1.976562 3.421875 -2.0625 C 3.347656 -2.144531 3.25 -2.1875 3.125 -2.1875 C 2.988281 -2.1875 2.878906 -2.144531 2.796875 -2.0625 C 2.722656 -1.976562 2.6875 -1.863281 2.6875 -1.71875 L 2.6875 -0.09375 C 2.6875 -0.03125 2.65625 0 2.59375 0 L 2.015625 0 C 1.953125 0 1.921875 -0.03125 1.921875 -0.09375 L 1.921875 -1.703125 C 1.921875 -1.847656 1.878906 -1.960938 1.796875 -2.046875 C 1.710938 -2.140625 1.609375 -2.1875 1.484375 -2.1875 C 1.367188 -2.1875 1.269531 -2.148438 1.1875 -2.078125 C 1.113281 -2.015625 1.070312 -1.921875 1.0625 -1.796875 L 1.0625 -0.09375 C 1.0625 -0.03125 1.03125 0 0.96875 0 L 0.375 0 C 0.3125 0 0.28125 -0.03125 0.28125 -0.09375 L 0.28125 -2.71875 C 0.28125 -2.78125 0.3125 -2.8125 0.375 -2.8125 L 0.96875 -2.8125 C 1.03125 -2.8125 1.0625 -2.78125 1.0625 -2.71875 L 1.0625 -2.546875 C 1.0625 -2.523438 1.0625 -2.515625 1.0625 -2.515625 C 1.070312 -2.515625 1.082031 -2.519531 1.09375 -2.53125 C 1.238281 -2.75 1.46875 -2.859375 1.78125 -2.859375 C 1.96875 -2.859375 2.128906 -2.816406 2.265625 -2.734375 C 2.398438 -2.660156 2.503906 -2.554688 2.578125 -2.421875 C 2.578125 -2.398438 2.582031 -2.390625 2.59375 -2.390625 C 2.601562 -2.398438 2.609375 -2.410156 2.609375 -2.421875 C 2.691406 -2.566406 2.800781 -2.675781 2.9375 -2.75 C 3.070312 -2.820312 3.226562 -2.859375 3.40625 -2.859375 Z M 3.40625 -2.859375 "/></g></g></g><g fill="#2a48a3" fill-opacity="1"><g transform="translate(132.396567, 47.906946)"><g><path d="M 1.640625 -0.609375 C 1.878906 -0.617188 2.0625 -0.703125 2.1875 -0.859375 C 2.207031 -0.878906 2.234375 -0.890625 2.265625 -0.890625 C 2.285156 -0.890625 2.304688 -0.882812 2.328125 -0.875 L 2.640625 -0.5625 C 2.660156 -0.539062 2.671875 -0.519531 2.671875 -0.5 C 2.671875 -0.476562 2.660156 -0.457031 2.640625 -0.4375 C 2.523438 -0.289062 2.375 -0.171875 2.1875 -0.078125 C 2 0.00390625 1.789062 0.046875 1.5625 0.046875 C 1.226562 0.046875 0.953125 -0.0351562 0.734375 -0.203125 C 0.515625 -0.378906 0.367188 -0.617188 0.296875 -0.921875 C 0.242188 -1.078125 0.21875 -1.242188 0.21875 -1.421875 C 0.21875 -1.640625 0.238281 -1.820312 0.28125 -1.96875 C 0.351562 -2.238281 0.5 -2.453125 0.71875 -2.609375 C 0.945312 -2.773438 1.210938 -2.859375 1.515625 -2.859375 C 1.867188 -2.859375 2.148438 -2.75 2.359375 -2.53125 C 2.566406 -2.320312 2.703125 -2.03125 2.765625 -1.65625 C 2.785156 -1.53125 2.796875 -1.394531 2.796875 -1.25 C 2.796875 -1.1875 2.765625 -1.15625 2.703125 -1.15625 L 1.03125 -1.15625 C 1.007812 -1.15625 1 -1.144531 1 -1.125 C 1.007812 -1.050781 1.019531 -0.992188 1.03125 -0.953125 C 1.070312 -0.835938 1.144531 -0.75 1.25 -0.6875 C 1.351562 -0.632812 1.484375 -0.609375 1.640625 -0.609375 Z M 1.5 -2.1875 C 1.382812 -2.1875 1.285156 -2.160156 1.203125 -2.109375 C 1.128906 -2.054688 1.078125 -1.976562 1.046875 -1.875 C 1.023438 -1.800781 1.015625 -1.753906 1.015625 -1.734375 C 1.003906 -1.710938 1.015625 -1.703125 1.046875 -1.703125 L 1.96875 -1.703125 C 1.988281 -1.703125 2 -1.707031 2 -1.71875 C 2 -1.757812 1.988281 -1.800781 1.96875 -1.84375 C 1.9375 -1.945312 1.878906 -2.03125 1.796875 -2.09375 C 1.722656 -2.15625 1.625 -2.1875 1.5 -2.1875 Z M 1.5 -2.1875 "/></g></g></g><g fill="#2a48a3" fill-opacity="1"><g transform="translate(135.385029, 47.906946)"><g><path d="M 1.6875 -2.84375 C 1.800781 -2.84375 1.894531 -2.820312 1.96875 -2.78125 C 2.019531 -2.757812 2.039062 -2.722656 2.03125 -2.671875 L 1.921875 -2.09375 C 1.921875 -2.0625 1.910156 -2.039062 1.890625 -2.03125 C 1.867188 -2.03125 1.84375 -2.03125 1.8125 -2.03125 C 1.75 -2.050781 1.695312 -2.0625 1.65625 -2.0625 C 1.625 -2.0625 1.582031 -2.054688 1.53125 -2.046875 C 1.394531 -2.035156 1.28125 -1.984375 1.1875 -1.890625 C 1.101562 -1.804688 1.0625 -1.695312 1.0625 -1.5625 L 1.0625 -0.09375 C 1.0625 -0.03125 1.03125 0 0.96875 0 L 0.375 0 C 0.3125 0 0.28125 -0.03125 0.28125 -0.09375 L 0.28125 -2.71875 C 0.28125 -2.78125 0.3125 -2.8125 0.375 -2.8125 L 0.96875 -2.8125 C 1.03125 -2.8125 1.0625 -2.78125 1.0625 -2.71875 L 1.0625 -2.546875 C 1.0625 -2.535156 1.0625 -2.523438 1.0625 -2.515625 C 1.070312 -2.515625 1.082031 -2.519531 1.09375 -2.53125 C 1.238281 -2.738281 1.4375 -2.84375 1.6875 -2.84375 Z M 1.6875 -2.84375 "/></g></g></g><g fill="#2a48a3" fill-opacity="1"><g transform="translate(137.477497, 47.906946)"><g><path d="M 1.40625 -2.859375 C 1.644531 -2.859375 1.859375 -2.816406 2.046875 -2.734375 C 2.234375 -2.648438 2.378906 -2.535156 2.484375 -2.390625 C 2.585938 -2.253906 2.640625 -2.097656 2.640625 -1.921875 L 2.640625 -0.09375 C 2.640625 -0.03125 2.609375 0 2.546875 0 L 1.953125 0 C 1.890625 0 1.859375 -0.03125 1.859375 -0.09375 L 1.859375 -0.21875 C 1.859375 -0.238281 1.851562 -0.25 1.84375 -0.25 C 1.84375 -0.25 1.835938 -0.242188 1.828125 -0.234375 C 1.660156 -0.046875 1.410156 0.046875 1.078125 0.046875 C 0.796875 0.046875 0.566406 -0.0195312 0.390625 -0.15625 C 0.222656 -0.300781 0.140625 -0.507812 0.140625 -0.78125 C 0.140625 -1.0625 0.238281 -1.273438 0.4375 -1.421875 C 0.632812 -1.578125 0.914062 -1.65625 1.28125 -1.65625 L 1.828125 -1.65625 C 1.847656 -1.65625 1.859375 -1.671875 1.859375 -1.703125 L 1.859375 -1.8125 C 1.859375 -1.925781 1.820312 -2.015625 1.75 -2.078125 C 1.675781 -2.148438 1.566406 -2.1875 1.421875 -2.1875 C 1.316406 -2.1875 1.226562 -2.164062 1.15625 -2.125 C 1.082031 -2.09375 1.035156 -2.046875 1.015625 -1.984375 C 0.992188 -1.929688 0.957031 -1.910156 0.90625 -1.921875 L 0.296875 -1.984375 C 0.265625 -1.992188 0.238281 -2.003906 0.21875 -2.015625 C 0.207031 -2.023438 0.203125 -2.039062 0.203125 -2.0625 C 0.222656 -2.21875 0.285156 -2.351562 0.390625 -2.46875 C 0.503906 -2.59375 0.648438 -2.6875 0.828125 -2.75 C 1.003906 -2.820312 1.195312 -2.859375 1.40625 -2.859375 Z M 1.296875 -0.53125 C 1.453125 -0.53125 1.582031 -0.570312 1.6875 -0.65625 C 1.800781 -0.738281 1.859375 -0.847656 1.859375 -0.984375 L 1.859375 -1.171875 C 1.859375 -1.191406 1.847656 -1.203125 1.828125 -1.203125 L 1.4375 -1.203125 C 1.28125 -1.203125 1.148438 -1.171875 1.046875 -1.109375 C 0.953125 -1.046875 0.90625 -0.957031 0.90625 -0.84375 C 0.90625 -0.75 0.941406 -0.671875 1.015625 -0.609375 C 1.085938 -0.554688 1.179688 -0.53125 1.296875 -0.53125 Z M 1.296875 -0.53125 "/></g></g></g><g fill="#2a48a3" fill-opacity="1"><g transform="translate(140.362154, 47.906946)"><g/></g></g><g fill="#2a48a3" fill-opacity="1"><g transform="translate(141.454827, 47.906946)"><g><path d="M 0.25 -1.28125 C 0.1875 -1.28125 0.15625 -1.3125 0.15625 -1.375 L 0.15625 -1.859375 C 0.15625 -1.921875 0.1875 -1.953125 0.25 -1.953125 L 1.984375 -1.953125 C 2.046875 -1.953125 2.078125 -1.921875 2.078125 -1.859375 L 2.078125 -1.375 C 2.078125 -1.3125 2.046875 -1.28125 1.984375 -1.28125 Z M 0.25 -1.28125 "/></g></g></g><g fill="#2a48a3" fill-opacity="1"><g transform="translate(143.689346, 47.906946)"><g/></g></g><g fill="#2a48a3" fill-opacity="1"><g transform="translate(144.782019, 47.906946)"><g><path d="M 0.4375 0 C 0.375 0 0.34375 -0.03125 0.34375 -0.09375 L 0.34375 -3.734375 C 0.34375 -3.796875 0.375 -3.828125 0.4375 -3.828125 L 1.015625 -3.828125 C 1.066406 -3.828125 1.101562 -3.804688 1.125 -3.765625 L 1.921875 -2.484375 C 1.929688 -2.472656 1.9375 -2.46875 1.9375 -2.46875 C 1.945312 -2.46875 1.957031 -2.472656 1.96875 -2.484375 L 2.765625 -3.765625 C 2.796875 -3.804688 2.832031 -3.828125 2.875 -3.828125 L 3.46875 -3.828125 C 3.53125 -3.828125 3.5625 -3.796875 3.5625 -3.734375 L 3.5625 -0.09375 C 3.5625 -0.03125 3.53125 0 3.46875 0 L 2.875 0 C 2.8125 0 2.78125 -0.03125 2.78125 -0.09375 L 2.78125 -2.46875 C 2.78125 -2.476562 2.773438 -2.484375 2.765625 -2.484375 C 2.753906 -2.492188 2.75 -2.488281 2.75 -2.46875 L 2.1875 -1.5625 C 2.164062 -1.53125 2.128906 -1.515625 2.078125 -1.515625 L 1.8125 -1.515625 C 1.757812 -1.515625 1.722656 -1.53125 1.703125 -1.5625 L 1.15625 -2.46875 C 1.144531 -2.488281 1.132812 -2.492188 1.125 -2.484375 C 1.113281 -2.484375 1.109375 -2.476562 1.109375 -2.46875 L 1.109375 -0.09375 C 1.109375 -0.03125 1.078125 0 1.015625 0 Z M 0.4375 0 "/></g></g></g><g fill="#2a48a3" fill-opacity="1"><g transform="translate(148.666477, 47.906946)"><g><path d="M 1.40625 -2.859375 C 1.644531 -2.859375 1.859375 -2.816406 2.046875 -2.734375 C 2.234375 -2.648438 2.378906 -2.535156 2.484375 -2.390625 C 2.585938 -2.253906 2.640625 -2.097656 2.640625 -1.921875 L 2.640625 -0.09375 C 2.640625 -0.03125 2.609375 0 2.546875 0 L 1.953125 0 C 1.890625 0 1.859375 -0.03125 1.859375 -0.09375 L 1.859375 -0.21875 C 1.859375 -0.238281 1.851562 -0.25 1.84375 -0.25 C 1.84375 -0.25 1.835938 -0.242188 1.828125 -0.234375 C 1.660156 -0.046875 1.410156 0.046875 1.078125 0.046875 C 0.796875 0.046875 0.566406 -0.0195312 0.390625 -0.15625 C 0.222656 -0.300781 0.140625 -0.507812 0.140625 -0.78125 C 0.140625 -1.0625 0.238281 -1.273438 0.4375 -1.421875 C 0.632812 -1.578125 0.914062 -1.65625 1.28125 -1.65625 L 1.828125 -1.65625 C 1.847656 -1.65625 1.859375 -1.671875 1.859375 -1.703125 L 1.859375 -1.8125 C 1.859375 -1.925781 1.820312 -2.015625 1.75 -2.078125 C 1.675781 -2.148438 1.566406 -2.1875 1.421875 -2.1875 C 1.316406 -2.1875 1.226562 -2.164062 1.15625 -2.125 C 1.082031 -2.09375 1.035156 -2.046875 1.015625 -1.984375 C 0.992188 -1.929688 0.957031 -1.910156 0.90625 -1.921875 L 0.296875 -1.984375 C 0.265625 -1.992188 0.238281 -2.003906 0.21875 -2.015625 C 0.207031 -2.023438 0.203125 -2.039062 0.203125 -2.0625 C 0.222656 -2.21875 0.285156 -2.351562 0.390625 -2.46875 C 0.503906 -2.59375 0.648438 -2.6875 0.828125 -2.75 C 1.003906 -2.820312 1.195312 -2.859375 1.40625 -2.859375 Z M 1.296875 -0.53125 C 1.453125 -0.53125 1.582031 -0.570312 1.6875 -0.65625 C 1.800781 -0.738281 1.859375 -0.847656 1.859375 -0.984375 L 1.859375 -1.171875 C 1.859375 -1.191406 1.847656 -1.203125 1.828125 -1.203125 L 1.4375 -1.203125 C 1.28125 -1.203125 1.148438 -1.171875 1.046875 -1.109375 C 0.953125 -1.046875 0.90625 -0.957031 0.90625 -0.84375 C 0.90625 -0.75 0.941406 -0.671875 1.015625 -0.609375 C 1.085938 -0.554688 1.179688 -0.53125 1.296875 -0.53125 Z M 1.15625 -3.1875 C 1.09375 -3.1875 1.0625 -3.207031 1.0625 -3.25 C 1.0625 -3.269531 1.066406 -3.285156 1.078125 -3.296875 L 1.359375 -3.796875 C 1.378906 -3.835938 1.414062 -3.859375 1.46875 -3.859375 L 2.015625 -3.859375 C 2.035156 -3.859375 2.050781 -3.851562 2.0625 -3.84375 C 2.082031 -3.832031 2.09375 -3.816406 2.09375 -3.796875 C 2.09375 -3.773438 2.085938 -3.757812 2.078125 -3.75 L 1.71875 -3.25 C 1.695312 -3.207031 1.660156 -3.1875 1.609375 -3.1875 Z M 1.15625 -3.1875 "/></g></g></g><g fill="#2a48a3" fill-opacity="1"><g transform="translate(151.551134, 47.906946)"><g><path d="M 0.265625 1.09375 C 0.242188 1.09375 0.234375 1.0625 0.234375 1 L 0.234375 0.546875 C 0.234375 0.484375 0.242188 0.453125 0.265625 0.453125 L 0.296875 0.453125 C 0.523438 0.453125 0.6875 0.421875 0.78125 0.359375 C 0.875 0.304688 0.941406 0.191406 0.984375 0.015625 C 0.992188 0.00390625 0.992188 -0.00390625 0.984375 -0.015625 L 0.109375 -2.703125 C 0.109375 -2.710938 0.109375 -2.722656 0.109375 -2.734375 C 0.109375 -2.753906 0.113281 -2.769531 0.125 -2.78125 C 0.132812 -2.800781 0.15625 -2.8125 0.1875 -2.8125 L 0.8125 -2.8125 C 0.863281 -2.8125 0.898438 -2.785156 0.921875 -2.734375 L 1.375 -1.109375 C 1.375 -1.085938 1.378906 -1.078125 1.390625 -1.078125 C 1.398438 -1.078125 1.40625 -1.085938 1.40625 -1.109375 L 1.84375 -2.734375 C 1.851562 -2.785156 1.882812 -2.8125 1.9375 -2.8125 L 2.578125 -2.8125 C 2.609375 -2.8125 2.628906 -2.800781 2.640625 -2.78125 C 2.648438 -2.757812 2.648438 -2.734375 2.640625 -2.703125 L 1.71875 0.109375 C 1.625 0.367188 1.53125 0.566406 1.4375 0.703125 C 1.34375 0.835938 1.207031 0.9375 1.03125 1 C 0.863281 1.0625 0.625 1.09375 0.3125 1.09375 Z M 0.265625 1.09375 "/></g></g></g><g fill="#2a48a3" fill-opacity="1"><g transform="translate(154.310133, 47.906946)"><g/></g></g><g fill="#2a48a3" fill-opacity="1"><g transform="translate(155.402806, 47.906946)"><g><path d="M 0.71875 -3.078125 C 0.570312 -3.078125 0.453125 -3.117188 0.359375 -3.203125 C 0.273438 -3.296875 0.234375 -3.40625 0.234375 -3.53125 C 0.234375 -3.664062 0.273438 -3.773438 0.359375 -3.859375 C 0.453125 -3.953125 0.570312 -4 0.71875 -4 C 0.851562 -4 0.960938 -3.957031 1.046875 -3.875 C 1.140625 -3.789062 1.1875 -3.675781 1.1875 -3.53125 C 1.1875 -3.394531 1.140625 -3.285156 1.046875 -3.203125 C 0.960938 -3.117188 0.851562 -3.078125 0.71875 -3.078125 Z M 0.421875 0 C 0.359375 0 0.328125 -0.03125 0.328125 -0.09375 L 0.328125 -2.71875 C 0.328125 -2.78125 0.359375 -2.8125 0.421875 -2.8125 L 1 -2.8125 C 1.0625 -2.8125 1.09375 -2.78125 1.09375 -2.71875 L 1.09375 -0.09375 C 1.09375 -0.03125 1.0625 0 1 0 Z M 0.421875 0 "/></g></g></g><g fill="#2a48a3" fill-opacity="1"><g transform="translate(156.823282, 47.906946)"><g><path d="M 1.75 -2.859375 C 2.039062 -2.859375 2.273438 -2.765625 2.453125 -2.578125 C 2.628906 -2.398438 2.71875 -2.160156 2.71875 -1.859375 L 2.71875 -0.09375 C 2.71875 -0.03125 2.6875 0 2.625 0 L 2.046875 0 C 1.984375 0 1.953125 -0.03125 1.953125 -0.09375 L 1.953125 -1.703125 C 1.953125 -1.847656 1.910156 -1.960938 1.828125 -2.046875 C 1.753906 -2.140625 1.648438 -2.1875 1.515625 -2.1875 C 1.378906 -2.1875 1.269531 -2.140625 1.1875 -2.046875 C 1.101562 -1.960938 1.0625 -1.847656 1.0625 -1.703125 L 1.0625 -0.09375 C 1.0625 -0.03125 1.03125 0 0.96875 0 L 0.375 0 C 0.3125 0 0.28125 -0.03125 0.28125 -0.09375 L 0.28125 -2.71875 C 0.28125 -2.78125 0.3125 -2.8125 0.375 -2.8125 L 0.96875 -2.8125 C 1.03125 -2.8125 1.0625 -2.78125 1.0625 -2.71875 L 1.0625 -2.5625 C 1.0625 -2.550781 1.0625 -2.539062 1.0625 -2.53125 C 1.070312 -2.53125 1.082031 -2.535156 1.09375 -2.546875 C 1.238281 -2.753906 1.457031 -2.859375 1.75 -2.859375 Z M 1.75 -2.859375 "/></g></g></g><g clip-path="url(#49d6c7dd1c)"><path fill="#ffffff" d="M 46.496094 16.050781 C 44.886719 15.757812 43.617188 16.066406 43.109375 16.941406 C 42.730469 17.597656 42.839844 18.464844 43.371094 19.394531 C 43.425781 19.488281 43.503906 19.507812 43.597656 19.453125 C 43.691406 19.398438 43.710938 19.324219 43.660156 19.230469 C 43.179688 18.394531 43.085938 17.644531 43.394531 17.109375 C 43.820312 16.378906 44.949219 16.105469 46.4375 16.375 C 46.542969 16.394531 46.609375 16.351562 46.628906 16.242188 C 46.648438 16.136719 46.605469 16.070312 46.496094 16.050781 Z M 44.207031 20.519531 C 44.859375 21.234375 45.703125 21.902344 46.667969 22.460938 C 49 23.808594 51.484375 24.167969 52.703125 23.335938 C 52.796875 23.273438 52.808594 23.195312 52.746094 23.105469 C 52.6875 23.015625 52.609375 23 52.519531 23.0625 C 51.421875 23.808594 49.066406 23.464844 46.828125 22.175781 C 45.894531 21.636719 45.078125 20.988281 44.449219 20.300781 C 44.375 20.21875 44.296875 20.214844 44.21875 20.289062 C 44.136719 20.363281 44.132812 20.441406 44.207031 20.523438 Z M 52.316406 20.320312 C 53.367188 19.078125 53.734375 17.828125 53.230469 16.953125 C 52.859375 16.308594 52.070312 15.96875 51.027344 15.953125 C 50.917969 15.953125 50.863281 16.007812 50.859375 16.117188 C 50.859375 16.226562 50.914062 16.28125 51.023438 16.285156 C 51.964844 16.296875 52.640625 16.589844 52.945312 17.117188 C 53.363281 17.84375 53.035156 18.960938 52.0625 20.109375 C 51.992188 20.191406 52 20.269531 52.082031 20.339844 C 52.167969 20.410156 52.246094 20.40625 52.316406 20.320312 Z M 49.609375 16.105469 C 48.660156 16.308594 47.644531 16.710938 46.671875 17.269531 C 44.265625 18.660156 42.695312 20.710938 42.914062 22.195312 C 42.929688 22.304688 42.992188 22.351562 43.101562 22.335938 C 43.207031 22.320312 43.253906 22.257812 43.238281 22.148438 C 43.046875 20.828125 44.535156 18.886719 46.835938 17.554688 C 47.78125 17.007812 48.761719 16.625 49.679688 16.425781 C 49.785156 16.402344 49.828125 16.339844 49.804688 16.230469 C 49.78125 16.125 49.71875 16.082031 49.609375 16.105469 Z M 49.609375 16.105469 " fill-opacity="1" fill-rule="evenodd"/></g><g clip-path="url(#e8d7ea781a)"><path fill="#ffffff" d="M 45.710938 23.226562 C 46.261719 24.761719 47.160156 25.710938 48.175781 25.710938 C 48.914062 25.710938 49.59375 25.207031 50.128906 24.320312 C 50.183594 24.226562 50.164062 24.152344 50.070312 24.09375 C 49.976562 24.039062 49.902344 24.054688 49.847656 24.148438 C 49.363281 24.945312 48.777344 25.378906 48.175781 25.378906 C 47.332031 25.378906 46.53125 24.535156 46.019531 23.117188 C 45.984375 23.011719 45.914062 22.980469 45.808594 23.015625 C 45.707031 23.054688 45.675781 23.125 45.710938 23.226562 Z M 50.738281 22.925781 C 51.023438 22.015625 51.175781 20.964844 51.175781 19.871094 C 51.175781 17.140625 50.21875 14.785156 48.859375 14.179688 C 48.757812 14.136719 48.683594 14.164062 48.640625 14.265625 C 48.597656 14.363281 48.625 14.4375 48.722656 14.480469 C 49.9375 15.019531 50.847656 17.257812 50.847656 19.871094 C 50.847656 20.933594 50.699219 21.949219 50.421875 22.828125 C 50.390625 22.933594 50.425781 23 50.53125 23.035156 C 50.636719 23.066406 50.703125 23.03125 50.738281 22.925781 Z M 53.84375 22.765625 C 53.84375 22.328125 53.488281 21.976562 53.054688 21.976562 C 52.617188 21.976562 52.261719 22.328125 52.261719 22.765625 C 52.261719 23.203125 52.617188 23.554688 53.050781 23.554688 C 53.488281 23.554688 53.839844 23.199219 53.839844 22.765625 Z M 53.511719 22.765625 C 53.511719 22.890625 53.46875 23 53.378906 23.089844 C 53.289062 23.179688 53.179688 23.222656 53.054688 23.222656 C 52.925781 23.222656 52.820312 23.179688 52.730469 23.089844 C 52.640625 23 52.59375 22.890625 52.59375 22.765625 C 52.59375 22.636719 52.640625 22.53125 52.730469 22.441406 C 52.820312 22.351562 52.925781 22.304688 53.054688 22.304688 C 53.179688 22.304688 53.289062 22.351562 53.378906 22.441406 C 53.46875 22.53125 53.511719 22.636719 53.511719 22.765625 Z M 53.511719 22.765625 " fill-opacity="1" fill-rule="evenodd"/></g><g clip-path="url(#45aee9fd7d)"><path fill="#ffffff" d="M 43.28125 23.554688 C 43.71875 23.554688 44.070312 23.199219 44.070312 22.765625 C 44.070312 22.328125 43.71875 21.976562 43.28125 21.976562 C 43.066406 21.976562 42.878906 22.050781 42.726562 22.207031 C 42.570312 22.359375 42.492188 22.546875 42.492188 22.765625 C 42.492188 22.984375 42.570312 23.167969 42.726562 23.324219 C 42.878906 23.476562 43.066406 23.554688 43.28125 23.554688 Z M 43.28125 23.222656 C 43.15625 23.222656 43.046875 23.179688 42.957031 23.089844 C 42.867188 23 42.824219 22.890625 42.824219 22.765625 C 42.824219 22.636719 42.867188 22.53125 42.957031 22.441406 C 43.046875 22.351562 43.15625 22.304688 43.28125 22.304688 C 43.410156 22.304688 43.519531 22.351562 43.605469 22.441406 C 43.695312 22.53125 43.742188 22.636719 43.742188 22.765625 C 43.742188 22.890625 43.695312 23 43.605469 23.089844 C 43.519531 23.179688 43.410156 23.222656 43.28125 23.222656 Z M 48.175781 14.984375 C 48.609375 14.984375 48.964844 14.628906 48.964844 14.195312 C 48.964844 13.757812 48.609375 13.40625 48.175781 13.40625 C 47.738281 13.40625 47.386719 13.761719 47.386719 14.195312 C 47.386719 14.632812 47.738281 14.984375 48.175781 14.984375 Z M 48.175781 14.652344 C 48.046875 14.652344 47.9375 14.609375 47.847656 14.519531 C 47.757812 14.429688 47.714844 14.320312 47.714844 14.195312 C 47.714844 14.066406 47.757812 13.960938 47.847656 13.871094 C 47.9375 13.78125 48.046875 13.734375 48.175781 13.734375 C 48.300781 13.734375 48.410156 13.78125 48.5 13.871094 C 48.589844 13.960938 48.632812 14.066406 48.632812 14.195312 C 48.632812 14.320312 48.589844 14.429688 48.5 14.519531 C 48.410156 14.609375 48.300781 14.652344 48.175781 14.652344 Z M 48.292969 20.429688 C 48.140625 20.464844 47.996094 20.4375 47.863281 20.351562 C 47.730469 20.265625 47.644531 20.148438 47.613281 19.992188 C 47.578125 19.835938 47.605469 19.691406 47.691406 19.558594 C 47.777344 19.425781 47.898438 19.34375 48.054688 19.3125 C 48.207031 19.277344 48.351562 19.304688 48.484375 19.390625 C 48.617188 19.472656 48.703125 19.59375 48.734375 19.75 C 48.769531 19.902344 48.742188 20.046875 48.65625 20.179688 C 48.570312 20.3125 48.449219 20.394531 48.292969 20.429688 Z M 48.292969 20.429688 " fill-opacity="1" fill-rule="evenodd"/></g></svg>