<svg xmlns="http://www.w3.org/2000/svg" xmlns:xlink="http://www.w3.org/1999/xlink" width="190" zoomAndPan="magnify" viewBox="0 0 142.5 44.999999" height="60" preserveAspectRatio="xMidYMid meet" version="1.0"><defs><g/><clipPath id="e5180ce975"><path d="M 20.324219 7.246094 L 49 7.246094 L 49 37 L 20.324219 37 Z M 20.324219 7.246094 " clip-rule="nonzero"/></clipPath><clipPath id="8a4abae2ae"><path d="M 36.605469 21.105469 L 23.957031 21.105469 C 23.464844 21.105469 23.109375 20.636719 23.242188 20.164062 L 26.714844 7.789062 C 26.804688 7.46875 27.097656 7.246094 27.429688 7.246094 L 40.078125 7.246094 C 40.570312 7.246094 40.925781 7.714844 40.792969 8.1875 L 37.320312 20.566406 C 37.230469 20.882812 36.9375 21.105469 36.605469 21.105469 Z M 28.390625 30.449219 L 30.179688 24.074219 C 30.308594 23.601562 29.957031 23.132812 29.464844 23.132812 L 22.960938 23.132812 C 22.628906 23.132812 22.339844 23.355469 22.25 23.675781 L 20.460938 30.046875 C 20.328125 30.519531 20.683594 30.988281 21.171875 30.988281 L 27.675781 30.988281 C 28.007812 30.988281 28.300781 30.765625 28.390625 30.449219 Z M 31.679688 23.675781 L 28.207031 36.050781 C 28.074219 36.523438 28.429688 36.992188 28.921875 36.992188 L 41.570312 36.992188 C 41.902344 36.992188 42.195312 36.769531 42.285156 36.453125 L 45.757812 24.074219 C 45.890625 23.601562 45.535156 23.132812 45.042969 23.132812 L 32.394531 23.132812 C 32.0625 23.132812 31.769531 23.355469 31.679688 23.675781 Z M 40.609375 13.792969 L 38.820312 20.164062 C 38.6875 20.636719 39.042969 21.105469 39.535156 21.105469 L 46.039062 21.105469 C 46.371094 21.105469 46.660156 20.882812 46.75 20.566406 L 48.539062 14.191406 C 48.671875 13.71875 48.316406 13.25 47.824219 13.25 L 41.324219 13.25 C 40.992188 13.25 40.699219 13.472656 40.609375 13.792969 Z M 40.609375 13.792969 " clip-rule="nonzero"/></clipPath><linearGradient x1="114.296441" gradientTransform="matrix(0.0594907, 0, 0, 0.0594907, 20.432585, 7.247004)" y1="-47.633972" x2="358.621844" gradientUnits="userSpaceOnUse" y2="547.634002" id="185ffbfa91"><stop stop-opacity="1" stop-color="rgb(16.499329%, 28.199768%, 63.899231%)" offset="0"/><stop stop-opacity="1" stop-color="rgb(16.499329%, 28.199768%, 63.899231%)" offset="0.0625"/><stop stop-opacity="1" stop-color="rgb(16.482544%, 28.17688%, 63.859558%)" offset="0.09375"/><stop stop-opacity="1" stop-color="rgb(16.419983%, 28.091431%, 63.711548%)" offset="0.101563"/><stop stop-opacity="1" stop-color="rgb(16.326904%, 27.967834%, 63.496399%)" offset="0.109375"/><stop stop-opacity="1" stop-color="rgb(16.235352%, 27.844238%, 63.28125%)" offset="0.117188"/><stop stop-opacity="1" stop-color="rgb(16.143799%, 27.720642%, 63.066101%)" offset="0.125"/><stop stop-opacity="1" stop-color="rgb(16.052246%, 27.598572%, 62.850952%)" offset="0.132813"/><stop stop-opacity="1" stop-color="rgb(15.960693%, 27.474976%, 62.635803%)" offset="0.140625"/><stop stop-opacity="1" stop-color="rgb(15.869141%, 27.351379%, 62.420654%)" offset="0.148438"/><stop stop-opacity="1" stop-color="rgb(15.777588%, 27.227783%, 62.205505%)" offset="0.15625"/><stop stop-opacity="1" stop-color="rgb(15.686035%, 27.104187%, 61.991882%)" offset="0.164063"/><stop stop-opacity="1" stop-color="rgb(15.594482%, 26.982117%, 61.776733%)" offset="0.171875"/><stop stop-opacity="1" stop-color="rgb(15.50293%, 26.858521%, 61.561584%)" offset="0.179688"/><stop stop-opacity="1" stop-color="rgb(15.411377%, 26.734924%, 61.346436%)" offset="0.1875"/><stop stop-opacity="1" stop-color="rgb(15.318298%, 26.611328%, 61.131287%)" offset="0.195312"/><stop stop-opacity="1" stop-color="rgb(15.226746%, 26.487732%, 60.916138%)" offset="0.203125"/><stop stop-opacity="1" stop-color="rgb(15.135193%, 26.364136%, 60.700989%)" offset="0.210938"/><stop stop-opacity="1" stop-color="rgb(15.04364%, 26.242065%, 60.48584%)" offset="0.21875"/><stop stop-opacity="1" stop-color="rgb(14.952087%, 26.118469%, 60.270691%)" offset="0.226563"/><stop stop-opacity="1" stop-color="rgb(14.860535%, 25.994873%, 60.055542%)" offset="0.234375"/><stop stop-opacity="1" stop-color="rgb(14.768982%, 25.871277%, 59.840393%)" offset="0.242188"/><stop stop-opacity="1" stop-color="rgb(14.677429%, 25.747681%, 59.625244%)" offset="0.25"/><stop stop-opacity="1" stop-color="rgb(14.585876%, 25.624084%, 59.411621%)" offset="0.257813"/><stop stop-opacity="1" stop-color="rgb(14.494324%, 25.502014%, 59.196472%)" offset="0.265625"/><stop stop-opacity="1" stop-color="rgb(14.401245%, 25.378418%, 58.981323%)" offset="0.273438"/><stop stop-opacity="1" stop-color="rgb(14.309692%, 25.254822%, 58.766174%)" offset="0.281145"/><stop stop-opacity="1" stop-color="rgb(14.263916%, 25.193787%, 58.659363%)" offset="0.28125"/><stop stop-opacity="1" stop-color="rgb(14.21814%, 25.131226%, 58.551025%)" offset="0.289063"/><stop stop-opacity="1" stop-color="rgb(14.126587%, 25.007629%, 58.335876%)" offset="0.296875"/><stop stop-opacity="1" stop-color="rgb(14.035034%, 24.885559%, 58.120728%)" offset="0.304688"/><stop stop-opacity="1" stop-color="rgb(13.943481%, 24.761963%, 57.905579%)" offset="0.3125"/><stop stop-opacity="1" stop-color="rgb(13.851929%, 24.638367%, 57.69043%)" offset="0.320312"/><stop stop-opacity="1" stop-color="rgb(13.760376%, 24.514771%, 57.475281%)" offset="0.328125"/><stop stop-opacity="1" stop-color="rgb(13.668823%, 24.391174%, 57.260132%)" offset="0.335938"/><stop stop-opacity="1" stop-color="rgb(13.577271%, 24.267578%, 57.044983%)" offset="0.34375"/><stop stop-opacity="1" stop-color="rgb(13.484192%, 24.145508%, 56.829834%)" offset="0.351563"/><stop stop-opacity="1" stop-color="rgb(13.392639%, 24.021912%, 56.616211%)" offset="0.359375"/><stop stop-opacity="1" stop-color="rgb(13.301086%, 23.898315%, 56.401062%)" offset="0.367188"/><stop stop-opacity="1" stop-color="rgb(13.209534%, 23.774719%, 56.185913%)" offset="0.375"/><stop stop-opacity="1" stop-color="rgb(13.117981%, 23.651123%, 55.970764%)" offset="0.382813"/><stop stop-opacity="1" stop-color="rgb(13.026428%, 23.529053%, 55.755615%)" offset="0.390625"/><stop stop-opacity="1" stop-color="rgb(12.934875%, 23.405457%, 55.540466%)" offset="0.398438"/><stop stop-opacity="1" stop-color="rgb(12.843323%, 23.28186%, 55.325317%)" offset="0.40625"/><stop stop-opacity="1" stop-color="rgb(12.75177%, 23.158264%, 55.110168%)" offset="0.414063"/><stop stop-opacity="1" stop-color="rgb(12.660217%, 23.034668%, 54.89502%)" offset="0.421875"/><stop stop-opacity="1" stop-color="rgb(12.567139%, 22.911072%, 54.679871%)" offset="0.429688"/><stop stop-opacity="1" stop-color="rgb(12.475586%, 22.789001%, 54.464722%)" offset="0.4375"/><stop stop-opacity="1" stop-color="rgb(12.384033%, 22.665405%, 54.249573%)" offset="0.445313"/><stop stop-opacity="1" stop-color="rgb(12.29248%, 22.541809%, 54.03595%)" offset="0.453125"/><stop stop-opacity="1" stop-color="rgb(12.200928%, 22.418213%, 53.820801%)" offset="0.460938"/><stop stop-opacity="1" stop-color="rgb(12.109375%, 22.294617%, 53.605652%)" offset="0.46875"/><stop stop-opacity="1" stop-color="rgb(12.017822%, 22.171021%, 53.390503%)" offset="0.476563"/><stop stop-opacity="1" stop-color="rgb(11.92627%, 22.04895%, 53.175354%)" offset="0.484375"/><stop stop-opacity="1" stop-color="rgb(11.834717%, 21.925354%, 52.960205%)" offset="0.492188"/><stop stop-opacity="1" stop-color="rgb(11.743164%, 21.801758%, 52.745056%)" offset="0.5"/><stop stop-opacity="1" stop-color="rgb(11.651611%, 21.678162%, 52.529907%)" offset="0.507813"/><stop stop-opacity="1" stop-color="rgb(11.558533%, 21.554565%, 52.314758%)" offset="0.515625"/><stop stop-opacity="1" stop-color="rgb(11.46698%, 21.432495%, 52.099609%)" offset="0.523438"/><stop stop-opacity="1" stop-color="rgb(11.375427%, 21.308899%, 51.88446%)" offset="0.53125"/><stop stop-opacity="1" stop-color="rgb(11.283875%, 21.185303%, 51.669312%)" offset="0.539062"/><stop stop-opacity="1" stop-color="rgb(11.192322%, 21.061707%, 51.455688%)" offset="0.546875"/><stop stop-opacity="1" stop-color="rgb(11.100769%, 20.93811%, 51.24054%)" offset="0.554688"/><stop stop-opacity="1" stop-color="rgb(11.009216%, 20.814514%, 51.025391%)" offset="0.5625"/><stop stop-opacity="1" stop-color="rgb(10.917664%, 20.692444%, 50.810242%)" offset="0.570313"/><stop stop-opacity="1" stop-color="rgb(10.826111%, 20.568848%, 50.595093%)" offset="0.578125"/><stop stop-opacity="1" stop-color="rgb(10.734558%, 20.445251%, 50.379944%)" offset="0.585938"/><stop stop-opacity="1" stop-color="rgb(10.641479%, 20.321655%, 50.164795%)" offset="0.59375"/><stop stop-opacity="1" stop-color="rgb(10.549927%, 20.198059%, 49.949646%)" offset="0.601563"/><stop stop-opacity="1" stop-color="rgb(10.458374%, 20.075989%, 49.734497%)" offset="0.609375"/><stop stop-opacity="1" stop-color="rgb(10.366821%, 19.952393%, 49.519348%)" offset="0.617188"/><stop stop-opacity="1" stop-color="rgb(10.275269%, 19.828796%, 49.304199%)" offset="0.625"/><stop stop-opacity="1" stop-color="rgb(10.183716%, 19.7052%, 49.08905%)" offset="0.632813"/><stop stop-opacity="1" stop-color="rgb(10.092163%, 19.581604%, 48.873901%)" offset="0.640625"/><stop stop-opacity="1" stop-color="rgb(10.00061%, 19.458008%, 48.660278%)" offset="0.648438"/><stop stop-opacity="1" stop-color="rgb(9.909058%, 19.335938%, 48.445129%)" offset="0.65625"/><stop stop-opacity="1" stop-color="rgb(9.817505%, 19.212341%, 48.22998%)" offset="0.664063"/><stop stop-opacity="1" stop-color="rgb(9.724426%, 19.088745%, 48.014832%)" offset="0.671875"/><stop stop-opacity="1" stop-color="rgb(9.632874%, 18.965149%, 47.799683%)" offset="0.679688"/><stop stop-opacity="1" stop-color="rgb(9.541321%, 18.841553%, 47.584534%)" offset="0.6875"/><stop stop-opacity="1" stop-color="rgb(9.449768%, 18.717957%, 47.369385%)" offset="0.695313"/><stop stop-opacity="1" stop-color="rgb(9.358215%, 18.595886%, 47.154236%)" offset="0.703125"/><stop stop-opacity="1" stop-color="rgb(9.266663%, 18.47229%, 46.939087%)" offset="0.710938"/><stop stop-opacity="1" stop-color="rgb(9.17511%, 18.348694%, 46.723938%)" offset="0.71875"/><stop stop-opacity="1" stop-color="rgb(9.083557%, 18.225098%, 46.508789%)" offset="0.718855"/><stop stop-opacity="1" stop-color="rgb(9.037781%, 18.164062%, 46.401978%)" offset="0.726562"/><stop stop-opacity="1" stop-color="rgb(8.992004%, 18.101501%, 46.29364%)" offset="0.734375"/><stop stop-opacity="1" stop-color="rgb(8.900452%, 17.979431%, 46.080017%)" offset="0.742188"/><stop stop-opacity="1" stop-color="rgb(8.807373%, 17.855835%, 45.864868%)" offset="0.75"/><stop stop-opacity="1" stop-color="rgb(8.71582%, 17.732239%, 45.649719%)" offset="0.757813"/><stop stop-opacity="1" stop-color="rgb(8.624268%, 17.608643%, 45.43457%)" offset="0.765625"/><stop stop-opacity="1" stop-color="rgb(8.532715%, 17.485046%, 45.219421%)" offset="0.773438"/><stop stop-opacity="1" stop-color="rgb(8.441162%, 17.36145%, 45.004272%)" offset="0.78125"/><stop stop-opacity="1" stop-color="rgb(8.349609%, 17.23938%, 44.789124%)" offset="0.789063"/><stop stop-opacity="1" stop-color="rgb(8.258057%, 17.115784%, 44.573975%)" offset="0.796875"/><stop stop-opacity="1" stop-color="rgb(8.166504%, 16.992188%, 44.358826%)" offset="0.804688"/><stop stop-opacity="1" stop-color="rgb(8.074951%, 16.868591%, 44.143677%)" offset="0.8125"/><stop stop-opacity="1" stop-color="rgb(7.983398%, 16.744995%, 43.928528%)" offset="0.820313"/><stop stop-opacity="1" stop-color="rgb(7.89032%, 16.622925%, 43.713379%)" offset="0.828125"/><stop stop-opacity="1" stop-color="rgb(7.821655%, 16.529846%, 43.553162%)" offset="0.84375"/><stop stop-opacity="1" stop-color="rgb(7.798767%, 16.499329%, 43.499756%)" offset="0.875"/><stop stop-opacity="1" stop-color="rgb(7.798767%, 16.499329%, 43.499756%)" offset="1"/></linearGradient><clipPath id="2e4f4236b4"><path d="M 28.019531 11 L 36.898438 11 L 36.898438 18 L 28.019531 18 Z M 28.019531 11 " clip-rule="nonzero"/></clipPath><clipPath id="90f3211463"><path d="M 30 9.070312 L 36.898438 9.070312 L 36.898438 19.3125 L 30 19.3125 Z M 30 9.070312 " clip-rule="nonzero"/></clipPath><clipPath id="e0cca9cfc1"><path d="M 28.019531 9.070312 L 34 9.070312 L 34 18 L 28.019531 18 Z M 28.019531 9.070312 " clip-rule="nonzero"/></clipPath></defs><g clip-path="url(#e5180ce975)"><g clip-path="url(#8a4abae2ae)"><path fill="url(#185ffbfa91)" d="M 20.328125 7.246094 L 20.328125 36.992188 L 48.671875 36.992188 L 48.671875 7.246094 Z M 20.328125 7.246094 " fill-rule="nonzero"/></g></g><g fill="#142a6f" fill-opacity="1"><g transform="translate(51.615432, 30.41864)"><g><path d="M 12.8125 -15.234375 C 13.0625 -15.234375 13.171875 -15.109375 13.140625 -14.859375 L 12.90625 -12.953125 C 12.875 -12.703125 12.738281 -12.578125 12.5 -12.578125 L 8.859375 -12.578125 C 8.785156 -12.578125 8.734375 -12.535156 8.703125 -12.453125 L 7.21875 -0.375 C 7.195312 -0.125 7.0625 0 6.8125 0 L 4.578125 0 C 4.328125 0 4.21875 -0.125 4.25 -0.375 L 5.71875 -12.453125 C 5.75 -12.535156 5.710938 -12.578125 5.609375 -12.578125 L 2.0625 -12.578125 C 1.945312 -12.578125 1.863281 -12.609375 1.8125 -12.671875 C 1.757812 -12.742188 1.742188 -12.835938 1.765625 -12.953125 L 2 -14.859375 C 2.03125 -15.109375 2.160156 -15.234375 2.390625 -15.234375 Z M 12.8125 -15.234375 "/></g></g></g><g fill="#142a6f" fill-opacity="1"><g transform="translate(63.955204, 30.41864)"><g><path d="M 7.46875 -11.34375 C 7.914062 -11.34375 8.273438 -11.253906 8.546875 -11.078125 C 8.671875 -11.015625 8.734375 -10.925781 8.734375 -10.8125 C 8.734375 -10.769531 8.71875 -10.707031 8.6875 -10.625 L 8.015625 -8.34375 C 7.984375 -8.21875 7.929688 -8.132812 7.859375 -8.09375 C 7.796875 -8.0625 7.703125 -8.0625 7.578125 -8.09375 C 7.335938 -8.15625 7.132812 -8.1875 6.96875 -8.1875 C 6.863281 -8.1875 6.695312 -8.171875 6.46875 -8.140625 C 5.957031 -8.097656 5.5 -7.898438 5.09375 -7.546875 C 4.695312 -7.203125 4.472656 -6.753906 4.421875 -6.203125 L 3.703125 -0.375 C 3.671875 -0.125 3.53125 0 3.28125 0 L 1.046875 0 C 0.796875 0 0.6875 -0.125 0.71875 -0.375 L 2 -10.8125 C 2.03125 -11.0625 2.171875 -11.1875 2.421875 -11.1875 L 4.65625 -11.1875 C 4.90625 -11.1875 5.015625 -11.0625 4.984375 -10.8125 L 4.890625 -10.140625 C 4.878906 -10.085938 4.890625 -10.050781 4.921875 -10.03125 C 4.953125 -10.019531 4.988281 -10.035156 5.03125 -10.078125 C 5.695312 -10.921875 6.507812 -11.34375 7.46875 -11.34375 Z M 7.46875 -11.34375 "/></g></g></g><g fill="#142a6f" fill-opacity="1"><g transform="translate(72.051137, 30.41864)"><g><path d="M 0.984375 0 C 0.734375 0 0.625 -0.125 0.65625 -0.375 L 1.9375 -10.8125 C 1.976562 -11.0625 2.113281 -11.1875 2.34375 -11.1875 L 4.609375 -11.1875 C 4.847656 -11.1875 4.953125 -11.0625 4.921875 -10.8125 L 3.640625 -0.375 C 3.609375 -0.125 3.46875 0 3.21875 0 Z M 2.546875 -12.734375 C 2.359375 -12.734375 2.265625 -12.804688 2.265625 -12.953125 C 2.265625 -13.003906 2.285156 -13.070312 2.328125 -13.15625 L 3.609375 -15.140625 C 3.710938 -15.316406 3.863281 -15.40625 4.0625 -15.40625 L 6.203125 -15.40625 C 6.390625 -15.40625 6.484375 -15.335938 6.484375 -15.203125 C 6.484375 -15.128906 6.445312 -15.046875 6.375 -14.953125 L 4.78125 -12.96875 C 4.65625 -12.8125 4.492188 -12.734375 4.296875 -12.734375 Z M 2.546875 -12.734375 "/></g></g></g><g fill="#142a6f" fill-opacity="1"><g transform="translate(77.143741, 30.41864)"><g/></g></g><g fill="#142a6f" fill-opacity="1"><g transform="translate(81.365816, 30.41864)"><g><path d="M 9.34375 -15.234375 C 10.800781 -15.234375 11.957031 -14.875 12.8125 -14.15625 C 13.675781 -13.4375 14.109375 -12.476562 14.109375 -11.28125 C 14.109375 -11.132812 14.09375 -10.914062 14.0625 -10.625 L 13.328125 -4.609375 C 13.203125 -3.703125 12.878906 -2.898438 12.359375 -2.203125 C 11.835938 -1.503906 11.15625 -0.960938 10.3125 -0.578125 C 9.46875 -0.191406 8.519531 0 7.46875 0 L 2.3125 0 C 2.0625 0 1.953125 -0.125 1.984375 -0.375 L 2.765625 -6.6875 C 2.765625 -6.769531 2.726562 -6.8125 2.65625 -6.8125 L 2.0625 -6.8125 C 1.820312 -6.8125 1.710938 -6.9375 1.734375 -7.1875 L 1.921875 -8.53125 C 1.941406 -8.78125 2.070312 -8.90625 2.3125 -8.90625 L 2.921875 -8.90625 C 3.003906 -8.90625 3.046875 -8.945312 3.046875 -9.03125 L 3.765625 -14.859375 C 3.796875 -15.109375 3.929688 -15.234375 4.171875 -15.234375 Z M 11.015625 -10.125 C 11.023438 -10.21875 11.03125 -10.367188 11.03125 -10.578125 C 11.03125 -11.203125 10.859375 -11.695312 10.515625 -12.0625 C 10.179688 -12.425781 9.707031 -12.609375 9.09375 -12.609375 L 6.59375 -12.609375 C 6.519531 -12.609375 6.46875 -12.5625 6.4375 -12.46875 L 6.03125 -9.03125 C 6.03125 -8.945312 6.066406 -8.90625 6.140625 -8.90625 L 7.703125 -8.90625 C 7.816406 -8.90625 7.898438 -8.867188 7.953125 -8.796875 C 8.003906 -8.734375 8.023438 -8.644531 8.015625 -8.53125 L 7.859375 -7.1875 C 7.816406 -6.9375 7.675781 -6.8125 7.4375 -6.8125 L 5.875 -6.8125 C 5.789062 -6.8125 5.75 -6.769531 5.75 -6.6875 L 5.265625 -2.765625 C 5.253906 -2.734375 5.257812 -2.703125 5.28125 -2.671875 C 5.300781 -2.648438 5.332031 -2.640625 5.375 -2.640625 L 7.90625 -2.640625 C 8.550781 -2.640625 9.101562 -2.863281 9.5625 -3.3125 C 10.019531 -3.757812 10.300781 -4.359375 10.40625 -5.109375 Z M 11.015625 -10.125 "/></g></g></g><g fill="#142a6f" fill-opacity="1"><g transform="translate(95.490171, 30.41864)"><g><path d="M 4.203125 0.21875 C 3.171875 0.21875 2.398438 -0.0859375 1.890625 -0.703125 C 1.378906 -1.316406 1.125 -2.148438 1.125 -3.203125 C 1.125 -3.460938 1.15625 -3.796875 1.21875 -4.203125 C 1.28125 -4.617188 1.351562 -5.039062 1.4375 -5.46875 L 2.78125 -11.890625 L 5.984375 -11.890625 L 4.53125 -4.9375 C 4.414062 -4.425781 4.359375 -4.003906 4.359375 -3.671875 C 4.359375 -2.804688 4.738281 -2.375 5.5 -2.375 C 5.976562 -2.375 6.414062 -2.578125 6.8125 -2.984375 C 7.207031 -3.398438 7.546875 -3.957031 7.828125 -4.65625 C 8.117188 -5.351562 8.351562 -6.125 8.53125 -6.96875 L 9.578125 -11.890625 L 12.78125 -11.890625 L 12.515625 -10.6875 C 13.191406 -10.863281 13.65625 -11.226562 13.90625 -11.78125 C 14.15625 -12.332031 14.335938 -12.953125 14.453125 -13.640625 L 17.671875 -13.640625 L 17.78125 -13.390625 C 17.53125 -12.585938 17.171875 -11.84375 16.703125 -11.15625 C 16.242188 -10.476562 15.632812 -9.914062 14.875 -9.46875 C 14.125 -9.03125 13.203125 -8.769531 12.109375 -8.6875 L 10.25 0 L 7.828125 0 L 8.046875 -2.203125 L 7.96875 -2.203125 C 7.5 -1.484375 6.957031 -0.898438 6.34375 -0.453125 C 5.738281 -0.00390625 5.023438 0.21875 4.203125 0.21875 Z M 6.171875 -13.1875 L 6.171875 -13.453125 C 6.535156 -13.859375 6.9375 -14.367188 7.375 -14.984375 C 7.8125 -15.597656 8.195312 -16.160156 8.53125 -16.671875 L 12.09375 -16.671875 L 12.09375 -16.5 C 11.9375 -16.289062 11.707031 -16.039062 11.40625 -15.75 C 11.113281 -15.46875 10.785156 -15.164062 10.421875 -14.84375 C 10.054688 -14.519531 9.695312 -14.210938 9.34375 -13.921875 C 8.988281 -13.640625 8.671875 -13.394531 8.390625 -13.1875 Z M 6.171875 -13.1875 "/></g></g></g><g fill="#142a6f" fill-opacity="1"><g transform="translate(110.96385, 30.41864)"><g><path d="M 5.421875 0.171875 C 4.304688 0.171875 3.367188 -0.113281 2.609375 -0.6875 C 1.859375 -1.269531 1.363281 -2.070312 1.125 -3.09375 C 1.039062 -3.507812 1 -3.953125 1 -4.421875 C 1 -4.660156 1.03125 -5.070312 1.09375 -5.65625 C 1.207031 -6.582031 1.429688 -7.425781 1.765625 -8.1875 C 2.222656 -9.164062 2.898438 -9.9375 3.796875 -10.5 C 4.703125 -11.070312 5.710938 -11.359375 6.828125 -11.359375 C 7.960938 -11.359375 8.914062 -11.066406 9.6875 -10.484375 C 10.46875 -9.910156 10.945312 -9.179688 11.125 -8.296875 C 11.175781 -8.054688 11.203125 -7.832031 11.203125 -7.625 C 11.203125 -7.40625 11.085938 -7.269531 10.859375 -7.21875 L 8.59375 -6.875 L 8.484375 -6.859375 C 8.410156 -6.859375 8.347656 -6.882812 8.296875 -6.9375 C 8.253906 -6.988281 8.234375 -7.050781 8.234375 -7.125 L 8.203125 -7.421875 C 8.148438 -7.796875 7.96875 -8.109375 7.65625 -8.359375 C 7.351562 -8.609375 6.972656 -8.734375 6.515625 -8.734375 C 6.054688 -8.734375 5.65625 -8.613281 5.3125 -8.375 C 4.976562 -8.144531 4.722656 -7.828125 4.546875 -7.421875 C 4.328125 -6.953125 4.175781 -6.359375 4.09375 -5.640625 C 4.050781 -5.273438 4.03125 -4.941406 4.03125 -4.640625 C 4.03125 -4.316406 4.050781 -4.054688 4.09375 -3.859375 C 4.164062 -3.421875 4.335938 -3.078125 4.609375 -2.828125 C 4.890625 -2.578125 5.257812 -2.453125 5.71875 -2.453125 C 6.175781 -2.453125 6.582031 -2.570312 6.9375 -2.8125 C 7.289062 -3.050781 7.554688 -3.375 7.734375 -3.78125 L 7.765625 -3.890625 C 7.785156 -3.953125 7.84375 -4.019531 7.9375 -4.09375 C 8.03125 -4.175781 8.128906 -4.210938 8.234375 -4.203125 L 10.40625 -3.859375 C 10.507812 -3.828125 10.582031 -3.773438 10.625 -3.703125 C 10.664062 -3.628906 10.671875 -3.539062 10.640625 -3.4375 C 10.628906 -3.289062 10.570312 -3.125 10.46875 -2.9375 C 10.050781 -1.96875 9.382812 -1.207031 8.46875 -0.65625 C 7.550781 -0.101562 6.535156 0.171875 5.421875 0.171875 Z M 5.421875 0.171875 "/></g></g></g><g fill="#2a48a3" fill-opacity="1"><g transform="translate(54.80406, 36.988913)"><g><path d="M 0.34375 0 C 0.300781 0 0.28125 -0.0234375 0.28125 -0.078125 L 0.28125 -3.015625 C 0.28125 -3.066406 0.300781 -3.09375 0.34375 -3.09375 L 0.828125 -3.09375 C 0.859375 -3.09375 0.882812 -3.078125 0.90625 -3.046875 L 1.546875 -2.015625 C 1.554688 -2.003906 1.5625 -2 1.5625 -2 C 1.570312 -2 1.582031 -2.003906 1.59375 -2.015625 L 2.234375 -3.046875 C 2.253906 -3.078125 2.285156 -3.09375 2.328125 -3.09375 L 2.796875 -3.09375 C 2.847656 -3.09375 2.875 -3.066406 2.875 -3.015625 L 2.875 -0.078125 C 2.875 -0.0234375 2.847656 0 2.796875 0 L 2.328125 0 C 2.273438 0 2.25 -0.0234375 2.25 -0.078125 L 2.25 -1.984375 C 2.25 -1.992188 2.242188 -2 2.234375 -2 C 2.234375 -2.007812 2.226562 -2.007812 2.21875 -2 L 1.765625 -1.265625 C 1.753906 -1.234375 1.726562 -1.21875 1.6875 -1.21875 L 1.453125 -1.21875 C 1.421875 -1.21875 1.394531 -1.234375 1.375 -1.265625 L 0.921875 -2 C 0.921875 -2.007812 0.914062 -2.007812 0.90625 -2 C 0.894531 -2 0.890625 -1.992188 0.890625 -1.984375 L 0.890625 -0.078125 C 0.890625 -0.0234375 0.867188 0 0.828125 0 Z M 0.34375 0 "/></g></g></g><g fill="#2a48a3" fill-opacity="1"><g transform="translate(57.947062, 36.988913)"><g><path d="M 1.140625 -2.3125 C 1.328125 -2.3125 1.492188 -2.273438 1.640625 -2.203125 C 1.796875 -2.140625 1.914062 -2.050781 2 -1.9375 C 2.082031 -1.820312 2.125 -1.691406 2.125 -1.546875 L 2.125 -0.078125 C 2.125 -0.0234375 2.101562 0 2.0625 0 L 1.578125 0 C 1.535156 0 1.515625 -0.0234375 1.515625 -0.078125 L 1.515625 -0.1875 C 1.515625 -0.195312 1.507812 -0.203125 1.5 -0.203125 C 1.488281 -0.203125 1.484375 -0.195312 1.484375 -0.1875 C 1.347656 -0.0390625 1.144531 0.03125 0.875 0.03125 C 0.644531 0.03125 0.457031 -0.0195312 0.3125 -0.125 C 0.175781 -0.238281 0.109375 -0.40625 0.109375 -0.625 C 0.109375 -0.851562 0.1875 -1.03125 0.34375 -1.15625 C 0.507812 -1.28125 0.738281 -1.34375 1.03125 -1.34375 L 1.484375 -1.34375 C 1.503906 -1.34375 1.515625 -1.351562 1.515625 -1.375 L 1.515625 -1.46875 C 1.515625 -1.5625 1.484375 -1.632812 1.421875 -1.6875 C 1.359375 -1.738281 1.269531 -1.765625 1.15625 -1.765625 C 1.0625 -1.765625 0.984375 -1.75 0.921875 -1.71875 C 0.867188 -1.695312 0.832031 -1.660156 0.8125 -1.609375 C 0.800781 -1.566406 0.773438 -1.546875 0.734375 -1.546875 L 0.234375 -1.609375 C 0.210938 -1.609375 0.191406 -1.613281 0.171875 -1.625 C 0.160156 -1.632812 0.160156 -1.648438 0.171875 -1.671875 C 0.179688 -1.796875 0.226562 -1.90625 0.3125 -2 C 0.40625 -2.09375 0.519531 -2.164062 0.65625 -2.21875 C 0.800781 -2.28125 0.960938 -2.3125 1.140625 -2.3125 Z M 1.046875 -0.421875 C 1.179688 -0.421875 1.289062 -0.453125 1.375 -0.515625 C 1.46875 -0.585938 1.515625 -0.679688 1.515625 -0.796875 L 1.515625 -0.953125 C 1.515625 -0.960938 1.503906 -0.96875 1.484375 -0.96875 L 1.171875 -0.96875 C 1.035156 -0.96875 0.925781 -0.941406 0.84375 -0.890625 C 0.769531 -0.847656 0.734375 -0.78125 0.734375 -0.6875 C 0.734375 -0.601562 0.757812 -0.535156 0.8125 -0.484375 C 0.875 -0.441406 0.953125 -0.421875 1.046875 -0.421875 Z M 0.921875 -2.5625 C 0.878906 -2.5625 0.859375 -2.582031 0.859375 -2.625 C 0.859375 -2.632812 0.863281 -2.644531 0.875 -2.65625 L 1.09375 -3.0625 C 1.101562 -3.09375 1.128906 -3.109375 1.171875 -3.109375 L 1.625 -3.109375 C 1.644531 -3.109375 1.660156 -3.101562 1.671875 -3.09375 C 1.679688 -3.09375 1.6875 -3.082031 1.6875 -3.0625 C 1.6875 -3.050781 1.679688 -3.035156 1.671875 -3.015625 L 1.390625 -2.625 C 1.367188 -2.582031 1.335938 -2.5625 1.296875 -2.5625 Z M 0.921875 -2.5625 "/></g></g></g><g fill="#2a48a3" fill-opacity="1"><g transform="translate(60.281104, 36.988913)"><g><path d="M 0.21875 0.875 C 0.195312 0.875 0.1875 0.851562 0.1875 0.8125 L 0.1875 0.4375 C 0.1875 0.382812 0.195312 0.359375 0.21875 0.359375 L 0.234375 0.359375 C 0.421875 0.359375 0.550781 0.335938 0.625 0.296875 C 0.707031 0.253906 0.765625 0.160156 0.796875 0.015625 C 0.804688 0.00390625 0.804688 -0.00390625 0.796875 -0.015625 L 0.09375 -2.1875 C 0.0820312 -2.195312 0.078125 -2.207031 0.078125 -2.21875 C 0.078125 -2.226562 0.0820312 -2.238281 0.09375 -2.25 C 0.113281 -2.257812 0.132812 -2.265625 0.15625 -2.265625 L 0.65625 -2.265625 C 0.695312 -2.265625 0.726562 -2.25 0.75 -2.21875 L 1.109375 -0.890625 C 1.109375 -0.878906 1.113281 -0.875 1.125 -0.875 C 1.132812 -0.875 1.140625 -0.878906 1.140625 -0.890625 L 1.484375 -2.203125 C 1.492188 -2.242188 1.519531 -2.265625 1.5625 -2.265625 L 2.078125 -2.265625 C 2.109375 -2.265625 2.128906 -2.253906 2.140625 -2.234375 C 2.148438 -2.222656 2.148438 -2.207031 2.140625 -2.1875 L 1.390625 0.078125 C 1.316406 0.296875 1.238281 0.457031 1.15625 0.5625 C 1.082031 0.675781 0.972656 0.753906 0.828125 0.796875 C 0.691406 0.847656 0.5 0.875 0.25 0.875 Z M 0.21875 0.875 "/></g></g></g><g fill="#2a48a3" fill-opacity="1"><g transform="translate(62.513473, 36.988913)"><g/></g></g><g fill="#2a48a3" fill-opacity="1"><g transform="translate(63.397579, 36.988913)"><g><path d="M 1.53125 -1.84375 C 1.53125 -1.789062 1.503906 -1.765625 1.453125 -1.765625 L 1.0625 -1.765625 C 1.039062 -1.765625 1.03125 -1.757812 1.03125 -1.75 L 1.03125 -0.828125 C 1.03125 -0.734375 1.050781 -0.660156 1.09375 -0.609375 C 1.132812 -0.566406 1.195312 -0.546875 1.28125 -0.546875 L 1.40625 -0.546875 C 1.457031 -0.546875 1.484375 -0.519531 1.484375 -0.46875 L 1.484375 -0.09375 C 1.484375 -0.0390625 1.457031 -0.015625 1.40625 -0.015625 C 1.300781 -0.00390625 1.222656 0 1.171875 0 C 0.921875 0 0.734375 -0.0390625 0.609375 -0.125 C 0.492188 -0.207031 0.4375 -0.363281 0.4375 -0.59375 L 0.4375 -1.75 C 0.4375 -1.757812 0.425781 -1.765625 0.40625 -1.765625 L 0.1875 -1.765625 C 0.132812 -1.765625 0.109375 -1.789062 0.109375 -1.84375 L 0.109375 -2.203125 C 0.109375 -2.242188 0.132812 -2.265625 0.1875 -2.265625 L 0.40625 -2.265625 C 0.425781 -2.265625 0.4375 -2.273438 0.4375 -2.296875 L 0.4375 -2.796875 C 0.4375 -2.847656 0.460938 -2.875 0.515625 -2.875 L 0.953125 -2.875 C 1.003906 -2.875 1.03125 -2.847656 1.03125 -2.796875 L 1.03125 -2.296875 C 1.03125 -2.273438 1.039062 -2.265625 1.0625 -2.265625 L 1.453125 -2.265625 C 1.503906 -2.265625 1.53125 -2.242188 1.53125 -2.203125 Z M 1.53125 -1.84375 "/></g></g></g><g fill="#2a48a3" fill-opacity="1"><g transform="translate(65.077383, 36.988913)"><g><path d="M 0.296875 0 C 0.242188 0 0.21875 -0.0234375 0.21875 -0.078125 L 0.21875 -2.203125 C 0.21875 -2.242188 0.242188 -2.265625 0.296875 -2.265625 L 0.765625 -2.265625 C 0.816406 -2.265625 0.84375 -2.242188 0.84375 -2.203125 L 0.84375 -0.078125 C 0.84375 -0.0234375 0.816406 0 0.765625 0 Z M 0.296875 -2.578125 C 0.253906 -2.578125 0.234375 -2.597656 0.234375 -2.640625 C 0.234375 -2.648438 0.238281 -2.660156 0.25 -2.671875 L 0.46875 -3.078125 C 0.476562 -3.109375 0.503906 -3.125 0.546875 -3.125 L 1 -3.125 C 1.019531 -3.125 1.035156 -3.117188 1.046875 -3.109375 C 1.054688 -3.109375 1.0625 -3.097656 1.0625 -3.078125 C 1.0625 -3.066406 1.054688 -3.050781 1.046875 -3.03125 L 0.765625 -2.640625 C 0.742188 -2.597656 0.710938 -2.578125 0.671875 -2.578125 Z M 0.296875 -2.578125 "/></g></g></g><g fill="#2a48a3" fill-opacity="1"><g transform="translate(66.142731, 36.988913)"><g><path d="M 1.421875 -2.3125 C 1.648438 -2.3125 1.835938 -2.238281 1.984375 -2.09375 C 2.128906 -1.945312 2.203125 -1.75 2.203125 -1.5 L 2.203125 -0.078125 C 2.203125 -0.0234375 2.175781 0 2.125 0 L 1.65625 0 C 1.601562 0 1.578125 -0.0234375 1.578125 -0.078125 L 1.578125 -1.375 C 1.578125 -1.488281 1.546875 -1.582031 1.484375 -1.65625 C 1.421875 -1.726562 1.332031 -1.765625 1.21875 -1.765625 C 1.113281 -1.765625 1.023438 -1.726562 0.953125 -1.65625 C 0.890625 -1.582031 0.859375 -1.488281 0.859375 -1.375 L 0.859375 -0.078125 C 0.859375 -0.0234375 0.832031 0 0.78125 0 L 0.3125 0 C 0.257812 0 0.234375 -0.0234375 0.234375 -0.078125 L 0.234375 -2.203125 C 0.234375 -2.242188 0.257812 -2.265625 0.3125 -2.265625 L 0.78125 -2.265625 C 0.832031 -2.265625 0.859375 -2.242188 0.859375 -2.203125 L 0.859375 -2.078125 C 0.859375 -2.066406 0.859375 -2.054688 0.859375 -2.046875 C 0.867188 -2.046875 0.875 -2.050781 0.875 -2.0625 C 1 -2.226562 1.179688 -2.3125 1.421875 -2.3125 Z M 1.421875 -2.3125 "/></g></g></g><g fill="#2a48a3" fill-opacity="1"><g transform="translate(68.560764, 36.988913)"><g><path d="M 1.421875 -2.3125 C 1.648438 -2.3125 1.835938 -2.238281 1.984375 -2.09375 C 2.128906 -1.945312 2.203125 -1.75 2.203125 -1.5 L 2.203125 -0.078125 C 2.203125 -0.0234375 2.175781 0 2.125 0 L 1.65625 0 C 1.601562 0 1.578125 -0.0234375 1.578125 -0.078125 L 1.578125 -1.375 C 1.578125 -1.488281 1.546875 -1.582031 1.484375 -1.65625 C 1.421875 -1.726562 1.332031 -1.765625 1.21875 -1.765625 C 1.113281 -1.765625 1.023438 -1.726562 0.953125 -1.65625 C 0.890625 -1.582031 0.859375 -1.488281 0.859375 -1.375 L 0.859375 -0.078125 C 0.859375 -0.0234375 0.832031 0 0.78125 0 L 0.3125 0 C 0.257812 0 0.234375 -0.0234375 0.234375 -0.078125 L 0.234375 -3.015625 C 0.234375 -3.066406 0.257812 -3.09375 0.3125 -3.09375 L 0.78125 -3.09375 C 0.832031 -3.09375 0.859375 -3.066406 0.859375 -3.015625 L 0.859375 -2.078125 C 0.859375 -2.066406 0.859375 -2.054688 0.859375 -2.046875 C 0.867188 -2.046875 0.875 -2.050781 0.875 -2.0625 C 1 -2.226562 1.179688 -2.3125 1.421875 -2.3125 Z M 1.421875 -2.3125 "/></g></g></g><g fill="#2a48a3" fill-opacity="1"><g transform="translate(70.978796, 36.988913)"><g/></g></g><g fill="#2a48a3" fill-opacity="1"><g transform="translate(71.862903, 36.988913)"><g><path d="M 0.203125 -1.046875 C 0.148438 -1.046875 0.125 -1.066406 0.125 -1.109375 L 0.125 -1.5 C 0.125 -1.550781 0.148438 -1.578125 0.203125 -1.578125 L 1.609375 -1.578125 C 1.660156 -1.578125 1.6875 -1.550781 1.6875 -1.5 L 1.6875 -1.109375 C 1.6875 -1.066406 1.660156 -1.046875 1.609375 -1.046875 Z M 0.203125 -1.046875 "/></g></g></g><g fill="#2a48a3" fill-opacity="1"><g transform="translate(73.670902, 36.988913)"><g/></g></g><g fill="#2a48a3" fill-opacity="1"><g transform="translate(74.555009, 36.988913)"><g><path d="M 0.34375 0 C 0.289062 0 0.265625 -0.0234375 0.265625 -0.078125 L 0.265625 -3.015625 C 0.265625 -3.066406 0.289062 -3.09375 0.34375 -3.09375 L 0.8125 -3.09375 C 0.863281 -3.09375 0.890625 -3.066406 0.890625 -3.015625 L 0.890625 -0.5625 C 0.890625 -0.539062 0.898438 -0.53125 0.921875 -0.53125 L 2.34375 -0.53125 C 2.394531 -0.53125 2.421875 -0.503906 2.421875 -0.453125 L 2.421875 -0.078125 C 2.421875 -0.0234375 2.394531 0 2.34375 0 Z M 0.34375 0 "/></g></g></g><g fill="#2a48a3" fill-opacity="1"><g transform="translate(77.083556, 36.988913)"><g><path d="M 1.140625 -2.3125 C 1.328125 -2.3125 1.492188 -2.273438 1.640625 -2.203125 C 1.796875 -2.140625 1.914062 -2.050781 2 -1.9375 C 2.082031 -1.820312 2.125 -1.691406 2.125 -1.546875 L 2.125 -0.078125 C 2.125 -0.0234375 2.101562 0 2.0625 0 L 1.578125 0 C 1.535156 0 1.515625 -0.0234375 1.515625 -0.078125 L 1.515625 -0.1875 C 1.515625 -0.195312 1.507812 -0.203125 1.5 -0.203125 C 1.488281 -0.203125 1.484375 -0.195312 1.484375 -0.1875 C 1.347656 -0.0390625 1.144531 0.03125 0.875 0.03125 C 0.644531 0.03125 0.457031 -0.0195312 0.3125 -0.125 C 0.175781 -0.238281 0.109375 -0.40625 0.109375 -0.625 C 0.109375 -0.851562 0.1875 -1.03125 0.34375 -1.15625 C 0.507812 -1.28125 0.738281 -1.34375 1.03125 -1.34375 L 1.484375 -1.34375 C 1.503906 -1.34375 1.515625 -1.351562 1.515625 -1.375 L 1.515625 -1.46875 C 1.515625 -1.5625 1.484375 -1.632812 1.421875 -1.6875 C 1.359375 -1.738281 1.269531 -1.765625 1.15625 -1.765625 C 1.0625 -1.765625 0.984375 -1.75 0.921875 -1.71875 C 0.867188 -1.695312 0.832031 -1.660156 0.8125 -1.609375 C 0.800781 -1.566406 0.773438 -1.546875 0.734375 -1.546875 L 0.234375 -1.609375 C 0.210938 -1.609375 0.191406 -1.613281 0.171875 -1.625 C 0.160156 -1.632812 0.160156 -1.648438 0.171875 -1.671875 C 0.179688 -1.796875 0.226562 -1.90625 0.3125 -2 C 0.40625 -2.09375 0.519531 -2.164062 0.65625 -2.21875 C 0.800781 -2.28125 0.960938 -2.3125 1.140625 -2.3125 Z M 1.046875 -0.421875 C 1.179688 -0.421875 1.289062 -0.453125 1.375 -0.515625 C 1.46875 -0.585938 1.515625 -0.679688 1.515625 -0.796875 L 1.515625 -0.953125 C 1.515625 -0.960938 1.503906 -0.96875 1.484375 -0.96875 L 1.171875 -0.96875 C 1.035156 -0.96875 0.925781 -0.941406 0.84375 -0.890625 C 0.769531 -0.847656 0.734375 -0.78125 0.734375 -0.6875 C 0.734375 -0.601562 0.757812 -0.535156 0.8125 -0.484375 C 0.875 -0.441406 0.953125 -0.421875 1.046875 -0.421875 Z M 1.046875 -0.421875 "/></g></g></g><g fill="#2a48a3" fill-opacity="1"><g transform="translate(79.417597, 36.988913)"><g><path d="M 2.265625 -1.65625 C 2.316406 -1.519531 2.34375 -1.34375 2.34375 -1.125 C 2.34375 -0.90625 2.3125 -0.722656 2.25 -0.578125 C 2.1875 -0.390625 2.082031 -0.238281 1.9375 -0.125 C 1.789062 -0.0078125 1.613281 0.046875 1.40625 0.046875 C 1.1875 0.046875 1.019531 -0.0234375 0.90625 -0.171875 C 0.894531 -0.179688 0.882812 -0.1875 0.875 -0.1875 C 0.875 -0.1875 0.875 -0.175781 0.875 -0.15625 L 0.875 0.75 C 0.875 0.800781 0.847656 0.828125 0.796875 0.828125 L 0.328125 0.828125 C 0.273438 0.828125 0.25 0.800781 0.25 0.75 L 0.25 -2.203125 C 0.25 -2.242188 0.273438 -2.265625 0.328125 -2.265625 L 0.796875 -2.265625 C 0.847656 -2.265625 0.875 -2.242188 0.875 -2.203125 L 0.875 -2.078125 C 0.875 -2.066406 0.875 -2.0625 0.875 -2.0625 C 0.882812 -2.0625 0.894531 -2.0625 0.90625 -2.0625 C 1.03125 -2.226562 1.195312 -2.3125 1.40625 -2.3125 C 1.613281 -2.3125 1.789062 -2.25 1.9375 -2.125 C 2.09375 -2.007812 2.203125 -1.851562 2.265625 -1.65625 Z M 1.578125 -0.671875 C 1.648438 -0.796875 1.6875 -0.953125 1.6875 -1.140625 C 1.6875 -1.316406 1.65625 -1.460938 1.59375 -1.578125 C 1.519531 -1.703125 1.410156 -1.765625 1.265625 -1.765625 C 1.140625 -1.765625 1.039062 -1.703125 0.96875 -1.578125 C 0.90625 -1.460938 0.875 -1.316406 0.875 -1.140625 C 0.875 -0.941406 0.90625 -0.789062 0.96875 -0.6875 C 1.039062 -0.570312 1.140625 -0.515625 1.265625 -0.515625 C 1.398438 -0.515625 1.503906 -0.566406 1.578125 -0.671875 Z M 1.578125 -0.671875 "/></g></g></g><g fill="#2a48a3" fill-opacity="1"><g transform="translate(81.888676, 36.988913)"><g><path d="M 1.53125 -1.84375 C 1.53125 -1.789062 1.503906 -1.765625 1.453125 -1.765625 L 1.0625 -1.765625 C 1.039062 -1.765625 1.03125 -1.757812 1.03125 -1.75 L 1.03125 -0.828125 C 1.03125 -0.734375 1.050781 -0.660156 1.09375 -0.609375 C 1.132812 -0.566406 1.195312 -0.546875 1.28125 -0.546875 L 1.40625 -0.546875 C 1.457031 -0.546875 1.484375 -0.519531 1.484375 -0.46875 L 1.484375 -0.09375 C 1.484375 -0.0390625 1.457031 -0.015625 1.40625 -0.015625 C 1.300781 -0.00390625 1.222656 0 1.171875 0 C 0.921875 0 0.734375 -0.0390625 0.609375 -0.125 C 0.492188 -0.207031 0.4375 -0.363281 0.4375 -0.59375 L 0.4375 -1.75 C 0.4375 -1.757812 0.425781 -1.765625 0.40625 -1.765625 L 0.1875 -1.765625 C 0.132812 -1.765625 0.109375 -1.789062 0.109375 -1.84375 L 0.109375 -2.203125 C 0.109375 -2.242188 0.132812 -2.265625 0.1875 -2.265625 L 0.40625 -2.265625 C 0.425781 -2.265625 0.4375 -2.273438 0.4375 -2.296875 L 0.4375 -2.796875 C 0.4375 -2.847656 0.460938 -2.875 0.515625 -2.875 L 0.953125 -2.875 C 1.003906 -2.875 1.03125 -2.847656 1.03125 -2.796875 L 1.03125 -2.296875 C 1.03125 -2.273438 1.039062 -2.265625 1.0625 -2.265625 L 1.453125 -2.265625 C 1.503906 -2.265625 1.53125 -2.242188 1.53125 -2.203125 Z M 1.53125 -1.84375 "/></g></g></g><g fill="#2a48a3" fill-opacity="1"><g transform="translate(83.56848, 36.988913)"><g><path d="M 1.234375 0.03125 C 0.984375 0.03125 0.769531 -0.03125 0.59375 -0.15625 C 0.414062 -0.289062 0.296875 -0.46875 0.234375 -0.6875 C 0.191406 -0.820312 0.171875 -0.972656 0.171875 -1.140625 C 0.171875 -1.316406 0.191406 -1.472656 0.234375 -1.609375 C 0.304688 -1.828125 0.425781 -2 0.59375 -2.125 C 0.769531 -2.25 0.988281 -2.3125 1.25 -2.3125 C 1.488281 -2.3125 1.691406 -2.25 1.859375 -2.125 C 2.035156 -2 2.15625 -1.828125 2.21875 -1.609375 C 2.269531 -1.472656 2.296875 -1.320312 2.296875 -1.15625 C 2.296875 -1 2.273438 -0.847656 2.234375 -0.703125 C 2.160156 -0.472656 2.035156 -0.289062 1.859375 -0.15625 C 1.691406 -0.03125 1.484375 0.03125 1.234375 0.03125 Z M 1.234375 -0.5 C 1.328125 -0.5 1.40625 -0.523438 1.46875 -0.578125 C 1.539062 -0.640625 1.59375 -0.722656 1.625 -0.828125 C 1.644531 -0.910156 1.65625 -1.015625 1.65625 -1.140625 C 1.65625 -1.265625 1.644531 -1.367188 1.625 -1.453125 C 1.59375 -1.554688 1.539062 -1.632812 1.46875 -1.6875 C 1.40625 -1.738281 1.328125 -1.765625 1.234375 -1.765625 C 1.128906 -1.765625 1.039062 -1.738281 0.96875 -1.6875 C 0.90625 -1.632812 0.859375 -1.554688 0.828125 -1.453125 C 0.804688 -1.367188 0.796875 -1.265625 0.796875 -1.140625 C 0.796875 -1.015625 0.804688 -0.910156 0.828125 -0.828125 C 0.859375 -0.722656 0.910156 -0.640625 0.984375 -0.578125 C 1.054688 -0.523438 1.140625 -0.5 1.234375 -0.5 Z M 1.234375 -0.5 "/></g></g></g><g fill="#2a48a3" fill-opacity="1"><g transform="translate(86.030717, 36.988913)"><g><path d="M 2.265625 -1.65625 C 2.316406 -1.519531 2.34375 -1.34375 2.34375 -1.125 C 2.34375 -0.90625 2.3125 -0.722656 2.25 -0.578125 C 2.1875 -0.390625 2.082031 -0.238281 1.9375 -0.125 C 1.789062 -0.0078125 1.613281 0.046875 1.40625 0.046875 C 1.1875 0.046875 1.019531 -0.0234375 0.90625 -0.171875 C 0.894531 -0.179688 0.882812 -0.1875 0.875 -0.1875 C 0.875 -0.1875 0.875 -0.175781 0.875 -0.15625 L 0.875 0.75 C 0.875 0.800781 0.847656 0.828125 0.796875 0.828125 L 0.328125 0.828125 C 0.273438 0.828125 0.25 0.800781 0.25 0.75 L 0.25 -2.203125 C 0.25 -2.242188 0.273438 -2.265625 0.328125 -2.265625 L 0.796875 -2.265625 C 0.847656 -2.265625 0.875 -2.242188 0.875 -2.203125 L 0.875 -2.078125 C 0.875 -2.066406 0.875 -2.0625 0.875 -2.0625 C 0.882812 -2.0625 0.894531 -2.0625 0.90625 -2.0625 C 1.03125 -2.226562 1.195312 -2.3125 1.40625 -2.3125 C 1.613281 -2.3125 1.789062 -2.25 1.9375 -2.125 C 2.09375 -2.007812 2.203125 -1.851562 2.265625 -1.65625 Z M 1.578125 -0.671875 C 1.648438 -0.796875 1.6875 -0.953125 1.6875 -1.140625 C 1.6875 -1.316406 1.65625 -1.460938 1.59375 -1.578125 C 1.519531 -1.703125 1.410156 -1.765625 1.265625 -1.765625 C 1.140625 -1.765625 1.039062 -1.703125 0.96875 -1.578125 C 0.90625 -1.460938 0.875 -1.316406 0.875 -1.140625 C 0.875 -0.941406 0.90625 -0.789062 0.96875 -0.6875 C 1.039062 -0.570312 1.140625 -0.515625 1.265625 -0.515625 C 1.398438 -0.515625 1.503906 -0.566406 1.578125 -0.671875 Z M 1.578125 -0.671875 "/></g></g></g><g fill="#2a48a3" fill-opacity="1"><g transform="translate(88.501795, 36.988913)"><g/></g></g><g fill="#2a48a3" fill-opacity="1"><g transform="translate(89.385902, 36.988913)"><g><path d="M 0.203125 -1.046875 C 0.148438 -1.046875 0.125 -1.066406 0.125 -1.109375 L 0.125 -1.5 C 0.125 -1.550781 0.148438 -1.578125 0.203125 -1.578125 L 1.609375 -1.578125 C 1.660156 -1.578125 1.6875 -1.550781 1.6875 -1.5 L 1.6875 -1.109375 C 1.6875 -1.066406 1.660156 -1.046875 1.609375 -1.046875 Z M 0.203125 -1.046875 "/></g></g></g><g fill="#2a48a3" fill-opacity="1"><g transform="translate(91.193902, 36.988913)"><g/></g></g><g fill="#2a48a3" fill-opacity="1"><g transform="translate(92.078008, 36.988913)"><g><path d="M 1.359375 0.03125 C 1.128906 0.03125 0.925781 -0.0078125 0.75 -0.09375 C 0.570312 -0.1875 0.4375 -0.3125 0.34375 -0.46875 C 0.25 -0.632812 0.203125 -0.828125 0.203125 -1.046875 L 0.203125 -2.0625 C 0.203125 -2.269531 0.25 -2.453125 0.34375 -2.609375 C 0.4375 -2.773438 0.570312 -2.898438 0.75 -2.984375 C 0.925781 -3.078125 1.128906 -3.125 1.359375 -3.125 C 1.585938 -3.125 1.785156 -3.082031 1.953125 -3 C 2.128906 -2.914062 2.265625 -2.796875 2.359375 -2.640625 C 2.453125 -2.492188 2.5 -2.316406 2.5 -2.109375 C 2.5 -2.078125 2.476562 -2.0625 2.4375 -2.0625 L 1.953125 -2.03125 L 1.9375 -2.03125 C 1.894531 -2.03125 1.875 -2.035156 1.875 -2.046875 L 1.875 -2.078125 C 1.875 -2.234375 1.828125 -2.359375 1.734375 -2.453125 C 1.640625 -2.546875 1.515625 -2.59375 1.359375 -2.59375 C 1.203125 -2.59375 1.070312 -2.546875 0.96875 -2.453125 C 0.875 -2.359375 0.828125 -2.234375 0.828125 -2.078125 L 0.828125 -1.015625 C 0.828125 -0.859375 0.875 -0.734375 0.96875 -0.640625 C 1.070312 -0.546875 1.203125 -0.5 1.359375 -0.5 C 1.515625 -0.5 1.640625 -0.546875 1.734375 -0.640625 C 1.828125 -0.734375 1.875 -0.859375 1.875 -1.015625 C 1.875 -1.023438 1.878906 -1.035156 1.890625 -1.046875 C 1.910156 -1.054688 1.929688 -1.0625 1.953125 -1.0625 L 2.421875 -1.046875 C 2.472656 -1.035156 2.5 -1.023438 2.5 -1.015625 L 2.5 -1 C 2.5 -0.789062 2.453125 -0.609375 2.359375 -0.453125 C 2.265625 -0.296875 2.128906 -0.175781 1.953125 -0.09375 C 1.785156 -0.0078125 1.585938 0.03125 1.359375 0.03125 Z M 1.359375 0.03125 "/></g></g></g><g fill="#2a48a3" fill-opacity="1"><g transform="translate(94.765696, 36.988913)"><g><path d="M 1.140625 -2.3125 C 1.328125 -2.3125 1.492188 -2.273438 1.640625 -2.203125 C 1.796875 -2.140625 1.914062 -2.050781 2 -1.9375 C 2.082031 -1.820312 2.125 -1.691406 2.125 -1.546875 L 2.125 -0.078125 C 2.125 -0.0234375 2.101562 0 2.0625 0 L 1.578125 0 C 1.535156 0 1.515625 -0.0234375 1.515625 -0.078125 L 1.515625 -0.1875 C 1.515625 -0.195312 1.507812 -0.203125 1.5 -0.203125 C 1.488281 -0.203125 1.484375 -0.195312 1.484375 -0.1875 C 1.347656 -0.0390625 1.144531 0.03125 0.875 0.03125 C 0.644531 0.03125 0.457031 -0.0195312 0.3125 -0.125 C 0.175781 -0.238281 0.109375 -0.40625 0.109375 -0.625 C 0.109375 -0.851562 0.1875 -1.03125 0.34375 -1.15625 C 0.507812 -1.28125 0.738281 -1.34375 1.03125 -1.34375 L 1.484375 -1.34375 C 1.503906 -1.34375 1.515625 -1.351562 1.515625 -1.375 L 1.515625 -1.46875 C 1.515625 -1.5625 1.484375 -1.632812 1.421875 -1.6875 C 1.359375 -1.738281 1.269531 -1.765625 1.15625 -1.765625 C 1.0625 -1.765625 0.984375 -1.75 0.921875 -1.71875 C 0.867188 -1.695312 0.832031 -1.660156 0.8125 -1.609375 C 0.800781 -1.566406 0.773438 -1.546875 0.734375 -1.546875 L 0.234375 -1.609375 C 0.210938 -1.609375 0.191406 -1.613281 0.171875 -1.625 C 0.160156 -1.632812 0.160156 -1.648438 0.171875 -1.671875 C 0.179688 -1.796875 0.226562 -1.90625 0.3125 -2 C 0.40625 -2.09375 0.519531 -2.164062 0.65625 -2.21875 C 0.800781 -2.28125 0.960938 -2.3125 1.140625 -2.3125 Z M 1.046875 -0.421875 C 1.179688 -0.421875 1.289062 -0.453125 1.375 -0.515625 C 1.46875 -0.585938 1.515625 -0.679688 1.515625 -0.796875 L 1.515625 -0.953125 C 1.515625 -0.960938 1.503906 -0.96875 1.484375 -0.96875 L 1.171875 -0.96875 C 1.035156 -0.96875 0.925781 -0.941406 0.84375 -0.890625 C 0.769531 -0.847656 0.734375 -0.78125 0.734375 -0.6875 C 0.734375 -0.601562 0.757812 -0.535156 0.8125 -0.484375 C 0.875 -0.441406 0.953125 -0.421875 1.046875 -0.421875 Z M 1.046875 -0.421875 "/></g></g></g><g fill="#2a48a3" fill-opacity="1"><g transform="translate(97.099738, 36.988913)"><g><path d="M 2.75 -2.3125 C 2.976562 -2.3125 3.15625 -2.238281 3.28125 -2.09375 C 3.414062 -1.957031 3.484375 -1.765625 3.484375 -1.515625 L 3.484375 -0.078125 C 3.484375 -0.0234375 3.457031 0 3.40625 0 L 2.9375 0 C 2.882812 0 2.859375 -0.0234375 2.859375 -0.078125 L 2.859375 -1.375 C 2.859375 -1.5 2.828125 -1.59375 2.765625 -1.65625 C 2.703125 -1.726562 2.617188 -1.765625 2.515625 -1.765625 C 2.410156 -1.765625 2.328125 -1.726562 2.265625 -1.65625 C 2.203125 -1.59375 2.171875 -1.503906 2.171875 -1.390625 L 2.171875 -0.078125 C 2.171875 -0.0234375 2.144531 0 2.09375 0 L 1.625 0 C 1.570312 0 1.546875 -0.0234375 1.546875 -0.078125 L 1.546875 -1.375 C 1.546875 -1.5 1.515625 -1.59375 1.453125 -1.65625 C 1.390625 -1.726562 1.304688 -1.765625 1.203125 -1.765625 C 1.109375 -1.765625 1.03125 -1.738281 0.96875 -1.6875 C 0.90625 -1.632812 0.867188 -1.554688 0.859375 -1.453125 L 0.859375 -0.078125 C 0.859375 -0.0234375 0.832031 0 0.78125 0 L 0.3125 0 C 0.257812 0 0.234375 -0.0234375 0.234375 -0.078125 L 0.234375 -2.203125 C 0.234375 -2.242188 0.257812 -2.265625 0.3125 -2.265625 L 0.78125 -2.265625 C 0.832031 -2.265625 0.859375 -2.242188 0.859375 -2.203125 L 0.859375 -2.0625 C 0.859375 -2.039062 0.859375 -2.03125 0.859375 -2.03125 C 0.867188 -2.03125 0.878906 -2.035156 0.890625 -2.046875 C 1.003906 -2.222656 1.1875 -2.3125 1.4375 -2.3125 C 1.582031 -2.3125 1.707031 -2.28125 1.8125 -2.21875 C 1.925781 -2.15625 2.015625 -2.066406 2.078125 -1.953125 C 2.078125 -1.941406 2.082031 -1.9375 2.09375 -1.9375 C 2.101562 -1.9375 2.109375 -1.941406 2.109375 -1.953125 C 2.179688 -2.066406 2.269531 -2.15625 2.375 -2.21875 C 2.488281 -2.28125 2.613281 -2.3125 2.75 -2.3125 Z M 2.75 -2.3125 "/></g></g></g><g fill="#2a48a3" fill-opacity="1"><g transform="translate(100.790887, 36.988913)"><g><path d="M 1.328125 -0.484375 C 1.523438 -0.492188 1.671875 -0.5625 1.765625 -0.6875 C 1.785156 -0.707031 1.804688 -0.71875 1.828125 -0.71875 C 1.847656 -0.71875 1.863281 -0.710938 1.875 -0.703125 L 2.125 -0.453125 C 2.144531 -0.441406 2.15625 -0.425781 2.15625 -0.40625 C 2.15625 -0.382812 2.148438 -0.367188 2.140625 -0.359375 C 2.046875 -0.234375 1.921875 -0.132812 1.765625 -0.0625 C 1.609375 0 1.441406 0.03125 1.265625 0.03125 C 0.992188 0.03125 0.769531 -0.0351562 0.59375 -0.171875 C 0.414062 -0.304688 0.296875 -0.5 0.234375 -0.75 C 0.203125 -0.875 0.1875 -1.007812 0.1875 -1.15625 C 0.1875 -1.320312 0.203125 -1.46875 0.234375 -1.59375 C 0.285156 -1.8125 0.398438 -1.984375 0.578125 -2.109375 C 0.765625 -2.242188 0.976562 -2.3125 1.21875 -2.3125 C 1.507812 -2.3125 1.738281 -2.222656 1.90625 -2.046875 C 2.070312 -1.878906 2.179688 -1.640625 2.234375 -1.328125 C 2.242188 -1.234375 2.253906 -1.128906 2.265625 -1.015625 C 2.265625 -0.960938 2.238281 -0.9375 2.1875 -0.9375 L 0.828125 -0.9375 C 0.816406 -0.9375 0.8125 -0.925781 0.8125 -0.90625 C 0.8125 -0.84375 0.816406 -0.800781 0.828125 -0.78125 C 0.859375 -0.6875 0.914062 -0.613281 1 -0.5625 C 1.09375 -0.507812 1.203125 -0.484375 1.328125 -0.484375 Z M 1.21875 -1.765625 C 1.113281 -1.765625 1.03125 -1.742188 0.96875 -1.703125 C 0.90625 -1.660156 0.863281 -1.597656 0.84375 -1.515625 C 0.832031 -1.453125 0.820312 -1.414062 0.8125 -1.40625 C 0.8125 -1.382812 0.820312 -1.375 0.84375 -1.375 L 1.59375 -1.375 C 1.601562 -1.375 1.609375 -1.378906 1.609375 -1.390625 C 1.609375 -1.421875 1.601562 -1.457031 1.59375 -1.5 C 1.570312 -1.582031 1.523438 -1.644531 1.453125 -1.6875 C 1.390625 -1.738281 1.3125 -1.765625 1.21875 -1.765625 Z M 1.21875 -1.765625 "/></g></g></g><g fill="#2a48a3" fill-opacity="1"><g transform="translate(103.20892, 36.988913)"><g><path d="M 1.359375 -2.296875 C 1.453125 -2.296875 1.53125 -2.28125 1.59375 -2.25 C 1.632812 -2.226562 1.648438 -2.195312 1.640625 -2.15625 L 1.546875 -1.6875 C 1.546875 -1.664062 1.539062 -1.648438 1.53125 -1.640625 C 1.519531 -1.640625 1.5 -1.640625 1.46875 -1.640625 C 1.414062 -1.648438 1.367188 -1.65625 1.328125 -1.65625 C 1.304688 -1.65625 1.273438 -1.65625 1.234375 -1.65625 C 1.128906 -1.644531 1.039062 -1.601562 0.96875 -1.53125 C 0.894531 -1.46875 0.859375 -1.378906 0.859375 -1.265625 L 0.859375 -0.078125 C 0.859375 -0.0234375 0.832031 0 0.78125 0 L 0.3125 0 C 0.257812 0 0.234375 -0.0234375 0.234375 -0.078125 L 0.234375 -2.203125 C 0.234375 -2.242188 0.257812 -2.265625 0.3125 -2.265625 L 0.78125 -2.265625 C 0.832031 -2.265625 0.859375 -2.242188 0.859375 -2.203125 L 0.859375 -2.0625 C 0.859375 -2.050781 0.859375 -2.039062 0.859375 -2.03125 C 0.867188 -2.03125 0.878906 -2.035156 0.890625 -2.046875 C 1.003906 -2.210938 1.160156 -2.296875 1.359375 -2.296875 Z M 1.359375 -2.296875 "/></g></g></g><g fill="#2a48a3" fill-opacity="1"><g transform="translate(104.901983, 36.988913)"><g><path d="M 1.140625 -2.3125 C 1.328125 -2.3125 1.492188 -2.273438 1.640625 -2.203125 C 1.796875 -2.140625 1.914062 -2.050781 2 -1.9375 C 2.082031 -1.820312 2.125 -1.691406 2.125 -1.546875 L 2.125 -0.078125 C 2.125 -0.0234375 2.101562 0 2.0625 0 L 1.578125 0 C 1.535156 0 1.515625 -0.0234375 1.515625 -0.078125 L 1.515625 -0.1875 C 1.515625 -0.195312 1.507812 -0.203125 1.5 -0.203125 C 1.488281 -0.203125 1.484375 -0.195312 1.484375 -0.1875 C 1.347656 -0.0390625 1.144531 0.03125 0.875 0.03125 C 0.644531 0.03125 0.457031 -0.0195312 0.3125 -0.125 C 0.175781 -0.238281 0.109375 -0.40625 0.109375 -0.625 C 0.109375 -0.851562 0.1875 -1.03125 0.34375 -1.15625 C 0.507812 -1.28125 0.738281 -1.34375 1.03125 -1.34375 L 1.484375 -1.34375 C 1.503906 -1.34375 1.515625 -1.351562 1.515625 -1.375 L 1.515625 -1.46875 C 1.515625 -1.5625 1.484375 -1.632812 1.421875 -1.6875 C 1.359375 -1.738281 1.269531 -1.765625 1.15625 -1.765625 C 1.0625 -1.765625 0.984375 -1.75 0.921875 -1.71875 C 0.867188 -1.695312 0.832031 -1.660156 0.8125 -1.609375 C 0.800781 -1.566406 0.773438 -1.546875 0.734375 -1.546875 L 0.234375 -1.609375 C 0.210938 -1.609375 0.191406 -1.613281 0.171875 -1.625 C 0.160156 -1.632812 0.160156 -1.648438 0.171875 -1.671875 C 0.179688 -1.796875 0.226562 -1.90625 0.3125 -2 C 0.40625 -2.09375 0.519531 -2.164062 0.65625 -2.21875 C 0.800781 -2.28125 0.960938 -2.3125 1.140625 -2.3125 Z M 1.046875 -0.421875 C 1.179688 -0.421875 1.289062 -0.453125 1.375 -0.515625 C 1.46875 -0.585938 1.515625 -0.679688 1.515625 -0.796875 L 1.515625 -0.953125 C 1.515625 -0.960938 1.503906 -0.96875 1.484375 -0.96875 L 1.171875 -0.96875 C 1.035156 -0.96875 0.925781 -0.941406 0.84375 -0.890625 C 0.769531 -0.847656 0.734375 -0.78125 0.734375 -0.6875 C 0.734375 -0.601562 0.757812 -0.535156 0.8125 -0.484375 C 0.875 -0.441406 0.953125 -0.421875 1.046875 -0.421875 Z M 1.046875 -0.421875 "/></g></g></g><g fill="#2a48a3" fill-opacity="1"><g transform="translate(107.236024, 36.988913)"><g/></g></g><g fill="#2a48a3" fill-opacity="1"><g transform="translate(108.120131, 36.988913)"><g><path d="M 0.203125 -1.046875 C 0.148438 -1.046875 0.125 -1.066406 0.125 -1.109375 L 0.125 -1.5 C 0.125 -1.550781 0.148438 -1.578125 0.203125 -1.578125 L 1.609375 -1.578125 C 1.660156 -1.578125 1.6875 -1.550781 1.6875 -1.5 L 1.6875 -1.109375 C 1.6875 -1.066406 1.660156 -1.046875 1.609375 -1.046875 Z M 0.203125 -1.046875 "/></g></g></g><g fill="#2a48a3" fill-opacity="1"><g transform="translate(109.928131, 36.988913)"><g/></g></g><g fill="#2a48a3" fill-opacity="1"><g transform="translate(110.812237, 36.988913)"><g><path d="M 0.34375 0 C 0.300781 0 0.28125 -0.0234375 0.28125 -0.078125 L 0.28125 -3.015625 C 0.28125 -3.066406 0.300781 -3.09375 0.34375 -3.09375 L 0.828125 -3.09375 C 0.859375 -3.09375 0.882812 -3.078125 0.90625 -3.046875 L 1.546875 -2.015625 C 1.554688 -2.003906 1.5625 -2 1.5625 -2 C 1.570312 -2 1.582031 -2.003906 1.59375 -2.015625 L 2.234375 -3.046875 C 2.253906 -3.078125 2.285156 -3.09375 2.328125 -3.09375 L 2.796875 -3.09375 C 2.847656 -3.09375 2.875 -3.066406 2.875 -3.015625 L 2.875 -0.078125 C 2.875 -0.0234375 2.847656 0 2.796875 0 L 2.328125 0 C 2.273438 0 2.25 -0.0234375 2.25 -0.078125 L 2.25 -1.984375 C 2.25 -1.992188 2.242188 -2 2.234375 -2 C 2.234375 -2.007812 2.226562 -2.007812 2.21875 -2 L 1.765625 -1.265625 C 1.753906 -1.234375 1.726562 -1.21875 1.6875 -1.21875 L 1.453125 -1.21875 C 1.421875 -1.21875 1.394531 -1.234375 1.375 -1.265625 L 0.921875 -2 C 0.921875 -2.007812 0.914062 -2.007812 0.90625 -2 C 0.894531 -2 0.890625 -1.992188 0.890625 -1.984375 L 0.890625 -0.078125 C 0.890625 -0.0234375 0.867188 0 0.828125 0 Z M 0.34375 0 "/></g></g></g><g fill="#2a48a3" fill-opacity="1"><g transform="translate(113.95524, 36.988913)"><g><path d="M 1.140625 -2.3125 C 1.328125 -2.3125 1.492188 -2.273438 1.640625 -2.203125 C 1.796875 -2.140625 1.914062 -2.050781 2 -1.9375 C 2.082031 -1.820312 2.125 -1.691406 2.125 -1.546875 L 2.125 -0.078125 C 2.125 -0.0234375 2.101562 0 2.0625 0 L 1.578125 0 C 1.535156 0 1.515625 -0.0234375 1.515625 -0.078125 L 1.515625 -0.1875 C 1.515625 -0.195312 1.507812 -0.203125 1.5 -0.203125 C 1.488281 -0.203125 1.484375 -0.195312 1.484375 -0.1875 C 1.347656 -0.0390625 1.144531 0.03125 0.875 0.03125 C 0.644531 0.03125 0.457031 -0.0195312 0.3125 -0.125 C 0.175781 -0.238281 0.109375 -0.40625 0.109375 -0.625 C 0.109375 -0.851562 0.1875 -1.03125 0.34375 -1.15625 C 0.507812 -1.28125 0.738281 -1.34375 1.03125 -1.34375 L 1.484375 -1.34375 C 1.503906 -1.34375 1.515625 -1.351562 1.515625 -1.375 L 1.515625 -1.46875 C 1.515625 -1.5625 1.484375 -1.632812 1.421875 -1.6875 C 1.359375 -1.738281 1.269531 -1.765625 1.15625 -1.765625 C 1.0625 -1.765625 0.984375 -1.75 0.921875 -1.71875 C 0.867188 -1.695312 0.832031 -1.660156 0.8125 -1.609375 C 0.800781 -1.566406 0.773438 -1.546875 0.734375 -1.546875 L 0.234375 -1.609375 C 0.210938 -1.609375 0.191406 -1.613281 0.171875 -1.625 C 0.160156 -1.632812 0.160156 -1.648438 0.171875 -1.671875 C 0.179688 -1.796875 0.226562 -1.90625 0.3125 -2 C 0.40625 -2.09375 0.519531 -2.164062 0.65625 -2.21875 C 0.800781 -2.28125 0.960938 -2.3125 1.140625 -2.3125 Z M 1.046875 -0.421875 C 1.179688 -0.421875 1.289062 -0.453125 1.375 -0.515625 C 1.46875 -0.585938 1.515625 -0.679688 1.515625 -0.796875 L 1.515625 -0.953125 C 1.515625 -0.960938 1.503906 -0.96875 1.484375 -0.96875 L 1.171875 -0.96875 C 1.035156 -0.96875 0.925781 -0.941406 0.84375 -0.890625 C 0.769531 -0.847656 0.734375 -0.78125 0.734375 -0.6875 C 0.734375 -0.601562 0.757812 -0.535156 0.8125 -0.484375 C 0.875 -0.441406 0.953125 -0.421875 1.046875 -0.421875 Z M 0.921875 -2.5625 C 0.878906 -2.5625 0.859375 -2.582031 0.859375 -2.625 C 0.859375 -2.632812 0.863281 -2.644531 0.875 -2.65625 L 1.09375 -3.0625 C 1.101562 -3.09375 1.128906 -3.109375 1.171875 -3.109375 L 1.625 -3.109375 C 1.644531 -3.109375 1.660156 -3.101562 1.671875 -3.09375 C 1.679688 -3.09375 1.6875 -3.082031 1.6875 -3.0625 C 1.6875 -3.050781 1.679688 -3.035156 1.671875 -3.015625 L 1.390625 -2.625 C 1.367188 -2.582031 1.335938 -2.5625 1.296875 -2.5625 Z M 0.921875 -2.5625 "/></g></g></g><g fill="#2a48a3" fill-opacity="1"><g transform="translate(116.289281, 36.988913)"><g><path d="M 0.21875 0.875 C 0.195312 0.875 0.1875 0.851562 0.1875 0.8125 L 0.1875 0.4375 C 0.1875 0.382812 0.195312 0.359375 0.21875 0.359375 L 0.234375 0.359375 C 0.421875 0.359375 0.550781 0.335938 0.625 0.296875 C 0.707031 0.253906 0.765625 0.160156 0.796875 0.015625 C 0.804688 0.00390625 0.804688 -0.00390625 0.796875 -0.015625 L 0.09375 -2.1875 C 0.0820312 -2.195312 0.078125 -2.207031 0.078125 -2.21875 C 0.078125 -2.226562 0.0820312 -2.238281 0.09375 -2.25 C 0.113281 -2.257812 0.132812 -2.265625 0.15625 -2.265625 L 0.65625 -2.265625 C 0.695312 -2.265625 0.726562 -2.25 0.75 -2.21875 L 1.109375 -0.890625 C 1.109375 -0.878906 1.113281 -0.875 1.125 -0.875 C 1.132812 -0.875 1.140625 -0.878906 1.140625 -0.890625 L 1.484375 -2.203125 C 1.492188 -2.242188 1.519531 -2.265625 1.5625 -2.265625 L 2.078125 -2.265625 C 2.109375 -2.265625 2.128906 -2.253906 2.140625 -2.234375 C 2.148438 -2.222656 2.148438 -2.207031 2.140625 -2.1875 L 1.390625 0.078125 C 1.316406 0.296875 1.238281 0.457031 1.15625 0.5625 C 1.082031 0.675781 0.972656 0.753906 0.828125 0.796875 C 0.691406 0.847656 0.5 0.875 0.25 0.875 Z M 0.21875 0.875 "/></g></g></g><g fill="#2a48a3" fill-opacity="1"><g transform="translate(118.52165, 36.988913)"><g/></g></g><g fill="#2a48a3" fill-opacity="1"><g transform="translate(119.405757, 36.988913)"><g><path d="M 0.578125 -2.484375 C 0.460938 -2.484375 0.367188 -2.519531 0.296875 -2.59375 C 0.222656 -2.664062 0.1875 -2.753906 0.1875 -2.859375 C 0.1875 -2.972656 0.222656 -3.0625 0.296875 -3.125 C 0.367188 -3.195312 0.460938 -3.234375 0.578125 -3.234375 C 0.691406 -3.234375 0.78125 -3.195312 0.84375 -3.125 C 0.914062 -3.0625 0.953125 -2.972656 0.953125 -2.859375 C 0.953125 -2.742188 0.914062 -2.648438 0.84375 -2.578125 C 0.78125 -2.515625 0.691406 -2.484375 0.578125 -2.484375 Z M 0.34375 0 C 0.289062 0 0.265625 -0.0234375 0.265625 -0.078125 L 0.265625 -2.203125 C 0.265625 -2.242188 0.289062 -2.265625 0.34375 -2.265625 L 0.8125 -2.265625 C 0.863281 -2.265625 0.890625 -2.242188 0.890625 -2.203125 L 0.890625 -0.078125 C 0.890625 -0.0234375 0.863281 0 0.8125 0 Z M 0.34375 0 "/></g></g></g><g fill="#2a48a3" fill-opacity="1"><g transform="translate(120.555096, 36.988913)"><g><path d="M 1.421875 -2.3125 C 1.648438 -2.3125 1.835938 -2.238281 1.984375 -2.09375 C 2.128906 -1.945312 2.203125 -1.75 2.203125 -1.5 L 2.203125 -0.078125 C 2.203125 -0.0234375 2.175781 0 2.125 0 L 1.65625 0 C 1.601562 0 1.578125 -0.0234375 1.578125 -0.078125 L 1.578125 -1.375 C 1.578125 -1.488281 1.546875 -1.582031 1.484375 -1.65625 C 1.421875 -1.726562 1.332031 -1.765625 1.21875 -1.765625 C 1.113281 -1.765625 1.023438 -1.726562 0.953125 -1.65625 C 0.890625 -1.582031 0.859375 -1.488281 0.859375 -1.375 L 0.859375 -0.078125 C 0.859375 -0.0234375 0.832031 0 0.78125 0 L 0.3125 0 C 0.257812 0 0.234375 -0.0234375 0.234375 -0.078125 L 0.234375 -2.203125 C 0.234375 -2.242188 0.257812 -2.265625 0.3125 -2.265625 L 0.78125 -2.265625 C 0.832031 -2.265625 0.859375 -2.242188 0.859375 -2.203125 L 0.859375 -2.078125 C 0.859375 -2.066406 0.859375 -2.054688 0.859375 -2.046875 C 0.867188 -2.046875 0.875 -2.050781 0.875 -2.0625 C 1 -2.226562 1.179688 -2.3125 1.421875 -2.3125 Z M 1.421875 -2.3125 "/></g></g></g><g clip-path="url(#2e4f4236b4)"><path fill="#ffffff" d="M 31.285156 11.214844 C 29.984375 10.976562 28.957031 11.226562 28.546875 11.933594 C 28.242188 12.464844 28.328125 13.167969 28.757812 13.917969 C 28.804688 13.996094 28.863281 14.011719 28.941406 13.96875 C 29.019531 13.921875 29.035156 13.863281 28.992188 13.785156 C 28.601562 13.109375 28.527344 12.503906 28.777344 12.070312 C 29.121094 11.480469 30.035156 11.257812 31.238281 11.476562 C 31.328125 11.492188 31.378906 11.457031 31.394531 11.371094 C 31.410156 11.28125 31.375 11.230469 31.285156 11.214844 Z M 29.4375 14.828125 C 29.960938 15.40625 30.644531 15.949219 31.425781 16.398438 C 33.3125 17.488281 35.320312 17.78125 36.308594 17.105469 C 36.382812 17.054688 36.394531 16.996094 36.34375 16.921875 C 36.296875 16.847656 36.234375 16.835938 36.160156 16.886719 C 35.273438 17.488281 33.367188 17.214844 31.554688 16.167969 C 30.800781 15.734375 30.136719 15.207031 29.632812 14.652344 C 29.570312 14.585938 29.507812 14.582031 29.441406 14.640625 C 29.378906 14.703125 29.375 14.765625 29.433594 14.832031 Z M 35.996094 14.667969 C 36.847656 13.664062 37.144531 12.652344 36.734375 11.941406 C 36.433594 11.421875 35.796875 11.144531 34.953125 11.136719 C 34.863281 11.132812 34.820312 11.175781 34.816406 11.265625 C 34.816406 11.355469 34.859375 11.398438 34.949219 11.402344 C 35.710938 11.410156 36.257812 11.648438 36.503906 12.074219 C 36.84375 12.664062 36.578125 13.566406 35.792969 14.496094 C 35.734375 14.566406 35.738281 14.628906 35.808594 14.683594 C 35.875 14.742188 35.9375 14.738281 35.996094 14.667969 Z M 33.808594 11.257812 C 33.035156 11.421875 32.21875 11.746094 31.429688 12.199219 C 29.480469 13.324219 28.210938 14.984375 28.386719 16.1875 C 28.402344 16.273438 28.453125 16.3125 28.539062 16.296875 C 28.625 16.285156 28.664062 16.234375 28.652344 16.148438 C 28.496094 15.078125 29.699219 13.507812 31.5625 12.429688 C 32.324219 11.988281 33.121094 11.675781 33.863281 11.515625 C 33.949219 11.5 33.984375 11.445312 33.964844 11.359375 C 33.945312 11.273438 33.894531 11.238281 33.808594 11.257812 Z M 33.808594 11.257812 " fill-opacity="1" fill-rule="evenodd"/></g><g clip-path="url(#90f3211463)"><path fill="#ffffff" d="M 30.652344 17.019531 C 31.097656 18.261719 31.824219 19.027344 32.644531 19.027344 C 33.242188 19.027344 33.792969 18.621094 34.226562 17.902344 C 34.269531 17.828125 34.257812 17.765625 34.179688 17.722656 C 34.105469 17.675781 34.042969 17.691406 33.996094 17.765625 C 33.609375 18.410156 33.132812 18.761719 32.644531 18.761719 C 31.964844 18.761719 31.3125 18.078125 30.902344 16.929688 C 30.871094 16.847656 30.816406 16.820312 30.730469 16.847656 C 30.648438 16.878906 30.621094 16.9375 30.652344 17.019531 Z M 34.71875 16.777344 C 34.949219 16.039062 35.074219 15.191406 35.074219 14.304688 C 35.074219 12.09375 34.300781 10.191406 33.199219 9.699219 C 33.117188 9.664062 33.058594 9.6875 33.023438 9.769531 C 32.988281 9.847656 33.007812 9.90625 33.089844 9.945312 C 34.074219 10.378906 34.804688 12.1875 34.804688 14.304688 C 34.804688 15.164062 34.6875 15.988281 34.464844 16.695312 C 34.4375 16.78125 34.46875 16.835938 34.550781 16.863281 C 34.636719 16.890625 34.691406 16.859375 34.71875 16.777344 Z M 37.230469 16.644531 C 37.230469 16.292969 36.945312 16.007812 36.59375 16.007812 C 36.238281 16.007812 35.953125 16.292969 35.953125 16.644531 C 35.953125 17 36.238281 17.285156 36.589844 17.285156 C 36.945312 17.285156 37.230469 17 37.230469 16.644531 Z M 36.964844 16.644531 C 36.964844 16.75 36.929688 16.835938 36.855469 16.910156 C 36.78125 16.980469 36.695312 17.015625 36.59375 17.015625 C 36.488281 17.015625 36.402344 16.980469 36.332031 16.910156 C 36.257812 16.835938 36.222656 16.75 36.222656 16.644531 C 36.222656 16.542969 36.257812 16.457031 36.332031 16.382812 C 36.402344 16.308594 36.488281 16.273438 36.59375 16.273438 C 36.695312 16.273438 36.78125 16.308594 36.855469 16.382812 C 36.929688 16.457031 36.964844 16.542969 36.964844 16.644531 Z M 36.964844 16.644531 " fill-opacity="1" fill-rule="evenodd"/></g><g clip-path="url(#e0cca9cfc1)"><path fill="#ffffff" d="M 28.6875 17.285156 C 29.039062 17.285156 29.324219 17 29.324219 16.644531 C 29.324219 16.292969 29.039062 16.007812 28.6875 16.007812 C 28.511719 16.007812 28.359375 16.070312 28.234375 16.195312 C 28.109375 16.320312 28.046875 16.46875 28.046875 16.644531 C 28.046875 16.820312 28.109375 16.972656 28.234375 17.097656 C 28.359375 17.222656 28.511719 17.285156 28.6875 17.285156 Z M 28.6875 17.015625 C 28.585938 17.015625 28.496094 16.980469 28.425781 16.910156 C 28.351562 16.835938 28.316406 16.75 28.316406 16.644531 C 28.316406 16.542969 28.351562 16.457031 28.425781 16.382812 C 28.496094 16.3125 28.585938 16.273438 28.6875 16.273438 C 28.789062 16.273438 28.878906 16.3125 28.949219 16.382812 C 29.023438 16.457031 29.058594 16.542969 29.058594 16.644531 C 29.058594 16.75 29.023438 16.835938 28.949219 16.910156 C 28.878906 16.980469 28.789062 17.015625 28.6875 17.015625 Z M 32.644531 10.351562 C 32.996094 10.351562 33.28125 10.0625 33.28125 9.710938 C 33.28125 9.359375 32.996094 9.074219 32.644531 9.074219 C 32.292969 9.074219 32.007812 9.359375 32.007812 9.714844 C 32.007812 10.066406 32.292969 10.351562 32.644531 10.351562 Z M 32.644531 10.082031 C 32.542969 10.082031 32.453125 10.046875 32.382812 9.972656 C 32.308594 9.902344 32.273438 9.8125 32.273438 9.710938 C 32.273438 9.609375 32.308594 9.523438 32.382812 9.449219 C 32.453125 9.375 32.542969 9.339844 32.644531 9.339844 C 32.746094 9.339844 32.835938 9.375 32.90625 9.449219 C 32.980469 9.523438 33.015625 9.609375 33.015625 9.710938 C 33.015625 9.8125 32.980469 9.902344 32.90625 9.972656 C 32.835938 10.046875 32.746094 10.082031 32.644531 10.082031 Z M 32.742188 14.753906 C 32.617188 14.785156 32.5 14.761719 32.390625 14.695312 C 32.285156 14.625 32.21875 14.527344 32.191406 14.402344 C 32.164062 14.277344 32.183594 14.160156 32.253906 14.054688 C 32.324219 13.945312 32.421875 13.878906 32.546875 13.851562 C 32.671875 13.824219 32.789062 13.84375 32.894531 13.914062 C 33.003906 13.984375 33.070312 14.082031 33.097656 14.207031 C 33.125 14.332031 33.105469 14.449219 33.035156 14.554688 C 32.964844 14.664062 32.867188 14.730469 32.742188 14.753906 Z M 32.742188 14.753906 " fill-opacity="1" fill-rule="evenodd"/></g></svg>